<?xml version="1.0" encoding="utf-8"?>
<!-- Generator: Adobe Illustrator 26.3.1, SVG Export Plug-In . SVG Version: 6.00 Build 0)  -->
<svg version="1.1" id="Hover" xmlns="http://www.w3.org/2000/svg" xmlns:xlink="http://www.w3.org/1999/xlink" x="0px" y="0px"
	 viewBox="0 0 100 100" style="enable-background:new 0 0 100 100;" xml:space="preserve">
<style type="text/css">
	.st0{fill:#FFFFFF;}
</style>
<path class="st0" d="M86.4,19.7v-3.8l-3.7-1.2C74,11.9,52.6,1.6,52.4,1.5L50,0.2l-2.4,1.3C47.4,1.6,26,11.9,17.3,14.7l-3.7,1.2
	l0,3.8c0,13.3,0,20.8,0,22.4v0.3c0,29.9,14.4,42.2,33.3,55.2l3.1,2.2l3.1-2.2c18.9-13,33.3-25.2,33.3-55.2V42
	C86.4,40.3,86.4,32.9,86.4,19.7 M22.5,42v-0.3c0-1.5,0-8.1,0-19.8c4.8-1.8,11-4.5,16.5-7l5.5-2.5c2.2-1,4-1.9,5.5-2.6
	c1.5,0.7,3.4,1.6,5.5,2.6l5.5,2.5c5.6,2.5,11.7,5.2,16.5,7c0,11.6,0,18.2,0,19.8V42c0,19-6.2,29.6-16.5,38.8l-5.5,4.5
	c-1.8,1.3-3.6,2.7-5.5,4c-1.9-1.3-3.7-2.7-5.5-4L39,80.8C28.7,71.6,22.5,60.9,22.5,42"/>
</svg>
