<?xml version="1.0" encoding="utf-8"?>
<!-- Generator: Adobe Illustrator 26.3.1, SVG Export Plug-In . SVG Version: 6.00 Build 0)  -->
<svg version="1.1" id="Blue" xmlns="http://www.w3.org/2000/svg" xmlns:xlink="http://www.w3.org/1999/xlink" x="0px" y="0px"
	 viewBox="0 0 100 100" style="enable-background:new 0 0 100 100;" xml:space="preserve">
<style type="text/css">
	.st0{fill:#005C8A;}
</style>
<path class="st0" d="M89.2,46.4l9.5-6.5l-0.1-0.6c-0.3-1.6-0.8-3.1-1.3-4.6c-0.5-1.5-1.1-3-1.7-4.5l-0.2-0.6l-11.6,0.3
	c-1.2-2.1-2.7-4-4.3-5.9l3.9-10.9L83,12.7c-2.4-2.1-5-4-7.7-5.6l-0.5-0.3l-9.2,7.1c-2.2-1-4.5-1.7-6.9-2.2L55.4,0.5l-0.6-0.1
	c-3.2-0.3-6.4-0.3-9.5,0l-0.6,0.1l-3.3,11.1c-1.2,0.3-2.4,0.6-3.5,1c-1.1,0.4-2.3,0.8-3.4,1.3l-9.2-7.1l-0.5,0.3
	c-2.7,1.6-5.3,3.5-7.7,5.6l-0.5,0.4L20.4,24c-1.6,1.8-3,3.8-4.3,5.9L4.6,29.6l-0.2,0.6c-1.3,2.9-2.3,6-3,9.1l-0.1,0.6l9.5,6.5
	c-0.2,2.4-0.2,4.9,0,7.3l-9.5,6.5l0.1,0.6c0.3,1.6,0.8,3.1,1.3,4.6c0.5,1.5,1.1,3,1.7,4.5l0.2,0.6l11.6-0.3c1.2,2.1,2.7,4.1,4.3,5.9
	l-3.9,10.9l0.5,0.4c2.4,2.1,5,4,7.7,5.6l0.5,0.3l9.2-7.1c2.2,1,4.5,1.7,6.9,2.2l3.3,11.1l0.6,0.1c3.2,0.3,6.4,0.3,9.5,0l0.6-0.1
	l3.3-11.1c1.2-0.3,2.4-0.6,3.5-1c1.1-0.4,2.3-0.8,3.4-1.3l9.2,7.1l0.5-0.3c2.7-1.6,5.3-3.5,7.7-5.6l0.5-0.4L79.6,76
	c1.6-1.8,3-3.8,4.3-5.9l11.6,0.3l0.2-0.6c1.3-2.9,2.3-6,3-9.1l0.1-0.6l-9.5-6.5C89.4,51.2,89.4,48.8,89.2,46.4z M50,78.1
	c-15.5,0-28.1-12.6-28.1-28.1c0-15.5,12.6-28.1,28.1-28.1c15.5,0,28.1,12.6,28.1,28.1C78.1,65.5,65.5,78.1,50,78.1z"/>
</svg>
