<?xml version="1.0" encoding="utf-8"?>
<!-- Generator: Adobe Illustrator 26.3.1, SVG Export Plug-In . SVG Version: 6.00 Build 0)  -->
<svg version="1.1" id="white" xmlns="http://www.w3.org/2000/svg" xmlns:xlink="http://www.w3.org/1999/xlink" x="0px" y="0px"
	 viewBox="0 0 100 100" style="enable-background:new 0 0 100 100;" xml:space="preserve">
<style type="text/css">
	.st0{fill:#FFFFFF;}
</style>
<path class="st0" d="M55,0.2H21.5c-3.5,0-6.4,3-6.4,6.7v86.3c0,3.7,2.9,6.7,6.4,6.7h57.1c3.5,0,6.4-3,6.4-6.7V31.8L55,0.2z
	 M56.8,11.3l17.6,18.6H56.8V11.3z M78.7,93.1c0,0.1-0.1,0.2-0.2,0.2H21.5c-0.1,0-0.2-0.1-0.2-0.2V6.8c0-0.1,0.1-0.2,0.2-0.2h29.1
	v29.7h28.2V93.1z"/>
</svg>
