<?xml version="1.0" encoding="utf-8"?>
<!-- Generator: Adobe Illustrator 25.0.0, SVG Export Plug-In . SVG Version: 6.00 Build 0)  -->
<svg version="1.1" id="Layer_1" xmlns="http://www.w3.org/2000/svg" xmlns:xlink="http://www.w3.org/1999/xlink" x="0px" y="0px"
	 viewBox="0 0 64 64" style="enable-background:new 0 0 64 64;" xml:space="preserve">
<style type="text/css">
	.st0{display:none;}
	.st1{display:inline;fill:#1A428A;}
	.st2{display:inline;}
	.st3{fill:#FFFFFF;}
	.st4{fill:#FFFFFF;stroke:#FFFFFF;stroke-width:0.25;stroke-miterlimit:10;}
	.st5{fill:#1A428A;}
</style>
<g id="Layer_1_1_" class="st0">
	<circle class="st1" cx="32" cy="32" r="32"/>
	<g class="st2">
		<g>
			<path class="st3" d="M54.2,18.5l-8.9-0.8l-0.8-8.6L37,12.7L31.9,6L27,12.9l-7.8-4l-0.5,8.9L10,18.1l3.3,8.4l-6.7,4.1l6.9,5.1
				L10,43.1l8.6,0.9l0.5,8.7l8-3.7l5.3,7l4.7-7l7.3,3.6l0.6-8.7l8.6-0.2l-3.1-7.2l6.1-5.5L50,25.8L54.2,18.5z M55.4,31.1L50,35.9
				l-0.4,0.4l0.2,0.5l2.7,6.1L45,43.1h-0.7l-0.1,0.7l-0.5,7.6l-6.3-3.1L36.8,48l-0.4,0.6l-4.1,6.1l-4.6-6.1L27.3,48l-0.6,0.3
				l-6.9,3.2L19.4,44v-0.7l-0.7-0.1l-7.5-0.8l3-6.3l0.3-0.6L14,35.1l-6-4.4l5.7-3.5l0.6-0.3L14,26.3l-2.9-7.4l7.7-0.4h0.7v-0.7
				l0.4-7.7l6.7,3.5l0.6,0.3l0.4-0.6l4.2-6l4.5,5.9l0.4,0.5l0.6-0.3l6.5-3.1l0.7,7.4l0.1,0.7l0.7,0.1l7.7,0.7l-3.6,6.3L49,26
				l0.5,0.4L55.4,31.1z"/>
		</g>
	</g>
	<g class="st2">
		<rect x="21.9" y="39.6" class="st4" width="20.1" height="0.7"/>
		<path class="st4" d="M31.4,20.9v14.4l-7.6-6.6l-0.4,0.5l8.2,7c0.1,0.1,0.1,0.1,0.2,0.1s0.2,0,0.2-0.1l8.2-7l-0.4-0.5l-7.7,6.6
			V20.9H31.4z"/>
	</g>
</g>
<g id="Layer_1_copy">
	<path class="st5" d="M7.8,50.5c-0.8,1.3-0.9,3.4-0.1,4.8c0.9,1.7,2.7,2.3,3.9,2.3h40.1c1.7,0,3.3-0.9,4.1-2.4
		c0.9-1.6,0.7-3.3-0.1-4.7l0,0L39.5,24.9V13.2c0.4,0,3.1-0.9,3.1-3.7c0-2.1-1.7-3.9-3.9-3.9H24.9c-2.1,0-3.9,1.7-3.9,3.9
		c0,1.9,1.4,3.4,3.1,3.7v11.7L7.8,50.5z M54.3,54.5c-0.6,1-1.6,1.6-2.7,1.6H12c-1.1,0-2.1-0.6-2.7-1.6c-0.5-0.9-0.7-2.2,0-3.2
		L17.1,39h29.4l7.9,12.4C54.9,52.3,54.9,53.5,54.3,54.5z M45.5,37.3H18.1l7.6-11.7c0.1-0.1,0.1-0.3,0.1-0.4V13.3h12v11.9
		c0,0.1,0,0.3,0.1,0.4L45.5,37.3z M22.8,9.5c0-1.3,1-2.3,2.3-2.3h13.4c1.3,0,2.3,1,2.3,2.3s-1.1,2.3-2.4,2.3H25
		C23.8,11.7,22.8,10.7,22.8,9.5z"/>
</g>
</svg>
