<?xml version="1.0" encoding="utf-8"?>
<!-- Generator: Adobe Illustrator 27.8.0, SVG Export Plug-In . SVG Version: 6.00 Build 0)  -->
<svg version="1.1" id="Layer_1" xmlns="http://www.w3.org/2000/svg" xmlns:xlink="http://www.w3.org/1999/xlink" x="0px" y="0px"
	 viewBox="0 0 1200 1005" style="enable-background:new 0 0 1200 1005;" xml:space="preserve">
<style type="text/css">
	.st0{fill:#E2E3E4;}
</style>
<path class="st0" d="M1197.5,452.4c0-247.5-198.7-448.8-442.9-448.8c-187.4,0-348,118.5-412.6,285.5c-13.2-4.4-26.9-7.6-41.1-9.4
	c-11.8-72-73.8-127.1-148.2-127.1c-82.8,0-150.2,68.3-150.2,152.2c0,47.7,21.8,90.3,55.7,118.2c-0.3,0.9-0.5,1.8-0.5,2.8
	c0,2.9,1.6,5.5,3.9,6.9c-7.2,22.2-11.2,45.9-11.2,70.6c0,45.4,13.4,87.8,36.3,123.2c-1.8,1.5-3,3.7-3,6.3s1.3,5,3.2,6.5
	c-9.1,15.2-14.3,33-14.3,52.1c0,55.6,44.6,100.8,99.5,100.8c11.2,0,21.9-1.9,31.9-5.4c1.4,2.5,4,4.3,7,4.3c0.1,0,0.2,0,0.3,0
	c35.8,111.4,139.3,192.2,261.1,192.2c65.1,0,124.9-23.1,172-61.6c1.5,1.6,3.5,2.6,5.8,2.6c1.4,0,2.6-0.4,3.8-1
	c40.8,47.8,101.1,78.1,168.3,78.1c37,0,71.9-9.2,102.6-25.5c1.5,1.9,3.7,3.1,6.2,3.1c2.5,0,4.7-1.2,6.2-3
	c15.3,5.3,31.6,8.2,48.7,8.2c82.8,0,150.2-68.3,150.2-152.2c0-37.8-13.7-72.4-36.3-99C1160.9,656.1,1197.5,558.5,1197.5,452.4
	L1197.5,452.4z M754.5,5.3c243.3,0,441.3,200.6,441.3,447.1c0,105.6-36.3,202.8-97,279.3c-19.1-22-44.3-38.4-72.9-46.4
	c-3.8-8.8-8.2-17.3-13.1-25.5c59.4-11.3,104.5-64.6,104.5-128.5s-45.5-117.7-105.3-128.7c-24.8-97.1-112-168.9-215.4-168.9
	c-87.7,0-163.6,51.6-199.9,126.5c-19.3-11.9-42-18.8-66.3-18.8c-29.8,0-57.2,10.4-79,27.8c-26.9-36.6-64.4-64.7-107.9-79.5
	C407.9,123.3,567.9,5.3,754.5,5.3L754.5,5.3z M931.1,962.8c-3.6,0-6.6,2.4-7.6,5.7c-31.3-14.7-56.6-40.2-71.5-71.6
	c3-1.2,5.1-4.1,5.1-7.6c0-0.1,0-0.2,0-0.4c69.5-16.8,132.7-50.1,185.3-95.8c-5.5,73.3-46,136.7-104.6,173.3
	C936.4,964.3,933.9,962.8,931.1,962.8L931.1,962.8z M655.3,910c-1.4-1.2-3.2-1.9-5.1-1.9c-1.8,0-3.5,0.6-4.8,1.7
	c-5.1-7-9.9-14.2-14.2-21.8c1.3-0.9,2.3-2.2,2.9-3.7c11.2,3.2,22.6,6,34.1,8.3c0,0,0,0,0,0.1c0,1.4,0.4,2.7,1,3.8
	C664.7,901.1,660.1,905.7,655.3,910L655.3,910z M211,774.9c-0.9,0-1.7,0.2-2.5,0.4c-4.4-16.9-7.2-34.4-8.3-52.4c0.1,0,0.2,0,0.3,0
	c3,0,5.6-1.7,7-4.2c17.6,5.5,36.2,8.8,55.3,9.7c-8.7,21.7-24.7,39.6-44.9,50.5C216.5,776.6,213.9,774.9,211,774.9L211,774.9z
	 M99.7,632.8c0-2.1-0.8-4.1-2.2-5.5c18-21.4,44.7-35.1,74.6-35.1c16.2,0,31.4,4,44.9,11.1c-12.3,31.5-19,65.9-19,101.8
	c0,0.7,0,1.3,0,2c-2.2,0.8-4,2.5-4.9,4.7c-38.2-15.1-71.3-40.7-95.8-73.2C98.7,637.2,99.7,635.1,99.7,632.8L99.7,632.8z
	 M208.1,717.2c0.2-0.7,0.4-1.5,0.4-2.3c0-4.5-3.6-8.1-8-8.1c-0.3,0-0.6,0.1-0.8,0.1c0-0.5,0-1.1,0-1.6c0-35.6,6.7-69.7,18.9-101
	c30.6,16.8,51.4,49.6,51.4,87.2c0,12.5-2.3,24.4-6.5,35.4C244.2,726,225.7,722.7,208.1,717.2L208.1,717.2z M271.5,691.4
	c0-38.4-21.3-71.8-52.5-88.8c19.3-48.8,52-90.8,93.4-121.2c5,79.2,30.3,152.8,70.8,215.6c-32.5,19.1-70.2,30.1-110.4,30.1
	c-2.6,0-5.1-0.1-7.7-0.2C269.3,715.8,271.6,703.9,271.5,691.4L271.5,691.4z M314.1,480.2c26.1-18.9,55.6-33.2,87.4-41.9
	c0.9,1.8,2.4,3.3,4.2,4c-2.1,9.2-3.2,18.8-3.2,28.7c0,49.8,27.8,93.1,68.5,114.8c-0.1,0.5-0.2,1.1-0.2,1.6c0,2.9,1.5,5.4,3.7,6.8
	c-18.8,42.7-50.4,78.3-89.8,101.9C344.3,633.2,319,559.5,314.1,480.2L314.1,480.2z M313.3,452.4c0-56.8,10.5-111.2,29.7-161.2
	c43.2,14.7,80.5,42.6,107.2,79c-18,14.7-31.9,34.3-40,56.7c-0.5-0.1-1-0.2-1.5-0.2c-4.4,0-8,3.6-8,8.1c0,0.7,0.1,1.3,0.2,1.9
	c-31.6,8.6-60.9,22.8-86.9,41.5C313.5,469.6,313.2,461,313.3,452.4L313.3,452.4z M745.1,705.2c0,68.7-24.9,131.6-65.9,180
	c-0.9-0.4-2-0.6-3.1-0.6c-3.8,0-7,2.7-7.8,6.4c-11.5-2.3-22.7-5-33.9-8.2c0.1-0.5,0.1-0.9,0.1-1.4c0-4.5-3.6-8.1-8-8.1
	c-1.1,0-2.1,0.2-3,0.6c-14.2-29.5-22.2-62.7-22.2-97.8c0-53.4,18.6-102.4,49.5-140.9c1.4,1.1,3.1,1.8,5,1.8c1.2,0,2.3-0.3,3.3-0.7
	c22.6,18.1,48.8,31.8,77.3,39.9c0,0.2-0.1,0.4-0.1,0.6c0,4.5,3.6,8.1,8,8.1c0,0,0,0,0,0C744.9,691.5,745.2,698.3,745.1,705.2
	L745.1,705.2z M408.7,442.9c4.4,0,8-3.6,8-8.1c0-0.1,0-0.1,0-0.2c18-3.8,36.6-5.8,55.7-5.8c0.2,0,0.3,0,0.5,0c0.9,3.4,4,6,7.7,6
	c0.8,0,1.6-0.2,2.4-0.4c7,21.7,10.8,44.9,10.8,69c0,26.7-4.6,52.4-13.2,76.1c-0.5-0.1-1-0.2-1.6-0.2c-3.3,0-6.1,2-7.3,4.9
	c-40-21.5-67.4-64.1-67.4-113.1c0-9.7,1.1-19.2,3.1-28.3C407.8,442.8,408.2,442.9,408.7,442.9L408.7,442.9z M482.1,580
	c8.6-23.9,13.3-49.7,13.3-76.6c0-24.3-3.8-47.7-10.9-69.7c1.7-1,3-2.5,3.6-4.4c28,1.6,54.9,7.5,80,17.1c-0.4,0.9-0.6,1.9-0.6,3
	c0,4,2.9,7.3,6.7,8c0,0.6,0,1.1,0,1.7c0,39.4,10,76.4,27.6,108.6c-1.6,1.5-2.6,3.6-2.6,5.9c0,1.5,0.4,2.8,1.1,4
	c-20,13.5-44,21.4-69.8,21.4c-15.6,0-30.5-2.9-44.3-8.2c0.5-1,0.8-2.2,0.8-3.4C486.9,584.1,484.9,581.2,482.1,580L482.1,580z
	 M646.2,498.9c0,3.6,2.3,6.6,5.5,7.7c-6.9,24.1-20.6,45.3-38.9,61.3c-1.5-1.5-3.5-2.4-5.7-2.4c-1.5,0-2.9,0.4-4.1,1.2
	c-17.4-31.9-27.3-68.6-27.3-107.6c0-0.5,0-1.1,0-1.6c3.2-0.1,5.9-2.1,7-4.9c23.7,10.7,45.6,24.7,65.1,41.4
	C646.9,495.3,646.2,497,646.2,498.9L646.2,498.9z M615.1,573.6c0-1.6-0.5-3.1-1.3-4.4c18.6-16.2,32.5-37.8,39.5-62.3
	c0.3,0,0.6,0.1,0.8,0.1c2.2,0,4.2-0.9,5.6-2.4c20.6,19.8,38.2,42.8,51.9,68.2c-1.4,1.5-2.2,3.4-2.2,5.6c0,1,0.2,2,0.6,2.9
	c-18.6,11-35.4,24.7-50.1,40.5c-1.2-0.8-2.6-1.2-4.2-1.2c-3.1,0-5.7,1.8-7.1,4.4c-14.3-13.1-27-28.1-37.5-44.6
	C613.6,579.1,615.2,576.5,615.1,573.6L615.1,573.6z M736.7,674.4c-28-8-53.7-21.5-76-39.2c1.9-1.5,3.2-3.8,3.2-6.4
	c0-2.3-1-4.4-2.5-5.9c14.5-15.6,31.2-29.1,49.5-40c1.4,2.2,3.9,3.7,6.7,3.7c0.4,0,0.7-0.1,1.1-0.1c12,25.5,20.3,53.2,24.1,82.3
	C739.9,669.3,737.5,671.5,736.7,674.4L736.7,674.4z M744.4,668.6c-3.8-29.2-12.1-56.9-24.1-82.6c3.1-1.1,5.2-4.1,5.2-7.6
	c0-1.1-0.2-2.2-0.7-3.2c29.4-14.7,62.4-22.9,97.3-22.9c11.9,0,23.7,1,35.1,2.8c0.1,4.3,3.6,7.8,7.9,7.8c7.5,30.7,25.7,57.2,50.3,75
	c-0.4,0.9-0.6,1.9-0.6,3c0,2.1,0.8,4,2.1,5.5c-34.7,23-76.1,36.3-120.5,36.3c-15.2,0-30-1.6-44.4-4.5c0.1-0.5,0.2-1,0.2-1.5
	C752.4,672.2,748.8,668.6,744.4,668.6L744.4,668.6z M957.2,604.4c0,2.2,0.8,4.1,2.2,5.6c-9,9.9-18.8,19-29.4,27.2
	c-1.3-2.6-4-4.3-7-4.3c-2.8,0-5.2,1.4-6.7,3.6c-24.1-17.5-42-43.5-49.4-73.6c2.6-0.5,4.7-2.3,5.7-4.6c31.8,7.6,61,22.1,85.8,41.9
	C957.6,601.3,957.2,602.8,957.2,604.4L957.2,604.4z M930.9,641c0-0.7-0.1-1.5-0.3-2.2c10.8-8.3,20.9-17.6,30-27.7
	c1.3,0.9,2.8,1.4,4.5,1.4c2.1,0,3.9-0.8,5.3-2.1c15.3,14.1,28.6,30.3,39.6,48.2c-6.7,1.1-13.7,1.8-20.7,1.8
	c-21.5,0-41.8-5.5-59.5-15.3C930.5,643.9,931,642.5,930.9,641L930.9,641z M971.6,609.1c1-1.3,1.5-3,1.5-4.7c0-2.2-0.8-4.1-2.2-5.6
	c30.1-38.5,48.1-87,48.1-139.8c0-18.8-2.3-37.1-6.6-54.6c58.6,11.1,103.2,63.8,103.2,126.9s-44.9,116.1-103.8,127
	C1000.8,640,987.2,623.5,971.6,609.1L971.6,609.1z M1017.4,459c0,52.4-17.8,100.6-47.7,138.7c-1.3-0.9-2.8-1.4-4.5-1.4
	c-2.2,0-4.2,0.9-5.7,2.4c-25-19.9-54.4-34.6-86.3-42.2c0.1-0.5,0.2-1.1,0.2-1.7c0-4.5-3.6-8.1-8-8.1c-0.4,0-0.9,0.1-1.3,0.1
	c-0.6-5.1-1-10.3-1-15.6c0-71.2,56.7-129.1,126.3-129.1c7.3,0,14.4,0.7,21.3,1.9C1015,421.7,1017.4,440.1,1017.4,459L1017.4,459z
	 M989.3,400.5c-70.6,0-128,58.7-128,130.8c0,5.5,0.4,10.8,1,16.1c-2.5,1-4.4,3.3-4.9,6.1c-11.5-1.9-23.2-2.8-35.2-2.8
	c-35.2,0-68.5,8.3-98.2,23.2c-1.5-2.1-3.8-3.4-6.5-3.4c-1.7,0-3.2,0.5-4.5,1.4c-13.8-25.5-31.5-48.6-52.2-68.4
	c0.8-1.3,1.3-2.8,1.3-4.4c0-3.5-2.3-6.5-5.4-7.6c1-6.6,1.6-13.4,1.6-20.3c0-46.3-24.1-87-60.3-109.9
	c35.9-74.4,111.4-125.7,198.4-125.7c102.4,0,188.7,71,213.6,166.9C1003.3,401.1,996.4,400.5,989.3,400.5L989.3,400.5z M656.7,471
	c0,6.8-0.5,13.4-1.5,19.9c-0.3,0-0.6-0.1-1-0.1c-1.9,0-3.7,0.7-5.1,1.9c-19.8-16.9-41.9-31-65.8-41.8c0.1-0.5,0.2-1,0.2-1.5
	c0-4.1-3.1-7.5-7-8c2.2-28,9.5-54.6,20.9-78.8C633,385.2,656.7,425.3,656.7,471L656.7,471z M574.8,441.3c-2.5,0.2-4.6,1.5-6,3.5
	c-25.3-9.6-52.3-15.6-80.4-17.3c0-0.3,0.1-0.6,0.1-0.9c0-4.5-3.6-8.1-8-8.1c-0.5,0-1,0.1-1.5,0.2c-6.9-17.2-15.9-33.4-26.6-48.2
	c21.5-17.2,48.6-27.4,78-27.4c24,0,46.4,6.8,65.5,18.6C584.4,386.1,577,413,574.8,441.3L574.8,441.3z M477.4,419.2
	c-2.9,1.2-4.9,4.1-4.9,7.5c0,0.2,0,0.3,0,0.4c-0.1,0-0.1,0-0.2,0c-19.2,0-37.9,2-55.9,5.8c-0.6-2.5-2.3-4.6-4.6-5.6
	c7.9-22,21.7-41.3,39.4-55.8C461.7,386.2,470.5,402.1,477.4,419.2L477.4,419.2z M476.1,594.9c0.9,0.3,1.8,0.5,2.8,0.5
	c2.6,0,4.9-1.3,6.3-3.2c14.1,5.4,29.3,8.4,45.2,8.4c26.1,0,50.5-8,70.8-21.7c1.5,1.7,3.6,2.7,5.9,2.7c0.9,0,1.8-0.2,2.6-0.5
	c10.8,16.9,23.7,32.2,38.4,45.5c-0.2,0.7-0.3,1.3-0.3,2c0,1.9,0.7,3.7,1.8,5.1c-31.2,38.8-49.9,88.3-49.9,142.1
	c0,35.3,8.1,68.8,22.4,98.5c-1.2,0.8-2.2,2-2.8,3.4c-96.7-31.6-178.9-96.1-233.7-180.5C425.3,673.8,457.2,637.9,476.1,594.9
	L476.1,594.9z M680.7,886c41.2-48.7,66.1-111.8,66.1-180.8c0-6.9-0.3-13.8-0.7-20.6c2.6-0.6,4.6-2.4,5.6-4.8
	c14.5,3,29.5,4.6,44.9,4.6c44.9,0,86.8-13.6,121.8-36.8c1.3,0.9,2.9,1.5,4.6,1.5c2.3,0,4.4-1,5.8-2.6c18,9.9,38.7,15.6,60.5,15.6
	c7.4,0,14.6-0.7,21.7-1.9c4.7,7.9,9,16.1,12.8,24.6c-12.1-3.2-24.8-4.9-37.9-4.9c-82.8,0-150.2,68.3-150.2,152.2
	c0,17.8,3,34.9,8.6,50.8c-2,1.5-3.3,3.8-3.3,6.5c0,0.5,0.1,0.9,0.1,1.4c-28,5.7-57,8.7-86.7,8.7c-24,0-47.5-2-70.5-5.7
	c0.1-0.4,0.1-0.7,0.1-1.1C684.2,889.9,682.8,887.5,680.7,886L680.7,886z M856.8,887.3c-0.9-3.5-4-6.1-7.7-6.1
	c-1.2,0-2.3,0.3-3.3,0.7c-5.4-15.6-8.4-32.4-8.4-49.9c0-83,66.6-150.5,148.5-150.5c13.4,0,26.4,1.8,38.7,5.2
	c11.8,27.4,18.3,57.5,18.3,89.2c0,5-0.2,9.9-0.5,14.9C989.9,836.8,926.5,870.5,856.8,887.3L856.8,887.3z M1026.7,687.3
	c27.9,8.1,52.4,24.2,71,45.7c-16.2,20.3-34,39.1-53.4,56.2c0.2-4.4,0.4-8.8,0.4-13.3C1044.7,744.5,1038.3,714.6,1026.7,687.3
	L1026.7,687.3z M4.2,304.8c0-83,66.6-150.5,148.5-150.5c73.4,0,134.5,54.2,146.4,125.2c-8.6-1-17.4-1.6-26.2-1.6
	c-92.8,0-172.5,57.9-205.8,139.9c-0.4-0.1-0.9-0.1-1.3-0.1c-2.8,0-5.3,1.5-6.7,3.7C25.6,393.8,4.2,351.8,4.2,304.8L4.2,304.8z
	 M73.7,425.8c0-3.4-2.1-6.3-5-7.5c33.1-81.3,112.2-138.7,204.2-138.7c9,0,17.8,0.6,26.5,1.6c1.2,7.7,1.8,15.5,1.8,23.5
	c0,83-66.6,150.5-148.5,150.5c-29.8,0-57.6-8.9-80.8-24.3C73,429.6,73.7,427.8,73.7,425.8L73.7,425.8z M52.1,503.3
	c0-24.4,3.9-47.9,11-69.8c0.8,0.3,1.7,0.5,2.6,0.5c1.9,0,3.6-0.7,4.9-1.8c23.6,15.7,51.8,24.8,82.1,24.8
	c82.8,0,150.2-68.3,150.2-152.2c0-7.9-0.6-15.7-1.8-23.3c13.8,1.8,27.3,4.9,40.2,9.2c-19.2,50.2-29.8,104.7-29.8,161.7
	c0,9.1,0.3,18,0.8,27c-42.1,30.7-75.2,73.1-94.8,122.5c-13.7-7.1-29.1-11.2-45.5-11.2c-30.4,0-57.5,13.9-75.8,35.6
	c-1.3-0.9-2.9-1.5-4.6-1.5c-1.3,0-2.5,0.3-3.6,0.9C65.4,590.5,52.1,548.4,52.1,503.3L52.1,503.3z M172,790.5
	c-53.9,0-97.8-44.5-97.8-99.1c0-18.7,5.1-36.3,14.1-51.2c1,0.5,2.2,0.8,3.3,0.8c1.6,0,3-0.5,4.2-1.2c24.7,32.8,58.1,58.6,96.7,73.8
	c-0.1,0.4-0.1,0.9-0.1,1.3c0,3.8,2.6,6.9,6,7.8c1.1,18.3,4,36.2,8.5,53.4c-2.3,1.4-3.9,4-3.9,6.9c0,0.8,0.1,1.5,0.3,2.2
	C193.5,788.7,183,790.5,172,790.5L172,790.5z M472.4,981.6c-120.9,0-223.7-80.1-259.4-190.7c3.4-0.9,6-4.1,6-7.8
	c0-0.9-0.2-1.7-0.4-2.6c20.8-11.2,37.2-29.6,46-51.9c2.8,0.1,5.6,0.2,8.4,0.2c40.5,0,78.6-11,111.4-30.3
	c55,84.7,137.5,149.5,234.6,181.2c-0.1,0.5-0.2,1.1-0.2,1.7c0,4.5,3.6,8.1,8,8.1c1.1,0,2.1-0.2,3-0.6c4.4,7.7,9.2,15.1,14.5,22.2
	c-1.2,1.4-1.9,3.2-1.9,5.2c0,1.5,0.4,3,1.2,4.2C596.6,958.6,537.1,981.6,472.4,981.6L472.4,981.6z M822.2,999.7
	c-66.6,0-126.4-30-166.9-77.4c1.7-1.5,2.8-3.7,2.8-6.1c0-1.9-0.7-3.6-1.7-4.9c4.7-4.3,9.2-8.8,13.6-13.4c1.5,1.7,3.6,2.9,6.1,2.9
	c3.4,0,6.4-2.2,7.5-5.3c23.1,3.8,46.7,5.8,70.9,5.8c29.8,0,59-3,87.2-8.7c1.2,3,4.1,5.1,7.4,5.1c0.4,0,0.8-0.1,1.2-0.1
	c15.1,32.1,41,58,72.9,72.9c0,0.2-0.1,0.4-0.1,0.6c0,1.3,0.3,2.5,0.8,3.6C893.5,990.6,858.9,999.7,822.2,999.7L822.2,999.7z
	 M1134.5,832.1c0,83-66.6,150.5-148.5,150.5c-16.7,0-32.8-2.8-47.7-8c0.6-1.1,0.9-2.3,0.9-3.6c0-1-0.2-2-0.5-2.9
	c59.5-37.1,100.5-101.8,105.6-176.4c19.8-17.4,38.1-36.6,54.7-57.3C1121,760.7,1134.5,794.8,1134.5,832.1L1134.5,832.1z"/>
</svg>
