<?xml version="1.0" encoding="utf-8"?>
<!-- Generator: Adobe Illustrator 27.8.0, SVG Export Plug-In . SVG Version: 6.00 Build 0)  -->
<svg version="1.1" id="Layer_1" xmlns="http://www.w3.org/2000/svg" xmlns:xlink="http://www.w3.org/1999/xlink" x="0px" y="0px"
	 viewBox="0 0 1200 1095" style="enable-background:new 0 0 1200 1095;" xml:space="preserve">
<style type="text/css">
	.st0{fill:none;stroke:#BBBCBC;stroke-width:1.5696;stroke-linecap:round;stroke-linejoin:round;}
	.st1{fill:#BBBCBC;}
	.st2{fill:none;stroke:#CC092F;stroke-width:1.5696;stroke-linecap:round;stroke-linejoin:round;}
	.st3{fill:#CC092F;}
	.st4{fill:none;stroke:#CC092F;stroke-width:1.5696;stroke-miterlimit:10;}
	.st5{fill:none;stroke:#CC092F;stroke-width:4.7088;stroke-linecap:round;stroke-linejoin:round;}
	.st6{fill:none;stroke:#CC092F;stroke-width:4.7088;stroke-linecap:round;stroke-linejoin:round;stroke-dasharray:0,0,0,12.5677;}
	.st7{fill:none;stroke:#FFFFFF;stroke-width:1.744;stroke-miterlimit:10;}
	.st8{fill:#FFFFFF;}
	.st9{fill:none;stroke:#CC092F;stroke-width:0.7848;stroke-linecap:round;stroke-linejoin:round;}
	.st10{fill:none;stroke:#CC092F;stroke-width:0.6322;stroke-linecap:round;stroke-linejoin:round;}
	.st11{fill:none;stroke:#FFFFFF;stroke-width:1.0464;stroke-miterlimit:10;}
	.st12{fill:none;stroke:#CC092F;stroke-width:10.9872;stroke-linecap:round;stroke-linejoin:round;}
	.st13{fill:none;stroke:#CC092F;stroke-width:10.9872;stroke-linecap:round;stroke-linejoin:round;stroke-dasharray:0,0,0,24.2089;}
</style>
<g>
	<g>
		<path class="st0" d="M1053.8,699.3c-68.6,186-247.5,318.6-457.4,318.6c-269.2,0-487.4-218.2-487.4-487.4
			c0-159.8,76.9-301.6,195.7-390.5"/>
		<polygon class="st1" points="1045.6,698.8 1057.6,688.7 1060.3,704.1 		"/>
		<polygon class="st1" points="307.6,147.7 313.9,133.4 298.3,135.1 		"/>
	</g>
	<g>
		<path class="st2" d="M602.1,43.2c264.7,3,478.8,217,481.8,481.7"/>
		<path class="st3" d="M602.2,49.2c-3.3-0.1-5.8-2.8-5.8-6c0.1-3.3,2.8-5.8,6-5.8c3.3,0.1,5.8,2.8,5.8,6
			C608.2,46.7,605.5,49.3,602.2,49.2z"/>
		<path class="st3" d="M1077.8,524.8c0.1,3.3,2.8,5.8,6,5.8c3.3-0.1,5.8-2.8,5.8-6c-0.1-3.3-2.8-5.8-6-5.8
			C1080.3,518.9,1077.7,521.6,1077.8,524.8z"/>
	</g>
	<circle class="st4" cx="596.5" cy="530.6" r="466.2"/>
	<g>
		<line class="st5" x1="159.6" y1="269.9" x2="159.6" y2="269.9"/>
		<path class="st6" d="M166.2,259.2C256.3,116.7,415.3,22,596.5,22C877.3,22,1105,249.7,1105,530.6s-227.7,508.6-508.6,508.6
			S87.9,811.4,87.9,530.6c0-78.1,17.6-152.1,49.1-218.3"/>
		<line class="st5" x1="139.7" y1="306.7" x2="139.7" y2="306.7"/>
	</g>
	<g>
		<path class="st0" d="M1126.1,541.8c-6,287.4-240.8,518.5-529.7,518.5c-208.9,0-389.5-120.9-475.8-296.5
			c-10.5-21.3-19.5-43.4-27.1-66.2"/>
		<polygon class="st1" points="1118.2,544 1126.2,530.6 1133.9,544.2 		"/>
		<path class="st1" d="M98.6,696.2c-0.9-2.7-3.9-4.2-6.6-3.2c-2.7,0.9-4.2,3.9-3.2,6.6c0.9,2.7,3.9,4.2,6.6,3.2
			C98.1,701.8,99.5,698.9,98.6,696.2z"/>
	</g>
	<g>
		<path class="st2" d="M88,381.4C135.2,220,257.2,90.6,414,33.1C470.9,12.2,532.3,0.8,596.4,0.8c131.1,0,251,47.6,343.5,126.5"/>
		<path class="st3" d="M93.1,382.7c-0.8,2.7-3.7,4.3-6.5,3.5c-2.7-0.8-4.3-3.7-3.5-6.5c0.8-2.7,3.7-4.3,6.5-3.5
			C92.3,377.1,93.9,380,93.1,382.7z"/>
	</g>
	<g>
		<path class="st7" d="M591,968.5c-38.7-0.5-76.2-6-111.9-15.9c-169-46.9-296.9-192.5-317.7-370.9c-1.7-15-2.7-30.3-2.9-45.7"/>
		<path class="st8" d="M590.8,962.7c3.2,0.1,5.7,2.7,5.7,5.9c-0.1,3.2-2.7,5.7-5.9,5.7c-3.2-0.1-5.7-2.7-5.7-5.9
			C585,965.1,587.6,962.6,590.8,962.7z"/>
		<path class="st8" d="M164.3,536.2c0-3.2-2.7-5.7-5.8-5.7c-3.2,0-5.7,2.7-5.7,5.8c0,3.2,2.7,5.7,5.8,5.7
			C161.9,542,164.4,539.4,164.3,536.2z"/>
	</g>
	<g>
		<path class="st9" d="M149.5,400.5c-62.4,0-113-50.6-113-113s47.6-109.9,107.4-112.9"/>
		<polygon class="st3" points="142.9,178.6 149.5,174.5 142.6,170.8 		"/>
	</g>
	<g>
		<circle class="st10" cx="149.5" cy="287.5" r="11.3"/>
		<circle class="st3" cx="149.5" cy="287.5" r="7.3"/>
	</g>
	<g>
		<circle class="st10" cx="940" cy="127.3" r="11.3"/>
		<circle class="st3" cx="940" cy="127.3" r="7.3"/>
	</g>
	<g>
		<circle class="st10" cx="1046.9" cy="809" r="11.3"/>
		<circle class="st3" cx="1046.9" cy="809" r="7.3"/>
	</g>
	<g>
		<circle class="st10" cx="116" cy="754.7" r="11.3"/>
		<circle class="st3" cx="116" cy="754.7" r="7.3"/>
	</g>
	<g>
		<circle class="st9" cx="42.4" cy="324.7" r="39.2"/>
		<circle class="st3" cx="36.5" cy="287.5" r="5"/>
		<circle class="st3" cx="62.1" cy="359" r="5"/>
		<circle class="st3" cx="5.5" cy="336.5" r="5"/>
	</g>
	<g>
		<circle class="st3" cx="839.2" cy="1051.4" r="5"/>
		<circle class="st3" cx="865.1" cy="1051.4" r="5"/>
		<circle class="st3" cx="787.5" cy="1051.4" r="5"/>
		<circle class="st3" cx="813.4" cy="1051.4" r="5"/>
	</g>
	<circle class="st3" cx="104.1" cy="725.3" r="5"/>
	<g>
		<path class="st2" d="M1022.1,1064.3c-27.5,18.9-60.8,29.9-96.6,29.9c-78.8,0-145.1-53.3-165-125.8"/>
		<polygon class="st3" points="1015.6,1059.3 1031.2,1057.6 1024.8,1071.9 		"/>
	</g>
	<g>
		<rect x="1016.5" y="903.6" class="st3" width="4.2" height="28.3"/>
		<rect x="1025.6" y="903.6" class="st3" width="4.2" height="28.3"/>
		<rect x="1034.6" y="903.6" class="st3" width="4.2" height="28.3"/>
	</g>
	<g>
		<line class="st4" x1="957" y1="917.7" x2="1188.2" y2="917.7"/>
		<circle class="st3" cx="957.3" cy="917.7" r="5.2"/>
		<polygon class="st3" points="1185.9,925.5 1199.5,917.7 1185.9,909.9 		"/>
	</g>
	<g>
		<path class="st2" d="M1046.9,806.4c27.2,29.1,44.4,67.8,45.9,110.4"/>
		<g>
			<path class="st8" d="M1086.9,916.6c0.1,3.3,2.8,5.8,6,5.8c3.3-0.1,5.8-2.8,5.8-6c-0.1-3.3-2.8-5.8-6-5.8
				C1089.4,910.7,1086.8,913.4,1086.9,916.6z"/>
			<path class="st3" d="M1086.1,916.7c-0.1-3.7,2.8-6.8,6.5-6.8s6.8,2.8,6.8,6.5c0.1,3.7-2.8,6.8-6.5,6.8S1086.2,920.3,1086.1,916.7
				C1086.1,913,1086.2,920.3,1086.1,916.7z M1097.9,916.4c-0.1-2.8-2.4-5.1-5.2-5c-2.8,0.1-5.1,2.4-5,5.2c0.1,2.8,2.4,5.1,5.2,5
				C1095.8,921.5,1098,919.2,1097.9,916.4C1097.9,913.5,1098,919.2,1097.9,916.4z"/>
		</g>
	</g>
	<circle class="st11" cx="455.1" cy="944.9" r="14.1"/>
	<g>
		<line class="st12" x1="360.2" y1="104.1" x2="360.2" y2="104.1"/>
		<path class="st13" d="M381.6,92.9c46.3-22.8,96.8-38.4,149.9-45.5"/>
		<line class="st12" x1="543.6" y1="45.9" x2="543.6" y2="45.9"/>
	</g>
</g>
</svg>
