<?xml version="1.0" encoding="utf-8"?>
<!-- Generator: Adobe Illustrator 27.8.0, SVG Export Plug-In . SVG Version: 6.00 Build 0)  -->
<svg version="1.1" id="smart_circles" xmlns="http://www.w3.org/2000/svg" xmlns:xlink="http://www.w3.org/1999/xlink" x="0px"
	 y="0px" viewBox="0 0 1160 1200" style="enable-background:new 0 0 1160 1200;" xml:space="preserve">
<style type="text/css">
	.st0{fill:#BBBCBC;}
	.st1{fill:none;stroke:#CC092F;stroke-width:2.7755;stroke-miterlimit:10;}
	.st2{fill:none;stroke:#BBBCBC;stroke-width:7.4012;stroke-linecap:round;stroke-linejoin:round;stroke-dasharray:0,0,0,22.2037;}
	.st3{fill:none;stroke:#BBBCBC;stroke-width:3.8486;stroke-linecap:round;stroke-linejoin:round;}
	.st4{fill:#CC092F;}
	.st5{fill:none;stroke:#CC092F;stroke-width:0.6661;stroke-linecap:round;stroke-linejoin:round;}
</style>
<g>
	<polygon class="st0" points="585.6,40.4 585.6,28.5 585.6,0.5 574.3,0.5 574.3,28.5 574.3,40.4 574.3,68.4 585.6,68.4 	"/>
	
		<rect x="534.8" y="3.6" transform="matrix(0.9976 -6.975647e-02 6.975647e-02 0.9976 -1.181 37.7901)" class="st0" width="11.3" height="64.5"/>
	
		<rect x="495.6" y="9.3" transform="matrix(0.9903 -0.1392 0.1392 0.9903 -0.6792 70.1486)" class="st0" width="11.3" height="61.2"/>
	
		<rect x="456.7" y="17.7" transform="matrix(0.9781 -0.2079 0.2079 0.9781 0.3794 97.159)" class="st0" width="11.3" height="58.2"/>
	
		<rect x="418.4" y="28.7" transform="matrix(0.9613 -0.2756 0.2756 0.9613 0.8945 119.0739)" class="st0" width="11.3" height="55.3"/>
	
		<rect x="380.9" y="42.3" transform="matrix(0.9397 -0.342 0.342 0.9397 -0.1426 136.3329)" class="st0" width="11.3" height="52.5"/>
	
		<rect x="344.2" y="58.4" transform="matrix(0.9135 -0.4067 0.4067 0.9135 -3.6373 149.5209)" class="st0" width="11.3" height="49.9"/>
	
		<rect x="308.8" y="76.9" transform="matrix(0.8829 -0.4695 0.4695 0.8829 -10.4437 159.3968)" class="st0" width="11.3" height="47.4"/>
	<rect x="274.6" y="97.9" transform="matrix(0.848 -0.5299 0.5299 0.848 -21.2202 166.797)" class="st0" width="11.3" height="45"/>
	
		<rect x="241.8" y="121" transform="matrix(0.809 -0.5878 0.5878 0.809 -36.4541 172.6846)" class="st0" width="11.3" height="42.8"/>
	
		<rect x="210.7" y="146.4" transform="matrix(0.766 -0.6428 0.6428 0.766 -56.5615 178.1004)" class="st0" width="11.3" height="40.6"/>
	
		<rect x="181.4" y="173.8" transform="matrix(0.7193 -0.6947 0.6947 0.7193 -81.6628 184.1632)" class="st0" width="11.3" height="38.6"/>
	
		<rect x="154" y="203.2" transform="matrix(0.6691 -0.7431 0.7431 0.6691 -111.8287 191.9617)" class="st0" width="11.3" height="36.7"/>
	
		<rect x="128.6" y="234.4" transform="matrix(0.6157 -0.788 0.788 0.6157 -146.8137 202.6027)" class="st0" width="11.3" height="34.9"/>
	
		<rect x="105.4" y="267.2" transform="matrix(0.5592 -0.829 0.829 0.5592 -186.2631 217.1687)" class="st0" width="11.3" height="33.1"/>
	
		<rect x="84.5" y="301.5" transform="matrix(0.5002 -0.8659 0.8659 0.5002 -229.6226 236.6638)" class="st0" width="11.3" height="31.5"/>
	
		<rect x="66" y="337.1" transform="matrix(0.4384 -0.8988 0.8988 0.4384 -276.2102 262.1149)" class="st0" width="11.3" height="29.9"/>
	
		<rect x="49.9" y="373.9" transform="matrix(0.3746 -0.9272 0.9272 0.3746 -325.1025 294.2206)" class="st0" width="11.3" height="28.4"/>
	
		<rect x="36.4" y="411.8" transform="matrix(0.3092 -0.951 0.951 0.3092 -375.3555 333.7829)" class="st0" width="11.3" height="27"/>
	
		<rect x="25.5" y="450.4" transform="matrix(0.2419 -0.9703 0.9703 0.2419 -425.7623 381.3812)" class="st0" width="11.3" height="25.6"/>
	
		<rect x="17.3" y="489.6" transform="matrix(0.1736 -0.9848 0.9848 0.1736 -475.1834 437.2342)" class="st0" width="11.3" height="24.3"/>
	
		<rect x="11.8" y="529.3" transform="matrix(0.1044 -0.9945 0.9945 0.1044 -522.2343 501.7542)" class="st0" width="11.3" height="23.1"/>
	
		<rect x="9.1" y="569.2" transform="matrix(3.489950e-02 -0.9994 0.9994 3.489950e-02 -565.6555 574.6672)" class="st0" width="11.3" height="21.9"/>
	
		<rect x="4.2" y="614.1" transform="matrix(0.9994 -3.489950e-02 3.489950e-02 0.9994 -21.6212 0.89)" class="st0" width="20.9" height="11.3"/>
	
		<rect x="7.6" y="653.5" transform="matrix(0.9945 -0.1045 0.1045 0.9945 -68.8024 5.4378)" class="st0" width="19.8" height="11.3"/>
	
		<rect x="13.6" y="692.6" transform="matrix(0.9848 -0.1736 0.1736 0.9848 -120.8949 14.5969)" class="st0" width="18.8" height="11.3"/>
	
		<rect x="22.2" y="731.2" transform="matrix(0.9703 -0.2421 0.2421 0.9703 -177.4487 29.465)" class="st0" width="17.9" height="11.3"/>
	
		<rect x="33.6" y="769.1" transform="matrix(0.951 -0.3092 0.3092 0.951 -237.4813 50.9695)" class="st0" width="17" height="11.3"/>
	
		<rect x="47.5" y="806.2" transform="matrix(0.9271 -0.3748 0.3748 0.9271 -300.1997 80.011)" class="st0" width="16.1" height="11.3"/>
	
		<rect x="63.9" y="842.3" transform="matrix(0.8987 -0.4385 0.4385 0.8987 -364.603 117.2748)" class="st0" width="15.3" height="11.3"/>
	
		<rect x="82.8" y="877.2" transform="matrix(0.8661 -0.4998 0.4998 0.8661 -429.2238 163.2381)" class="st0" width="14.6" height="11.3"/>
	
		<rect x="104.1" y="910.6" transform="matrix(0.8291 -0.559 0.559 0.8291 -493.2899 218.6379)" class="st0" width="13.8" height="11.3"/>
	
		<rect x="127.7" y="942.5" transform="matrix(0.788 -0.6157 0.6157 0.788 -555.2892 283.6606)" class="st0" width="13.1" height="11.3"/>
	
		<rect x="153.4" y="972.8" transform="matrix(0.743 -0.6693 0.6693 0.743 -613.8163 358.2813)" class="st0" width="12.5" height="11.3"/>
	
		<rect x="181.2" y="1001.2" transform="matrix(0.6945 -0.7195 0.7195 0.6945 -667.2126 442.1552)" class="st0" width="11.9" height="11.3"/>
	
		<rect x="210.5" y="1027.6" transform="matrix(0.6427 -0.7662 0.7662 0.6427 -714.3217 535.0532)" class="st0" width="11.9" height="11.3"/>
	
		<rect x="241.6" y="1051.9" transform="matrix(0.5878 -0.809 0.809 0.5878 -753.5109 636.1811)" class="st0" width="11.9" height="11.3"/>
	
		<rect x="274.3" y="1074" transform="matrix(0.5302 -0.8479 0.8479 0.5302 -783.8007 744.8168)" class="st0" width="11.9" height="11.3"/>
	
		<rect x="308.5" y="1093.8" transform="matrix(0.4698 -0.8828 0.8828 0.4698 -803.8375 860.5068)" class="st0" width="11.9" height="11.3"/>
	
		<rect x="344" y="1111.1" transform="matrix(0.4072 -0.9133 0.9133 0.4072 -812.5623 981.5657)" class="st0" width="11.9" height="11.3"/>
	
		<rect x="380.6" y="1125.8" transform="matrix(0.3417 -0.9398 0.9398 0.3417 -808.8973 1108.0812)" class="st0" width="11.9" height="11.3"/>
	
		<rect x="418.1" y="1137.9" transform="matrix(0.2753 -0.9614 0.9614 0.2753 -792.0506 1236.4009)" class="st0" width="11.9" height="11.3"/>
	
		<rect x="456.4" y="1147.6" transform="matrix(0.2081 -0.9781 0.9781 0.2081 -761.87 1365.5635)" class="st0" width="11.9" height="11.3"/>
	
		<rect x="495.2" y="1154.3" transform="matrix(0.1395 -0.9902 0.9902 0.1395 -717.3224 1494.3727)" class="st0" width="11.9" height="11.3"/>
	
		<rect x="534.5" y="1158.4" transform="matrix(6.923416e-02 -0.9976 0.9976 6.923416e-02 -658.2227 1622.6753)" class="st0" width="11.9" height="11.3"/>
	<polygon class="st0" points="574.3,1159.6 574.3,1171.5 574.3,1199.5 585.6,1199.5 585.6,1171.5 585.6,1159.6 585.6,1131.6 
		574.3,1131.6 	"/>
	
		<rect x="613.7" y="1132" transform="matrix(0.9976 -6.975647e-02 6.975647e-02 0.9976 -79.7015 46.0419)" class="st0" width="11.3" height="64.5"/>
	
		<rect x="653.1" y="1129.4" transform="matrix(0.9903 -0.1392 0.1392 0.9903 -155.0369 102.965)" class="st0" width="11.3" height="61.2"/>
	
		<rect x="691.9" y="1124.1" transform="matrix(0.9781 -0.2079 0.2079 0.9781 -224.5206 170.2269)" class="st0" width="11.3" height="58.2"/>
	
		<rect x="730.2" y="1116" transform="matrix(0.9613 -0.2756 0.2756 0.9613 -286.7389 247.1268)" class="st0" width="11.3" height="55.3"/>
	
		<rect x="767.7" y="1105.3" transform="matrix(0.9397 -0.342 0.342 0.9397 -340.3602 332.7431)" class="st0" width="11.3" height="52.5"/>
	
		<rect x="804.3" y="1091.7" transform="matrix(0.9135 -0.4067 0.4067 0.9135 -384.17 425.9979)" class="st0" width="11.3" height="49.9"/>
	
		<rect x="839.8" y="1075.7" transform="matrix(0.8829 -0.4695 0.4695 0.8829 -417.1734 525.609)" class="st0" width="11.3" height="47.4"/>
	
		<rect x="874" y="1057.1" transform="matrix(0.848 -0.5299 0.5299 0.848 -438.4682 630.2003)" class="st0" width="11.3" height="45"/>
	
		<rect x="906.7" y="1036.1" transform="matrix(0.809 -0.5878 0.5878 0.809 -447.3116 738.2411)" class="st0" width="11.3" height="42.8"/>
	
		<rect x="937.8" y="1012.9" transform="matrix(0.766 -0.6428 0.6428 0.766 -443.3902 848.1811)" class="st0" width="11.3" height="40.6"/>
	
		<rect x="967.2" y="987.4" transform="matrix(0.7193 -0.6947 0.6947 0.7193 -426.3035 958.3419)" class="st0" width="11.3" height="38.6"/>
	
		<rect x="994.6" y="960.1" transform="matrix(0.6691 -0.7431 0.7431 0.6691 -396.1857 1067.0746)" class="st0" width="11.3" height="36.7"/>
	
		<rect x="1019.9" y="930.7" transform="matrix(0.6157 -0.788 0.788 0.6157 -352.9883 1172.6088)" class="st0" width="11.3" height="34.9"/>
	
		<rect x="1043.2" y="899.7" transform="matrix(0.5592 -0.829 0.829 0.5592 -297.2759 1273.3964)" class="st0" width="11.3" height="33.1"/>
	
		<rect x="1064.1" y="867.2" transform="matrix(0.5002 -0.8659 0.8659 0.5002 -229.7905 1367.6934)" class="st0" width="11.3" height="31.5"/>
	
		<rect x="1082.6" y="833" transform="matrix(0.4384 -0.8988 0.8988 0.4384 -150.9074 1454.3375)" class="st0" width="11.3" height="29.9"/>
	
		<rect x="1098.6" y="797.6" transform="matrix(0.3746 -0.9272 0.9272 0.3746 -62.1037 1531.5906)" class="st0" width="11.3" height="28.4"/>
	
		<rect x="1112.2" y="761.3" transform="matrix(0.3092 -0.951 0.951 0.3092 35.3903 1598.3201)" class="st0" width="11.3" height="27"/>
	
		<rect x="1123" y="724" transform="matrix(0.2419 -0.9703 0.9703 0.2419 140.7159 1653.6682)" class="st0" width="11.3" height="25.6"/>
	
		<rect x="1131.2" y="686" transform="matrix(0.1736 -0.9848 0.9848 0.1736 251.915 1696.5428)" class="st0" width="11.3" height="24.3"/>
	
		<rect x="1136.7" y="647.5" transform="matrix(0.1044 -0.9945 0.9945 0.1044 367.644 1726.3884)" class="st0" width="11.3" height="23.1"/>
	
		<rect x="1139.6" y="608.8" transform="matrix(3.524829e-02 -0.9994 0.9994 3.524829e-02 485.5025 1742.5214)" class="st0" width="11.3" height="21.9"/>
	
		<rect x="1134.7" y="574.7" transform="matrix(0.9994 -3.489950e-02 3.489950e-02 0.9994 -19.5565 40.3188)" class="st0" width="20.9" height="11.3"/>
	
		<rect x="1132.5" y="535.2" transform="matrix(0.9945 -0.1045 0.1045 0.9945 -50.277 122.3793)" class="st0" width="19.8" height="11.3"/>
	
		<rect x="1127.5" y="496.1" transform="matrix(0.9848 -0.1736 0.1736 0.9848 -69.8666 205.0436)" class="st0" width="18.8" height="11.3"/>
	
		<rect x="1119.8" y="457.5" transform="matrix(0.9703 -0.2421 0.2421 0.9703 -78.5594 287.0256)" class="st0" width="17.9" height="11.3"/>
	
		<rect x="1109.3" y="419.6" transform="matrix(0.9511 -0.309 0.309 0.9511 -76.7197 366.2331)" class="st0" width="17" height="11.3"/>
	
		<rect x="1096.2" y="382.6" transform="matrix(0.9272 -0.3746 0.3746 0.9272 -65.0166 441.9525)" class="st0" width="16.1" height="11.3"/>
	
		<rect x="1080.6" y="346.5" transform="matrix(0.8987 -0.4385 0.4385 0.8987 -44.2008 512.9079)" class="st0" width="15.3" height="11.3"/>
	
		<rect x="1062.5" y="311.7" transform="matrix(0.8661 -0.4998 0.4998 0.8661 -15.39 577.2212)" class="st0" width="14.6" height="11.3"/>
	
		<rect x="1041.9" y="278.1" transform="matrix(0.8291 -0.559 0.559 0.8291 20.5495 634.847)" class="st0" width="13.8" height="11.3"/>
	
		<rect x="1019" y="246.1" transform="matrix(0.788 -0.6157 0.6157 0.788 62.3862 684.7849)" class="st0" width="13.1" height="11.3"/>
	
		<rect x="994" y="215.9" transform="matrix(0.743 -0.6693 0.6693 0.743 108.7503 726.3918)" class="st0" width="12.5" height="11.3"/>
	
		<rect x="966.9" y="187.5" transform="matrix(0.6945 -0.7195 0.7195 0.6945 158.1932 758.9077)" class="st0" width="11.9" height="11.3"/>
	
		<rect x="937.6" y="161.1" transform="matrix(0.6427 -0.7662 0.7662 0.6427 209.3571 782.4816)" class="st0" width="11.9" height="11.3"/>
	
		<rect x="906.4" y="136.8" transform="matrix(0.5878 -0.809 0.809 0.5878 260.8568 796.8455)" class="st0" width="11.9" height="11.3"/>
	
		<rect x="873.8" y="114.8" transform="matrix(0.5302 -0.8479 0.8479 0.5302 311.1635 802.4443)" class="st0" width="11.9" height="11.3"/>
	
		<rect x="839.6" y="95" transform="matrix(0.4698 -0.8828 0.8828 0.4698 359.4456 799.7546)" class="st0" width="11.9" height="11.3"/>
	
		<rect x="804" y="77.6" transform="matrix(0.4063 -0.9138 0.9138 0.4063 404.8113 789.5221)" class="st0" width="11.9" height="11.3"/>
	
		<rect x="767.4" y="62.9" transform="matrix(0.3419 -0.9398 0.9398 0.3419 444.6125 771.8831)" class="st0" width="11.9" height="11.3"/>
	
		<rect x="729.8" y="50.6" transform="matrix(0.2753 -0.9614 0.9614 0.2753 479.1023 748.1561)" class="st0" width="11.9" height="11.3"/>
	
		<rect x="691.6" y="41.2" transform="matrix(0.2081 -0.9781 0.9781 0.2081 506.626 719.3994)" class="st0" width="11.9" height="11.3"/>
	
		<rect x="652.7" y="34.3" transform="matrix(0.1395 -0.9902 0.9902 0.1395 527.2062 686.5345)" class="st0" width="11.9" height="11.3"/>
	
		<rect x="613.4" y="30.1" transform="matrix(6.975647e-02 -0.9976 0.9976 6.975647e-02 540.4453 651.1683)" class="st0" width="11.9" height="11.3"/>
	<path class="st0" d="M579.9,100.7c3.7,0,6.7-2.3,7.9-5.6c274.8,4.3,497,229.1,497,504.8c0,109.6-36.4,217.5-102.5,304.9l-5.4-4.4
		l-15.6,34.7l30.9-22.3l-5.5-4.5c66.9-88.3,103.8-197.6,103.8-308.4c0-135.5-53.4-263.4-150.2-360.3c-95-95-219.8-148-352.3-150.1
		c-1.1-3.4-4.3-5.8-8-5.8c-4.7,0-8.5,3.8-8.5,8.5S575.3,100.7,579.9,100.7L579.9,100.7z"/>
	<path class="st0" d="M579.9,1099.3c-3.7,0-6.7,2.3-7.9,5.6C297.3,1100.6,75,875.8,75,600c0-34.5,3.6-69,10.6-102.7l6.7,1.7
		l-0.7-38.1l-18.4,33.3l6.9,1.7C73,530.1,69.4,565.1,69.4,600c0,135.5,53.4,263.4,150.2,360.3c95,95,219.8,148,352.3,150.1
		c1.1,3.4,4.3,5.8,8,5.8c4.7,0,8.5-3.8,8.5-8.5C588.5,1103.1,584.6,1099.3,579.9,1099.3L579.9,1099.3z"/>
	<circle class="st1" cx="579.9" cy="600" r="480.3"/>
	<circle class="st2" cx="579.9" cy="600" r="455"/>
	<g>
		<path class="st3" d="M163.7,591.7c4.2-214.7,170.9-389.5,382.1-406.7"/>
		<path class="st0" d="M172.5,591.5c-0.1,4.8-4.1,8.6-8.9,8.5c-4.8-0.1-8.6-4.1-8.5-8.9c0.1-4.8,4.1-8.6,8.9-8.5
			C168.9,582.7,172.7,586.7,172.5,591.5z"/>
		<polygon class="st0" points="538.7,196.8 579.9,183.7 537.7,174.5 		"/>
	</g>
	<g>
		<path class="st3" d="M996.2,608.3c-4.2,214.7-170.9,389.5-382.1,406.7"/>
		<path class="st0" d="M987.3,608.5c0.1-4.8,4.1-8.6,8.9-8.5c4.8,0.1,8.6,4.1,8.5,8.9c-0.1,4.8-4.1,8.6-8.9,8.5
			S987.2,613.3,987.3,608.5z"/>
		<polygon class="st0" points="621.2,1003.2 579.9,1016.3 622.2,1025.5 		"/>
	</g>
	<g>
		<path class="st4" d="M191.7,282.5c2.1,0,4.2-0.9,5.7-2.7c2.6-3.1,2.2-7.8-0.9-10.4c-3.1-2.6-7.8-2.2-10.4,0.9
			c-2.6,3.1-2.2,7.8,0.9,10.4C188.3,282,190,282.5,191.7,282.5z"/>
		<path class="st4" d="M289,193.1c1.5,0,3-0.4,4.3-1.3c3.3-2.4,4.1-7,1.8-10.3c-2.3-3.3-7-4.1-10.3-1.8c-3.4,2.3-4.1,7-1.8,10.3
			C284.3,192,286.6,193.1,289,193.1z"/>
		<path class="st4" d="M254,220.1c1.7,0,3.4-0.6,4.8-1.7l0,0c3.1-2.7,3.6-7.3,0.9-10.4c-2.6-3.1-7.3-3.5-10.4-0.9
			c-3.1,2.6-3.5,7.3-0.9,10.4C249.8,219.2,251.9,220.1,254,220.1L254,220.1z"/>
		<path class="st4" d="M221.5,249.9c1.9,0,3.8-0.7,5.3-2.1l0,0c2.9-2.9,2.9-7.6,0-10.5c-2.9-2.9-7.6-2.9-10.5,0s-2.9,7.6,0,10.5
			C217.7,249.2,219.6,249.9,221.5,249.9z"/>
		<path class="st4" d="M448.1,118.5c0.6,0,1.3-0.1,1.9-0.3c4-1.1,6.3-5.1,5.3-9.1c-1.1-4-5.1-6.3-9.1-5.2c-4,1-6.3,5.1-5.3,9.1
			C441.8,116.3,444.8,118.5,448.1,118.5z"/>
		<path class="st4" d="M491.2,108.9c0.4,0,0.9,0,1.3-0.1c4-0.7,6.7-4.6,6-8.6c-0.7-4-4.6-6.7-8.6-6c-4,0.7-6.7,4.6-6,8.6
			C484.5,106.4,487.7,108.9,491.2,108.9z"/>
		<path class="st4" d="M365.2,148.8c1.1,0,2.1-0.2,3.1-0.7c3.7-1.7,5.3-6.1,3.6-9.8c-1.7-3.7-6.1-5.3-9.8-3.6l0,0
			c-3.7,1.7-5.3,6.1-3.6,9.8C359.8,147.2,362.5,148.8,365.2,148.8L365.2,148.8z"/>
		<path class="st4" d="M406,131.8c0.9,0,1.7-0.1,2.6-0.4c3.8-1.4,5.8-5.7,4.4-9.5c-1.4-3.8-5.7-5.8-9.5-4.4l0,0
			c-3.8,1.4-5.8,5.7-4.4,9.5C400.1,130,402.9,131.8,406,131.8L406,131.8z"/>
		<path class="st4" d="M326.1,169.3c1.3,0,2.6-0.3,3.7-1c3.5-2.1,4.7-6.6,2.7-10.1c-2.1-3.5-6.6-4.7-10.1-2.7
			c-3.6,2.1-4.7,6.6-2.7,10.1C321.1,168,323.6,169.3,326.1,169.3z"/>
		<path class="st4" d="M101.3,434.4c0.9,0.3,1.7,0.4,2.5,0.4c3,0,5.9-1.9,7-4.9c1.4-3.8-0.6-8.1-4.4-9.5c-3.8-1.4-8.1,0.6-9.5,4.4
			C95.5,428.8,97.5,433,101.3,434.4L101.3,434.4z"/>
		<path class="st4" d="M137.4,353.8c1.2,0.7,2.4,1,3.7,1c2.6,0,5.1-1.3,6.4-3.7c2-3.6,0.8-8.1-2.7-10.1c-3.5-2-8.1-0.9-10.1,2.7
			C132.7,347.3,133.9,351.8,137.4,353.8z"/>
		<path class="st4" d="M160.6,316.2c1.3,0.9,2.7,1.3,4.2,1.3c2.3,0,4.6-1.1,6.1-3.1c2.4-3.4,1.5-8-1.8-10.3c-3.4-2.3-8-1.5-10.3,1.9
			C156.4,309.3,157.2,313.9,160.6,316.2z"/>
		<path class="st4" d="M117.6,393.3c1,0.5,2.1,0.7,3.1,0.7c2.8,0,5.4-1.6,6.7-4.3c1.7-3.7,0.1-8.1-3.6-9.8c-3.7-1.7-8.1-0.1-9.8,3.6
			C112.3,387.2,113.9,391.6,117.6,393.3z"/>
		<path class="st4" d="M709.3,1081.9c-4,1.1-6.3,5.1-5.3,9.1c0.9,3.3,3.9,5.5,7.2,5.5c0.6,0,1.3-0.1,1.9-0.2c4-1.1,6.3-5.1,5.3-9.1
			C717.3,1083.2,713.3,1080.9,709.3,1081.9z"/>
		<path class="st4" d="M932.8,952.7c-2.9,2.9-2.9,7.5,0,10.4c1.4,1.4,3.3,2.2,5.2,2.2c1.9,0,3.8-0.7,5.2-2.2l0,0
			c2.9-2.9,2.9-7.5,0-10.4S935.6,949.8,932.8,952.7z"/>
		<path class="st4" d="M534.9,103.1h0.7c4.1-0.4,7.1-4,6.7-8c-0.4-4.1-4-7.1-8-6.7c-4.1,0.4-7.1,4-6.7,8
			C527.9,100.2,531.1,103.1,534.9,103.1z"/>
		<path class="st4" d="M900.7,982.1c-3.1,2.6-3.5,7.3-0.9,10.4c1.4,1.7,3.6,2.7,5.7,2.7c1.7,0,3.4-0.6,4.7-1.7
			c3.1-2.6,3.6-7.3,0.9-10.4C908.5,979.9,903.8,979.5,900.7,982.1z"/>
		<path class="st4" d="M623.7,1097c-4.1,0.3-7.1,3.9-6.7,8c0.3,3.8,3.6,6.8,7.4,6.8c0.2,0,0.4,0,0.6,0c4.1-0.3,7.1-3.9,6.7-8
			C631.4,1099.6,627.8,1096.6,623.7,1097L623.7,1097z"/>
		<path class="st4" d="M666.8,1091.3c-4,0.7-6.7,4.6-6,8.6c0.6,3.6,3.7,6.1,7.3,6.1c0.4,0,0.9,0,1.3-0.1c4-0.7,6.7-4.6,6-8.6
			C674.7,1093.3,670.9,1090.6,666.8,1091.3z"/>
		<path class="st4" d="M829.5,1032c-3.5,2-4.7,6.6-2.7,10.1c1.4,2.4,3.9,3.7,6.4,3.7c1.3,0,2.5-0.3,3.7-1c3.5-2,4.7-6.6,2.7-10.1
			C837.6,1031.2,833.1,1030,829.5,1032z"/>
		<path class="st4" d="M866.2,1008.6c-3.4,2.4-4.1,7-1.8,10.3c1.4,2,3.7,3.1,6.1,3.1c1.5,0,3-0.4,4.3-1.4l0,0
			c3.3-2.3,4.1-7,1.8-10.3C874.1,1007,869.5,1006.2,866.2,1008.6L866.2,1008.6z"/>
		<path class="st4" d="M750.8,1068.8c-3.8,1.4-5.8,5.7-4.4,9.5c1.1,3,3.9,4.8,7,4.8c0.8,0,1.7-0.1,2.5-0.4c3.8-1.4,5.8-5.6,4.4-9.5
			C758.9,1069.4,754.7,1067.4,750.8,1068.8z"/>
		<path class="st4" d="M791,1052.1c-3.7,1.7-5.3,6.1-3.6,9.8c1.3,2.7,3.9,4.3,6.7,4.3c1.1,0,2.1-0.2,3.1-0.7
			c3.7-1.7,5.3-6.1,3.6-9.8C799.1,1052,794.7,1050.4,791,1052.1z"/>
	</g>
	<g>
		<circle class="st5" cx="899.7" cy="206.8" r="11.9"/>
		<circle class="st4" cx="899.7" cy="206.8" r="7.8"/>
	</g>
</g>
</svg>
