<?xml version="1.0" encoding="UTF-8"?>
<svg id="Layer_1" data-name="Layer 1" xmlns="http://www.w3.org/2000/svg" viewBox="0 0 1200 1200">
  <defs>
    <style>
      .cls-1 {
        stroke-width: .58px;
      }

      .cls-1, .cls-2, .cls-3, .cls-4, .cls-5, .cls-6, .cls-7, .cls-8, .cls-9, .cls-10, .cls-11 {
        fill: none;
      }

      .cls-1, .cls-3, .cls-5, .cls-7, .cls-8, .cls-9, .cls-10, .cls-11 {
        stroke-linecap: round;
        stroke-linejoin: round;
      }

      .cls-1, .cls-4, .cls-5, .cls-7, .cls-8, .cls-9, .cls-10, .cls-11 {
        stroke: #cc092f;
      }

      .cls-12 {
        fill: #fff;
      }

      .cls-2 {
        stroke-width: .96px;
      }

      .cls-2, .cls-4, .cls-6 {
        stroke-miterlimit: 10;
      }

      .cls-2, .cls-6 {
        stroke: #fff;
      }

      .cls-3 {
        stroke: #bbbcbc;
      }

      .cls-3, .cls-4, .cls-8 {
        stroke-width: 1.44px;
      }

      .cls-5 {
        stroke-dasharray: 0 0 0 22.21;
      }

      .cls-5, .cls-10 {
        stroke-width: 10.08px;
      }

      .cls-6 {
        stroke-width: 1.6px;
      }

      .cls-7 {
        stroke-dasharray: 0 0 0 11.53;
      }

      .cls-7, .cls-11 {
        stroke-width: 4.32px;
      }

      .cls-13 {
        fill: #cc092f;
      }

      .cls-9 {
        stroke-width: .72px;
      }

      .cls-14 {
        fill: #bbbcbc;
      }
    </style>
  </defs>
  <g>
    <path class="cls-3" d="m1016.37,739.28c-62.98,170.65-227.09,292.33-419.62,292.33-246.95,0-447.15-200.2-447.15-447.15,0-146.61,70.56-276.73,179.56-358.28"/>
    <polygon class="cls-14" points="1008.82 738.77 1019.83 729.55 1022.31 743.69 1008.82 738.77"/>
    <polygon class="cls-14" points="331.74 233.24 337.51 220.09 323.23 221.67 331.74 233.24"/>
  </g>
  <g>
    <path class="cls-8" d="m601.89,137.34c242.87,2.74,439.24,199.1,441.98,441.97"/>
    <path class="cls-13" d="m602.02,142.86c-2.99-.08-5.35-2.56-5.28-5.55.08-2.99,2.56-5.35,5.55-5.28,2.99.08,5.35,2.56,5.28,5.55-.08,2.99-2.56,5.35-5.55,5.28Z"/>
    <path class="cls-13" d="m1038.34,579.19c.08,2.99,2.56,5.35,5.55,5.28,2.99-.08,5.35-2.56,5.28-5.55-.08-2.99-2.56-5.35-5.55-5.28-2.99.08-5.35,2.56-5.28,5.55Z"/>
  </g>
  <circle class="cls-4" cx="596.75" cy="584.46" r="427.71"/>
  <g>
    <line class="cls-11" x1="195.99" y1="345.36" x2="195.99" y2="345.36"/>
    <path class="cls-7" d="m202.03,335.54c82.66-130.8,228.54-217.67,394.72-217.67,257.69,0,466.59,208.9,466.59,466.59s-208.9,466.59-466.59,466.59-466.59-208.9-466.59-466.59c0-71.67,16.16-139.56,45.03-200.24"/>
    <line class="cls-11" x1="177.7" y1="379.04" x2="177.7" y2="379.04"/>
  </g>
  <g>
    <path class="cls-3" d="m1082.67,594.8c-5.5,263.66-220.95,475.7-485.92,475.7-191.64,0-357.38-110.92-436.52-272.05-9.6-19.54-17.92-39.81-24.86-60.72"/>
    <polygon class="cls-14" points="1075.44 596.81 1082.78 584.46 1089.8 596.99 1075.44 596.81"/>
    <path class="cls-14" d="m140.02,736.39c-.85-2.49-3.56-3.82-6.05-2.97-2.49.85-3.82,3.56-2.97,6.05.85,2.49,3.56,3.82,6.05,2.97,2.49-.85,3.82-3.56,2.97-6.05Z"/>
  </g>
  <g>
    <path class="cls-8" d="m130.23,447.66c43.35-148.08,155.3-266.87,299.11-319.63,52.19-19.15,108.58-29.6,167.4-29.6,120.26,0,230.31,43.67,315.17,116.03"/>
    <path class="cls-13" d="m134.91,448.81c-.75,2.52-3.41,3.95-5.93,3.2-2.52-.75-3.95-3.41-3.2-5.93.75-2.52,3.41-3.95,5.93-3.2,2.52.75,3.95,3.41,3.2,5.93Z"/>
  </g>
  <g>
    <path class="cls-6" d="m591.73,986.22c-35.51-.43-69.91-5.47-102.63-14.55-155.03-43.01-272.38-176.62-291.43-340.23-1.6-13.78-2.51-27.78-2.69-41.95"/>
    <path class="cls-12" d="m591.56,980.88c2.92.05,5.24,2.45,5.19,5.37-.05,2.92-2.45,5.24-5.37,5.19-2.92-.05-5.24-2.45-5.19-5.37.05-2.92,2.45-5.24,5.37-5.19Z"/>
    <path class="cls-12" d="m200.32,589.67c-.04-2.92-2.44-5.25-5.36-5.2-2.92.04-5.25,2.44-5.2,5.36.04,2.92,2.44,5.25,5.36,5.2s5.25-2.44,5.2-5.36Z"/>
  </g>
  <g>
    <path class="cls-9" d="m186.72,465.14c-57.26,0-103.69-46.42-103.69-103.69s43.66-100.87,98.52-103.56"/>
    <polygon class="cls-13" points="180.61 261.55 186.72 257.77 180.39 254.37 180.61 261.55"/>
  </g>
  <g>
    <circle class="cls-1" cx="186.72" cy="361.46" r="10.37"/>
    <circle class="cls-13" cx="186.72" cy="361.46" r="6.74"/>
  </g>
  <g>
    <circle class="cls-1" cx="911.92" cy="214.46" r="10.37"/>
    <circle class="cls-13" cx="911.92" cy="214.46" r="6.74"/>
  </g>
  <g>
    <circle class="cls-1" cx="1010.03" cy="839.9" r="10.37"/>
    <circle class="cls-13" cx="1010.03" cy="839.9" r="6.74"/>
  </g>
  <g>
    <circle class="cls-1" cx="155.97" cy="790.13" r="10.37"/>
    <circle class="cls-13" cx="155.97" cy="790.13" r="6.74"/>
  </g>
  <g>
    <circle class="cls-9" cx="88.42" cy="395.61" r="36"/>
    <circle class="cls-13" cx="83.03" cy="361.46" r="4.56"/>
    <circle class="cls-13" cx="106.54" cy="427.05" r="4.56"/>
    <circle class="cls-13" cx="54.56" cy="406.41" r="4.56"/>
  </g>
  <g>
    <circle class="cls-13" cx="819.49" cy="1062.3" r="4.56"/>
    <circle class="cls-13" cx="843.24" cy="1062.3" r="4.56"/>
    <circle class="cls-13" cx="772" cy="1062.3" r="4.56"/>
    <circle class="cls-13" cx="795.75" cy="1062.3" r="4.56"/>
  </g>
  <circle class="cls-13" cx="145.09" cy="763.15" r="4.56"/>
  <g>
    <path class="cls-8" d="m987.23,1074.14c-25.22,17.3-55.76,27.43-88.66,27.43-72.29,0-133.16-48.88-151.37-115.4"/>
    <polygon class="cls-13" points="981.28 1069.51 995.56 1068.02 989.72 1081.13 981.28 1069.51"/>
  </g>
  <g>
    <rect class="cls-13" x="982.1" y="926.68" width="3.85" height="25.92"/>
    <rect class="cls-13" x="990.42" y="926.68" width="3.85" height="25.92"/>
    <rect class="cls-13" x="998.74" y="926.68" width="3.85" height="25.92"/>
  </g>
  <g>
    <line class="cls-4" x1="927.53" y1="939.65" x2="1139.67" y2="939.65"/>
    <circle class="cls-13" cx="927.77" cy="939.65" r="4.76"/>
    <polygon class="cls-13" points="1137.56 946.83 1150 939.65 1137.56 932.46 1137.56 946.83"/>
  </g>
  <g>
    <path class="cls-8" d="m1010.03,837.54c24.97,26.72,40.71,62.18,42.14,101.29"/>
    <g>
      <path class="cls-12" d="m1046.72,938.65c.07,2.99,2.55,5.35,5.54,5.28,2.99-.07,5.35-2.55,5.28-5.54-.07-2.99-2.55-5.35-5.54-5.28s-5.35,2.55-5.28,5.54Z"/>
      <path class="cls-13" d="m1046,938.67c-.08-3.38,2.6-6.2,5.98-6.28,3.38-.08,6.2,2.6,6.28,5.98.08,3.38-2.6,6.2-5.98,6.28-3.38.08-6.2-2.6-6.28-5.98-.08-3.38.08,3.38,0,0Zm10.83-.26c-.06-2.59-2.22-4.64-4.81-4.58s-4.64,2.22-4.58,4.81c.06,2.59,2.22,4.64,4.81,4.58,2.59-.06,4.64-2.22,4.58-4.81-.06-2.59.06,2.59,0,0Z"/>
    </g>
  </g>
  <circle class="cls-2" cx="467.05" cy="964.63" r="12.96"/>
  <g>
    <line class="cls-10" x1="379.96" y1="193.22" x2="379.96" y2="193.22"/>
    <path class="cls-5" d="m399.64,182.92c42.49-20.9,88.78-35.26,137.56-41.75"/>
    <line class="cls-10" x1="548.23" y1="139.84" x2="548.23" y2="139.84"/>
  </g>
</svg>