<?xml version="1.0" encoding="UTF-8"?>
<svg id="Layer_1" data-name="Layer 1" xmlns="http://www.w3.org/2000/svg" viewBox="0 0 1200 1200">
  <defs>
    <style>
      .cls-1 {
        fill: #e2e3e4;
      }
    </style>
  </defs>
  <circle class="cls-1" cx="62.18" cy="891.49" r="12.18"/>
  <circle class="cls-1" cx="85.07" cy="891.49" r="12.18"/>
  <circle class="cls-1" cx="107.96" cy="891.49" r="12.18"/>
  <circle class="cls-1" cx="130.84" cy="891.49" r="12.18"/>
  <circle class="cls-1" cx="153.73" cy="891.49" r="12.18"/>
  <circle class="cls-1" cx="176.61" cy="891.49" r="12.18"/>
  <circle class="cls-1" cx="199.5" cy="891.49" r="12.18"/>
  <circle class="cls-1" cx="222.38" cy="891.49" r="12.18"/>
  <circle class="cls-1" cx="245.27" cy="891.49" r="12.18"/>
  <circle class="cls-1" cx="268.16" cy="891.49" r="12.18"/>
  <circle class="cls-1" cx="291.04" cy="891.49" r="12.18"/>
  <circle class="cls-1" cx="313.93" cy="891.49" r="12.18"/>
  <circle class="cls-1" cx="336.81" cy="891.49" r="12.18"/>
  <circle class="cls-1" cx="359.7" cy="891.49" r="12.18"/>
  <circle class="cls-1" cx="382.59" cy="891.49" r="12.18"/>
  <circle class="cls-1" cx="405.47" cy="891.49" r="12.18"/>
  <circle class="cls-1" cx="428.36" cy="891.49" r="12.18"/>
  <circle class="cls-1" cx="451.24" cy="891.49" r="12.18"/>
  <circle class="cls-1" cx="474.13" cy="891.49" r="12.18"/>
  <circle class="cls-1" cx="497.01" cy="891.49" r="12.18"/>
  <circle class="cls-1" cx="519.9" cy="891.49" r="12.18"/>
  <circle class="cls-1" cx="542.79" cy="891.49" r="12.18"/>
  <circle class="cls-1" cx="565.67" cy="891.49" r="12.18"/>
  <circle class="cls-1" cx="588.56" cy="891.49" r="12.18"/>
  <circle class="cls-1" cx="611.44" cy="891.49" r="12.18"/>
  <circle class="cls-1" cx="634.33" cy="891.49" r="12.18"/>
  <circle class="cls-1" cx="657.21" cy="891.49" r="12.18"/>
  <circle class="cls-1" cx="680.1" cy="891.49" r="12.18"/>
  <circle class="cls-1" cx="702.99" cy="891.49" r="12.18"/>
  <circle class="cls-1" cx="725.87" cy="891.49" r="12.18"/>
  <circle class="cls-1" cx="748.76" cy="891.49" r="12.18"/>
  <circle class="cls-1" cx="771.64" cy="891.49" r="12.18"/>
  <circle class="cls-1" cx="794.53" cy="891.49" r="12.18"/>
  <circle class="cls-1" cx="817.41" cy="891.49" r="12.18"/>
  <circle class="cls-1" cx="840.3" cy="891.49" r="12.18"/>
  <circle class="cls-1" cx="863.19" cy="891.49" r="12.18"/>
  <circle class="cls-1" cx="886.07" cy="891.49" r="12.18"/>
  <circle class="cls-1" cx="908.96" cy="891.49" r="12.18"/>
  <circle class="cls-1" cx="931.84" cy="891.49" r="12.18"/>
  <circle class="cls-1" cx="954.73" cy="891.49" r="12.18"/>
  <circle class="cls-1" cx="977.62" cy="891.49" r="12.18"/>
  <circle class="cls-1" cx="1000.5" cy="891.49" r="12.18"/>
  <circle class="cls-1" cx="1023.39" cy="891.49" r="12.18"/>
  <circle class="cls-1" cx="1046.27" cy="891.49" r="12.18"/>
  <circle class="cls-1" cx="1069.16" cy="891.49" r="12.18"/>
  <circle class="cls-1" cx="1092.04" cy="891.49" r="12.18"/>
  <circle class="cls-1" cx="1114.93" cy="891.49" r="12.18"/>
  <circle class="cls-1" cx="1137.82" cy="891.49" r="12.18"/>
  <circle class="cls-1" cx="62.18" cy="868.6" r="11.55"/>
  <circle class="cls-1" cx="85.07" cy="868.6" r="11.55"/>
  <circle class="cls-1" cx="107.96" cy="868.6" r="11.55"/>
  <circle class="cls-1" cx="130.84" cy="868.6" r="11.55"/>
  <circle class="cls-1" cx="153.73" cy="868.6" r="11.55"/>
  <circle class="cls-1" cx="176.61" cy="868.6" r="11.55"/>
  <circle class="cls-1" cx="199.5" cy="868.6" r="11.55"/>
  <circle class="cls-1" cx="222.38" cy="868.6" r="11.55"/>
  <circle class="cls-1" cx="245.27" cy="868.6" r="11.55"/>
  <circle class="cls-1" cx="268.16" cy="868.6" r="11.55"/>
  <circle class="cls-1" cx="291.04" cy="868.6" r="11.55"/>
  <circle class="cls-1" cx="313.93" cy="868.6" r="11.55"/>
  <circle class="cls-1" cx="336.81" cy="868.6" r="11.55"/>
  <circle class="cls-1" cx="359.7" cy="868.6" r="11.55"/>
  <circle class="cls-1" cx="382.59" cy="868.6" r="11.55"/>
  <circle class="cls-1" cx="405.47" cy="868.6" r="11.55"/>
  <circle class="cls-1" cx="428.36" cy="868.6" r="11.55"/>
  <circle class="cls-1" cx="451.24" cy="868.6" r="11.55"/>
  <circle class="cls-1" cx="474.13" cy="868.6" r="11.55"/>
  <circle class="cls-1" cx="497.01" cy="868.6" r="11.55"/>
  <circle class="cls-1" cx="519.9" cy="868.6" r="11.55"/>
  <circle class="cls-1" cx="542.79" cy="868.6" r="11.55"/>
  <circle class="cls-1" cx="565.67" cy="868.6" r="11.55"/>
  <circle class="cls-1" cx="588.56" cy="868.6" r="11.55"/>
  <circle class="cls-1" cx="611.44" cy="868.6" r="11.55"/>
  <circle class="cls-1" cx="634.33" cy="868.6" r="11.55"/>
  <circle class="cls-1" cx="657.21" cy="868.6" r="11.55"/>
  <circle class="cls-1" cx="680.1" cy="868.6" r="11.55"/>
  <circle class="cls-1" cx="702.99" cy="868.6" r="11.55"/>
  <circle class="cls-1" cx="725.87" cy="868.6" r="11.55"/>
  <circle class="cls-1" cx="748.76" cy="868.6" r="11.55"/>
  <circle class="cls-1" cx="771.64" cy="868.6" r="11.55"/>
  <circle class="cls-1" cx="794.53" cy="868.6" r="11.55"/>
  <circle class="cls-1" cx="817.41" cy="868.6" r="11.55"/>
  <circle class="cls-1" cx="840.3" cy="868.6" r="11.55"/>
  <circle class="cls-1" cx="863.19" cy="868.6" r="11.55"/>
  <circle class="cls-1" cx="886.07" cy="868.6" r="11.55"/>
  <circle class="cls-1" cx="908.96" cy="868.6" r="11.55"/>
  <circle class="cls-1" cx="931.84" cy="868.6" r="11.55"/>
  <circle class="cls-1" cx="954.73" cy="868.6" r="11.55"/>
  <circle class="cls-1" cx="977.62" cy="868.6" r="11.55"/>
  <circle class="cls-1" cx="1000.5" cy="868.6" r="11.55"/>
  <circle class="cls-1" cx="1023.39" cy="868.6" r="11.55"/>
  <circle class="cls-1" cx="1046.27" cy="868.6" r="11.55"/>
  <circle class="cls-1" cx="1069.16" cy="868.6" r="11.55"/>
  <circle class="cls-1" cx="1092.04" cy="868.6" r="11.55"/>
  <circle class="cls-1" cx="1114.93" cy="868.6" r="11.55"/>
  <circle class="cls-1" cx="1137.82" cy="868.6" r="11.55"/>
  <circle class="cls-1" cx="62.18" cy="845.71" r="10.98"/>
  <circle class="cls-1" cx="85.07" cy="845.71" r="10.98"/>
  <circle class="cls-1" cx="107.96" cy="845.71" r="10.98"/>
  <circle class="cls-1" cx="130.84" cy="845.71" r="10.98"/>
  <circle class="cls-1" cx="153.73" cy="845.71" r="10.98"/>
  <circle class="cls-1" cx="176.61" cy="845.71" r="10.98"/>
  <circle class="cls-1" cx="199.5" cy="845.71" r="10.98"/>
  <circle class="cls-1" cx="222.38" cy="845.71" r="10.98"/>
  <circle class="cls-1" cx="245.27" cy="845.71" r="10.98"/>
  <circle class="cls-1" cx="268.16" cy="845.71" r="10.98"/>
  <circle class="cls-1" cx="291.04" cy="845.71" r="10.98"/>
  <circle class="cls-1" cx="313.93" cy="845.71" r="10.98"/>
  <circle class="cls-1" cx="336.81" cy="845.71" r="10.98"/>
  <circle class="cls-1" cx="359.7" cy="845.71" r="10.98"/>
  <circle class="cls-1" cx="382.59" cy="845.71" r="10.98"/>
  <circle class="cls-1" cx="405.47" cy="845.71" r="10.98"/>
  <circle class="cls-1" cx="428.36" cy="845.71" r="10.98"/>
  <circle class="cls-1" cx="451.24" cy="845.71" r="10.98"/>
  <circle class="cls-1" cx="474.13" cy="845.71" r="10.98"/>
  <circle class="cls-1" cx="497.01" cy="845.71" r="10.98"/>
  <circle class="cls-1" cx="519.9" cy="845.71" r="10.98"/>
  <circle class="cls-1" cx="542.79" cy="845.71" r="10.98"/>
  <circle class="cls-1" cx="565.67" cy="845.71" r="10.98"/>
  <circle class="cls-1" cx="588.56" cy="845.71" r="10.98"/>
  <circle class="cls-1" cx="611.44" cy="845.71" r="10.98"/>
  <circle class="cls-1" cx="634.33" cy="845.71" r="10.98"/>
  <circle class="cls-1" cx="657.21" cy="845.71" r="10.98"/>
  <circle class="cls-1" cx="680.1" cy="845.71" r="10.98"/>
  <circle class="cls-1" cx="702.99" cy="845.71" r="10.98"/>
  <circle class="cls-1" cx="725.87" cy="845.71" r="10.98"/>
  <circle class="cls-1" cx="748.76" cy="845.71" r="10.98"/>
  <circle class="cls-1" cx="771.64" cy="845.71" r="10.98"/>
  <circle class="cls-1" cx="794.53" cy="845.71" r="10.98"/>
  <circle class="cls-1" cx="817.41" cy="845.71" r="10.98"/>
  <circle class="cls-1" cx="840.3" cy="845.71" r="10.98"/>
  <circle class="cls-1" cx="863.19" cy="845.71" r="10.98"/>
  <circle class="cls-1" cx="886.07" cy="845.71" r="10.98"/>
  <circle class="cls-1" cx="908.96" cy="845.71" r="10.98"/>
  <circle class="cls-1" cx="931.84" cy="845.71" r="10.98"/>
  <circle class="cls-1" cx="954.73" cy="845.71" r="10.98"/>
  <circle class="cls-1" cx="977.62" cy="845.71" r="10.98"/>
  <circle class="cls-1" cx="1000.5" cy="845.71" r="10.98"/>
  <circle class="cls-1" cx="1023.39" cy="845.71" r="10.98"/>
  <circle class="cls-1" cx="1046.27" cy="845.71" r="10.98"/>
  <circle class="cls-1" cx="1069.16" cy="845.71" r="10.98"/>
  <circle class="cls-1" cx="1092.04" cy="845.71" r="10.98"/>
  <circle class="cls-1" cx="1114.93" cy="845.71" r="10.98"/>
  <circle class="cls-1" cx="1137.82" cy="845.71" r="10.98"/>
  <circle class="cls-1" cx="62.18" cy="822.83" r="10.34"/>
  <circle class="cls-1" cx="85.07" cy="822.83" r="10.34"/>
  <circle class="cls-1" cx="107.96" cy="822.83" r="10.34"/>
  <circle class="cls-1" cx="130.84" cy="822.83" r="10.34"/>
  <circle class="cls-1" cx="153.73" cy="822.83" r="10.34"/>
  <circle class="cls-1" cx="176.61" cy="822.83" r="10.34"/>
  <circle class="cls-1" cx="199.5" cy="822.83" r="10.34"/>
  <circle class="cls-1" cx="222.38" cy="822.83" r="10.34"/>
  <circle class="cls-1" cx="245.27" cy="822.83" r="10.34"/>
  <circle class="cls-1" cx="268.16" cy="822.83" r="10.34"/>
  <circle class="cls-1" cx="291.04" cy="822.83" r="10.34"/>
  <circle class="cls-1" cx="313.93" cy="822.83" r="10.34"/>
  <circle class="cls-1" cx="336.81" cy="822.83" r="10.34"/>
  <circle class="cls-1" cx="359.7" cy="822.83" r="10.34"/>
  <circle class="cls-1" cx="382.59" cy="822.83" r="10.34"/>
  <circle class="cls-1" cx="405.47" cy="822.83" r="10.34"/>
  <circle class="cls-1" cx="428.36" cy="822.83" r="10.34"/>
  <circle class="cls-1" cx="451.24" cy="822.83" r="10.34"/>
  <circle class="cls-1" cx="474.13" cy="822.83" r="10.34"/>
  <circle class="cls-1" cx="497.01" cy="822.83" r="10.34"/>
  <circle class="cls-1" cx="519.9" cy="822.83" r="10.34"/>
  <circle class="cls-1" cx="542.79" cy="822.83" r="10.34"/>
  <circle class="cls-1" cx="565.67" cy="822.83" r="10.34"/>
  <circle class="cls-1" cx="588.56" cy="822.83" r="10.34"/>
  <circle class="cls-1" cx="611.44" cy="822.83" r="10.34"/>
  <circle class="cls-1" cx="634.33" cy="822.83" r="10.34"/>
  <circle class="cls-1" cx="657.21" cy="822.83" r="10.34"/>
  <circle class="cls-1" cx="680.1" cy="822.83" r="10.34"/>
  <circle class="cls-1" cx="702.99" cy="822.83" r="10.34"/>
  <circle class="cls-1" cx="725.87" cy="822.83" r="10.34"/>
  <circle class="cls-1" cx="748.76" cy="822.83" r="10.34"/>
  <circle class="cls-1" cx="771.64" cy="822.83" r="10.34"/>
  <circle class="cls-1" cx="794.53" cy="822.83" r="10.34"/>
  <circle class="cls-1" cx="817.41" cy="822.83" r="10.34"/>
  <circle class="cls-1" cx="840.3" cy="822.83" r="10.34"/>
  <circle class="cls-1" cx="863.19" cy="822.83" r="10.34"/>
  <circle class="cls-1" cx="886.07" cy="822.83" r="10.34"/>
  <circle class="cls-1" cx="908.96" cy="822.83" r="10.34"/>
  <circle class="cls-1" cx="931.84" cy="822.83" r="10.34"/>
  <circle class="cls-1" cx="954.73" cy="822.83" r="10.34"/>
  <circle class="cls-1" cx="977.62" cy="822.83" r="10.34"/>
  <circle class="cls-1" cx="1000.5" cy="822.83" r="10.34"/>
  <circle class="cls-1" cx="1023.39" cy="822.83" r="10.34"/>
  <circle class="cls-1" cx="1046.27" cy="822.83" r="10.34"/>
  <circle class="cls-1" cx="1069.16" cy="822.83" r="10.34"/>
  <circle class="cls-1" cx="1092.04" cy="822.83" r="10.34"/>
  <circle class="cls-1" cx="1114.93" cy="822.83" r="10.34"/>
  <circle class="cls-1" cx="1137.82" cy="822.83" r="10.34"/>
  <circle class="cls-1" cx="62.18" cy="799.94" r="9.77"/>
  <circle class="cls-1" cx="85.07" cy="799.94" r="9.77"/>
  <circle class="cls-1" cx="107.96" cy="799.94" r="9.77"/>
  <circle class="cls-1" cx="130.84" cy="799.94" r="9.77"/>
  <circle class="cls-1" cx="153.73" cy="799.94" r="9.77"/>
  <circle class="cls-1" cx="176.61" cy="799.94" r="9.77"/>
  <circle class="cls-1" cx="199.5" cy="799.94" r="9.77"/>
  <circle class="cls-1" cx="222.38" cy="799.94" r="9.77"/>
  <circle class="cls-1" cx="245.27" cy="799.94" r="9.77"/>
  <circle class="cls-1" cx="268.16" cy="799.94" r="9.77"/>
  <circle class="cls-1" cx="291.04" cy="799.94" r="9.77"/>
  <circle class="cls-1" cx="313.93" cy="799.94" r="9.77"/>
  <circle class="cls-1" cx="336.81" cy="799.94" r="9.77"/>
  <circle class="cls-1" cx="359.7" cy="799.94" r="9.77"/>
  <circle class="cls-1" cx="382.59" cy="799.94" r="9.77"/>
  <circle class="cls-1" cx="405.47" cy="799.94" r="9.77"/>
  <circle class="cls-1" cx="428.36" cy="799.94" r="9.77"/>
  <circle class="cls-1" cx="451.24" cy="799.94" r="9.77"/>
  <circle class="cls-1" cx="474.13" cy="799.94" r="9.77"/>
  <circle class="cls-1" cx="497.01" cy="799.94" r="9.77"/>
  <circle class="cls-1" cx="519.9" cy="799.94" r="9.77"/>
  <circle class="cls-1" cx="542.79" cy="799.94" r="9.77"/>
  <circle class="cls-1" cx="565.67" cy="799.94" r="9.77"/>
  <circle class="cls-1" cx="588.56" cy="799.94" r="9.77"/>
  <circle class="cls-1" cx="611.44" cy="799.94" r="9.77"/>
  <circle class="cls-1" cx="634.33" cy="799.94" r="9.77"/>
  <circle class="cls-1" cx="657.21" cy="799.94" r="9.77"/>
  <circle class="cls-1" cx="680.1" cy="799.94" r="9.77"/>
  <circle class="cls-1" cx="702.99" cy="799.94" r="9.77"/>
  <circle class="cls-1" cx="725.87" cy="799.94" r="9.77"/>
  <circle class="cls-1" cx="748.76" cy="799.94" r="9.77"/>
  <circle class="cls-1" cx="771.64" cy="799.94" r="9.77"/>
  <circle class="cls-1" cx="794.53" cy="799.94" r="9.77"/>
  <circle class="cls-1" cx="817.41" cy="799.94" r="9.77"/>
  <circle class="cls-1" cx="840.3" cy="799.94" r="9.77"/>
  <circle class="cls-1" cx="863.19" cy="799.94" r="9.77"/>
  <circle class="cls-1" cx="886.07" cy="799.94" r="9.77"/>
  <circle class="cls-1" cx="908.96" cy="799.94" r="9.77"/>
  <circle class="cls-1" cx="931.84" cy="799.94" r="9.77"/>
  <circle class="cls-1" cx="954.73" cy="799.94" r="9.77"/>
  <circle class="cls-1" cx="977.62" cy="799.94" r="9.77"/>
  <circle class="cls-1" cx="1000.5" cy="799.94" r="9.77"/>
  <circle class="cls-1" cx="1023.39" cy="799.94" r="9.77"/>
  <circle class="cls-1" cx="1046.27" cy="799.94" r="9.77"/>
  <circle class="cls-1" cx="1069.16" cy="799.94" r="9.77"/>
  <circle class="cls-1" cx="1092.04" cy="799.94" r="9.77"/>
  <circle class="cls-1" cx="1114.93" cy="799.94" r="9.77"/>
  <circle class="cls-1" cx="1137.82" cy="799.94" r="9.77"/>
  <circle class="cls-1" cx="62.18" cy="777.06" r="9.14"/>
  <circle class="cls-1" cx="85.07" cy="777.06" r="9.14"/>
  <circle class="cls-1" cx="107.96" cy="777.06" r="9.14"/>
  <circle class="cls-1" cx="130.84" cy="777.06" r="9.14"/>
  <circle class="cls-1" cx="153.73" cy="777.06" r="9.14"/>
  <circle class="cls-1" cx="176.61" cy="777.06" r="9.14"/>
  <circle class="cls-1" cx="199.5" cy="777.06" r="9.14"/>
  <circle class="cls-1" cx="222.38" cy="777.06" r="9.14"/>
  <circle class="cls-1" cx="245.27" cy="777.06" r="9.14"/>
  <circle class="cls-1" cx="268.16" cy="777.06" r="9.14"/>
  <circle class="cls-1" cx="291.04" cy="777.06" r="9.14"/>
  <circle class="cls-1" cx="313.93" cy="777.06" r="9.14"/>
  <circle class="cls-1" cx="336.81" cy="777.06" r="9.14"/>
  <circle class="cls-1" cx="359.7" cy="777.06" r="9.14"/>
  <circle class="cls-1" cx="382.59" cy="777.06" r="9.14"/>
  <circle class="cls-1" cx="405.47" cy="777.06" r="9.14"/>
  <circle class="cls-1" cx="428.36" cy="777.06" r="9.14"/>
  <circle class="cls-1" cx="451.24" cy="777.06" r="9.14"/>
  <circle class="cls-1" cx="474.13" cy="777.06" r="9.14"/>
  <circle class="cls-1" cx="497.01" cy="777.06" r="9.14"/>
  <circle class="cls-1" cx="519.9" cy="777.06" r="9.14"/>
  <circle class="cls-1" cx="542.79" cy="777.06" r="9.14"/>
  <circle class="cls-1" cx="565.67" cy="777.06" r="9.14"/>
  <circle class="cls-1" cx="588.56" cy="777.06" r="9.14"/>
  <circle class="cls-1" cx="611.44" cy="777.06" r="9.14"/>
  <circle class="cls-1" cx="634.33" cy="777.06" r="9.14"/>
  <circle class="cls-1" cx="657.21" cy="777.06" r="9.14"/>
  <circle class="cls-1" cx="680.1" cy="777.06" r="9.14"/>
  <circle class="cls-1" cx="702.99" cy="777.06" r="9.14"/>
  <circle class="cls-1" cx="725.87" cy="777.06" r="9.14"/>
  <circle class="cls-1" cx="748.76" cy="777.06" r="9.14"/>
  <circle class="cls-1" cx="771.64" cy="777.06" r="9.14"/>
  <circle class="cls-1" cx="794.53" cy="777.06" r="9.14"/>
  <circle class="cls-1" cx="817.41" cy="777.06" r="9.14"/>
  <circle class="cls-1" cx="840.3" cy="777.06" r="9.14"/>
  <circle class="cls-1" cx="863.19" cy="777.06" r="9.14"/>
  <circle class="cls-1" cx="886.07" cy="777.06" r="9.14"/>
  <circle class="cls-1" cx="908.96" cy="777.06" r="9.14"/>
  <circle class="cls-1" cx="931.84" cy="777.06" r="9.14"/>
  <circle class="cls-1" cx="954.73" cy="777.06" r="9.14"/>
  <circle class="cls-1" cx="977.62" cy="777.06" r="9.14"/>
  <circle class="cls-1" cx="1000.5" cy="777.06" r="9.14"/>
  <circle class="cls-1" cx="1023.39" cy="777.06" r="9.14"/>
  <circle class="cls-1" cx="1046.27" cy="777.06" r="9.14"/>
  <circle class="cls-1" cx="1069.16" cy="777.06" r="9.14"/>
  <circle class="cls-1" cx="1092.04" cy="777.06" r="9.14"/>
  <circle class="cls-1" cx="1114.93" cy="777.06" r="9.14"/>
  <circle class="cls-1" cx="1137.82" cy="777.06" r="9.14"/>
  <circle class="cls-1" cx="62.18" cy="754.17" r="8.63"/>
  <circle class="cls-1" cx="85.07" cy="754.17" r="8.63"/>
  <circle class="cls-1" cx="107.96" cy="754.17" r="8.63"/>
  <circle class="cls-1" cx="130.84" cy="754.17" r="8.63"/>
  <circle class="cls-1" cx="153.73" cy="754.17" r="8.63"/>
  <circle class="cls-1" cx="176.61" cy="754.17" r="8.63"/>
  <circle class="cls-1" cx="199.5" cy="754.17" r="8.63"/>
  <circle class="cls-1" cx="222.38" cy="754.17" r="8.63"/>
  <circle class="cls-1" cx="245.27" cy="754.17" r="8.63"/>
  <circle class="cls-1" cx="268.16" cy="754.17" r="8.63"/>
  <circle class="cls-1" cx="291.04" cy="754.17" r="8.63"/>
  <circle class="cls-1" cx="313.93" cy="754.17" r="8.63"/>
  <circle class="cls-1" cx="336.81" cy="754.17" r="8.63"/>
  <circle class="cls-1" cx="359.7" cy="754.17" r="8.63"/>
  <circle class="cls-1" cx="382.59" cy="754.17" r="8.63"/>
  <circle class="cls-1" cx="405.47" cy="754.17" r="8.63"/>
  <circle class="cls-1" cx="428.36" cy="754.17" r="8.63"/>
  <circle class="cls-1" cx="451.24" cy="754.17" r="8.63"/>
  <circle class="cls-1" cx="474.13" cy="754.17" r="8.63"/>
  <circle class="cls-1" cx="497.01" cy="754.17" r="8.63"/>
  <circle class="cls-1" cx="519.9" cy="754.17" r="8.63"/>
  <circle class="cls-1" cx="542.79" cy="754.17" r="8.63"/>
  <circle class="cls-1" cx="565.67" cy="754.17" r="8.63"/>
  <circle class="cls-1" cx="588.56" cy="754.17" r="8.63"/>
  <circle class="cls-1" cx="611.44" cy="754.17" r="8.63"/>
  <circle class="cls-1" cx="634.33" cy="754.17" r="8.63"/>
  <circle class="cls-1" cx="657.21" cy="754.17" r="8.63"/>
  <circle class="cls-1" cx="680.1" cy="754.17" r="8.63"/>
  <circle class="cls-1" cx="702.99" cy="754.17" r="8.63"/>
  <circle class="cls-1" cx="725.87" cy="754.17" r="8.63"/>
  <circle class="cls-1" cx="748.76" cy="754.17" r="8.63"/>
  <circle class="cls-1" cx="771.64" cy="754.17" r="8.63"/>
  <circle class="cls-1" cx="794.53" cy="754.17" r="8.63"/>
  <circle class="cls-1" cx="817.41" cy="754.17" r="8.63"/>
  <circle class="cls-1" cx="840.3" cy="754.17" r="8.63"/>
  <circle class="cls-1" cx="863.19" cy="754.17" r="8.63"/>
  <circle class="cls-1" cx="886.07" cy="754.17" r="8.63"/>
  <circle class="cls-1" cx="908.96" cy="754.17" r="8.63"/>
  <circle class="cls-1" cx="931.84" cy="754.17" r="8.63"/>
  <circle class="cls-1" cx="954.73" cy="754.17" r="8.63"/>
  <circle class="cls-1" cx="977.62" cy="754.17" r="8.63"/>
  <circle class="cls-1" cx="1000.5" cy="754.17" r="8.63"/>
  <circle class="cls-1" cx="1023.39" cy="754.17" r="8.63"/>
  <circle class="cls-1" cx="1046.27" cy="754.17" r="8.63"/>
  <circle class="cls-1" cx="1069.16" cy="754.17" r="8.63"/>
  <circle class="cls-1" cx="1092.04" cy="754.17" r="8.63"/>
  <circle class="cls-1" cx="1114.93" cy="754.17" r="8.63"/>
  <circle class="cls-1" cx="1137.82" cy="754.17" r="8.63"/>
  <circle class="cls-1" cx="62.18" cy="731.29" r="8.06"/>
  <circle class="cls-1" cx="85.07" cy="731.29" r="8.06"/>
  <circle class="cls-1" cx="107.96" cy="731.29" r="8.06"/>
  <circle class="cls-1" cx="130.84" cy="731.29" r="8.06"/>
  <circle class="cls-1" cx="153.73" cy="731.29" r="8.06"/>
  <circle class="cls-1" cx="176.61" cy="731.29" r="8.06"/>
  <circle class="cls-1" cx="199.5" cy="731.29" r="8.06"/>
  <circle class="cls-1" cx="222.38" cy="731.29" r="8.06"/>
  <circle class="cls-1" cx="245.27" cy="731.29" r="8.06"/>
  <circle class="cls-1" cx="268.16" cy="731.29" r="8.06"/>
  <circle class="cls-1" cx="291.04" cy="731.29" r="8.06"/>
  <circle class="cls-1" cx="313.93" cy="731.29" r="8.06"/>
  <circle class="cls-1" cx="336.81" cy="731.29" r="8.06"/>
  <circle class="cls-1" cx="359.7" cy="731.29" r="8.06"/>
  <circle class="cls-1" cx="382.59" cy="731.29" r="8.06"/>
  <circle class="cls-1" cx="405.47" cy="731.29" r="8.06"/>
  <circle class="cls-1" cx="428.36" cy="731.29" r="8.06"/>
  <circle class="cls-1" cx="451.24" cy="731.29" r="8.06"/>
  <circle class="cls-1" cx="474.13" cy="731.29" r="8.06"/>
  <circle class="cls-1" cx="497.01" cy="731.29" r="8.06"/>
  <circle class="cls-1" cx="519.9" cy="731.29" r="8.06"/>
  <circle class="cls-1" cx="542.79" cy="731.29" r="8.06"/>
  <circle class="cls-1" cx="565.67" cy="731.29" r="8.06"/>
  <circle class="cls-1" cx="588.56" cy="731.29" r="8.06"/>
  <circle class="cls-1" cx="611.44" cy="731.29" r="8.06"/>
  <circle class="cls-1" cx="634.33" cy="731.29" r="8.06"/>
  <circle class="cls-1" cx="657.21" cy="731.29" r="8.06"/>
  <circle class="cls-1" cx="680.1" cy="731.29" r="8.06"/>
  <circle class="cls-1" cx="702.99" cy="731.29" r="8.06"/>
  <circle class="cls-1" cx="725.87" cy="731.29" r="8.06"/>
  <circle class="cls-1" cx="748.76" cy="731.29" r="8.06"/>
  <circle class="cls-1" cx="771.64" cy="731.29" r="8.06"/>
  <circle class="cls-1" cx="794.53" cy="731.29" r="8.06"/>
  <circle class="cls-1" cx="817.41" cy="731.29" r="8.06"/>
  <circle class="cls-1" cx="840.3" cy="731.29" r="8.06"/>
  <circle class="cls-1" cx="863.19" cy="731.29" r="8.06"/>
  <circle class="cls-1" cx="886.07" cy="731.29" r="8.06"/>
  <circle class="cls-1" cx="908.96" cy="731.29" r="8.06"/>
  <circle class="cls-1" cx="931.84" cy="731.29" r="8.06"/>
  <circle class="cls-1" cx="954.73" cy="731.29" r="8.06"/>
  <circle class="cls-1" cx="977.62" cy="731.29" r="8.06"/>
  <circle class="cls-1" cx="1000.5" cy="731.29" r="8.06"/>
  <circle class="cls-1" cx="1023.39" cy="731.29" r="8.06"/>
  <circle class="cls-1" cx="1046.27" cy="731.29" r="8.06"/>
  <circle class="cls-1" cx="1069.16" cy="731.29" r="8.06"/>
  <circle class="cls-1" cx="1092.04" cy="731.29" r="8.06"/>
  <circle class="cls-1" cx="1114.93" cy="731.29" r="8.06"/>
  <circle class="cls-1" cx="1137.82" cy="731.29" r="8.06"/>
  <circle class="cls-1" cx="62.18" cy="708.4" r="7.49"/>
  <circle class="cls-1" cx="85.07" cy="708.4" r="7.49"/>
  <circle class="cls-1" cx="107.96" cy="708.4" r="7.49"/>
  <circle class="cls-1" cx="130.84" cy="708.4" r="7.49"/>
  <circle class="cls-1" cx="153.73" cy="708.4" r="7.49"/>
  <circle class="cls-1" cx="176.61" cy="708.4" r="7.49"/>
  <circle class="cls-1" cx="199.5" cy="708.4" r="7.49"/>
  <circle class="cls-1" cx="222.38" cy="708.4" r="7.49"/>
  <circle class="cls-1" cx="245.27" cy="708.4" r="7.49"/>
  <circle class="cls-1" cx="268.16" cy="708.4" r="7.49"/>
  <circle class="cls-1" cx="291.04" cy="708.4" r="7.49"/>
  <circle class="cls-1" cx="313.93" cy="708.4" r="7.49"/>
  <circle class="cls-1" cx="336.81" cy="708.4" r="7.49"/>
  <circle class="cls-1" cx="359.7" cy="708.4" r="7.49"/>
  <circle class="cls-1" cx="382.59" cy="708.4" r="7.49"/>
  <circle class="cls-1" cx="405.47" cy="708.4" r="7.49"/>
  <circle class="cls-1" cx="428.36" cy="708.4" r="7.49"/>
  <circle class="cls-1" cx="451.24" cy="708.4" r="7.49"/>
  <circle class="cls-1" cx="474.13" cy="708.4" r="7.49"/>
  <circle class="cls-1" cx="497.01" cy="708.4" r="7.49"/>
  <circle class="cls-1" cx="519.9" cy="708.4" r="7.49"/>
  <circle class="cls-1" cx="542.79" cy="708.4" r="7.49"/>
  <circle class="cls-1" cx="565.67" cy="708.4" r="7.49"/>
  <circle class="cls-1" cx="588.56" cy="708.4" r="7.49"/>
  <circle class="cls-1" cx="611.44" cy="708.4" r="7.49"/>
  <circle class="cls-1" cx="634.33" cy="708.4" r="7.49"/>
  <circle class="cls-1" cx="657.21" cy="708.4" r="7.49"/>
  <circle class="cls-1" cx="680.1" cy="708.4" r="7.49"/>
  <circle class="cls-1" cx="702.99" cy="708.4" r="7.49"/>
  <circle class="cls-1" cx="725.87" cy="708.4" r="7.49"/>
  <circle class="cls-1" cx="748.76" cy="708.4" r="7.49"/>
  <circle class="cls-1" cx="771.64" cy="708.4" r="7.49"/>
  <circle class="cls-1" cx="794.53" cy="708.4" r="7.49"/>
  <circle class="cls-1" cx="817.41" cy="708.4" r="7.49"/>
  <circle class="cls-1" cx="840.3" cy="708.4" r="7.49"/>
  <circle class="cls-1" cx="863.19" cy="708.4" r="7.49"/>
  <circle class="cls-1" cx="886.07" cy="708.4" r="7.49"/>
  <circle class="cls-1" cx="908.96" cy="708.4" r="7.49"/>
  <circle class="cls-1" cx="931.84" cy="708.4" r="7.49"/>
  <circle class="cls-1" cx="954.73" cy="708.4" r="7.49"/>
  <circle class="cls-1" cx="977.62" cy="708.4" r="7.49"/>
  <circle class="cls-1" cx="1000.5" cy="708.4" r="7.49"/>
  <circle class="cls-1" cx="1023.39" cy="708.4" r="7.49"/>
  <circle class="cls-1" cx="1046.27" cy="708.4" r="7.49"/>
  <circle class="cls-1" cx="1069.16" cy="708.4" r="7.49"/>
  <circle class="cls-1" cx="1092.04" cy="708.4" r="7.49"/>
  <circle class="cls-1" cx="1114.93" cy="708.4" r="7.49"/>
  <circle class="cls-1" cx="1137.82" cy="708.4" r="7.49"/>
  <circle class="cls-1" cx="62.18" cy="685.51" r="6.98"/>
  <circle class="cls-1" cx="85.07" cy="685.51" r="6.98"/>
  <circle class="cls-1" cx="107.96" cy="685.51" r="6.98"/>
  <circle class="cls-1" cx="130.84" cy="685.51" r="6.98"/>
  <circle class="cls-1" cx="153.73" cy="685.51" r="6.98"/>
  <circle class="cls-1" cx="176.61" cy="685.51" r="6.98"/>
  <circle class="cls-1" cx="199.5" cy="685.51" r="6.98"/>
  <circle class="cls-1" cx="222.38" cy="685.51" r="6.98"/>
  <circle class="cls-1" cx="245.27" cy="685.51" r="6.98"/>
  <circle class="cls-1" cx="268.16" cy="685.51" r="6.98"/>
  <circle class="cls-1" cx="291.04" cy="685.51" r="6.98"/>
  <circle class="cls-1" cx="313.93" cy="685.51" r="6.98"/>
  <circle class="cls-1" cx="336.81" cy="685.51" r="6.98"/>
  <circle class="cls-1" cx="359.7" cy="685.51" r="6.98"/>
  <circle class="cls-1" cx="382.59" cy="685.51" r="6.98"/>
  <circle class="cls-1" cx="405.47" cy="685.51" r="6.98"/>
  <circle class="cls-1" cx="428.36" cy="685.51" r="6.98"/>
  <circle class="cls-1" cx="451.24" cy="685.51" r="6.98"/>
  <circle class="cls-1" cx="474.13" cy="685.51" r="6.98"/>
  <circle class="cls-1" cx="497.01" cy="685.51" r="6.98"/>
  <circle class="cls-1" cx="519.9" cy="685.51" r="6.98"/>
  <circle class="cls-1" cx="542.79" cy="685.51" r="6.98"/>
  <circle class="cls-1" cx="565.67" cy="685.51" r="6.98"/>
  <circle class="cls-1" cx="588.56" cy="685.51" r="6.98"/>
  <circle class="cls-1" cx="611.44" cy="685.51" r="6.98"/>
  <circle class="cls-1" cx="634.33" cy="685.51" r="6.98"/>
  <circle class="cls-1" cx="657.21" cy="685.51" r="6.98"/>
  <circle class="cls-1" cx="680.1" cy="685.51" r="6.98"/>
  <circle class="cls-1" cx="702.99" cy="685.51" r="6.98"/>
  <circle class="cls-1" cx="725.87" cy="685.51" r="6.98"/>
  <circle class="cls-1" cx="748.76" cy="685.51" r="6.98"/>
  <circle class="cls-1" cx="771.64" cy="685.51" r="6.98"/>
  <circle class="cls-1" cx="794.53" cy="685.51" r="6.98"/>
  <circle class="cls-1" cx="817.41" cy="685.51" r="6.98"/>
  <circle class="cls-1" cx="840.3" cy="685.51" r="6.98"/>
  <circle class="cls-1" cx="863.19" cy="685.51" r="6.98"/>
  <circle class="cls-1" cx="886.07" cy="685.51" r="6.98"/>
  <circle class="cls-1" cx="908.96" cy="685.51" r="6.98"/>
  <circle class="cls-1" cx="931.84" cy="685.51" r="6.98"/>
  <circle class="cls-1" cx="954.73" cy="685.51" r="6.98"/>
  <circle class="cls-1" cx="977.62" cy="685.51" r="6.98"/>
  <circle class="cls-1" cx="1000.5" cy="685.51" r="6.98"/>
  <circle class="cls-1" cx="1023.39" cy="685.51" r="6.98"/>
  <circle class="cls-1" cx="1046.27" cy="685.51" r="6.98"/>
  <circle class="cls-1" cx="1069.16" cy="685.51" r="6.98"/>
  <circle class="cls-1" cx="1092.04" cy="685.51" r="6.98"/>
  <circle class="cls-1" cx="1114.93" cy="685.51" r="6.98"/>
  <circle class="cls-1" cx="1137.82" cy="685.51" r="6.98"/>
  <circle class="cls-1" cx="62.18" cy="662.63" r="6.47"/>
  <circle class="cls-1" cx="85.07" cy="662.63" r="6.47"/>
  <circle class="cls-1" cx="107.96" cy="662.63" r="6.47"/>
  <circle class="cls-1" cx="130.84" cy="662.63" r="6.47"/>
  <circle class="cls-1" cx="153.73" cy="662.63" r="6.47"/>
  <circle class="cls-1" cx="176.61" cy="662.63" r="6.47"/>
  <circle class="cls-1" cx="199.5" cy="662.63" r="6.47"/>
  <circle class="cls-1" cx="222.38" cy="662.63" r="6.47"/>
  <circle class="cls-1" cx="245.27" cy="662.63" r="6.47"/>
  <circle class="cls-1" cx="268.16" cy="662.63" r="6.47"/>
  <circle class="cls-1" cx="291.04" cy="662.63" r="6.47"/>
  <circle class="cls-1" cx="313.93" cy="662.63" r="6.47"/>
  <circle class="cls-1" cx="336.81" cy="662.63" r="6.47"/>
  <circle class="cls-1" cx="359.7" cy="662.63" r="6.47"/>
  <circle class="cls-1" cx="382.59" cy="662.63" r="6.47"/>
  <circle class="cls-1" cx="405.47" cy="662.63" r="6.47"/>
  <circle class="cls-1" cx="428.36" cy="662.63" r="6.47"/>
  <circle class="cls-1" cx="451.24" cy="662.63" r="6.47"/>
  <circle class="cls-1" cx="474.13" cy="662.63" r="6.47"/>
  <circle class="cls-1" cx="497.01" cy="662.63" r="6.47"/>
  <circle class="cls-1" cx="519.9" cy="662.63" r="6.47"/>
  <circle class="cls-1" cx="542.79" cy="662.63" r="6.47"/>
  <circle class="cls-1" cx="565.67" cy="662.63" r="6.47"/>
  <circle class="cls-1" cx="588.56" cy="662.63" r="6.47"/>
  <circle class="cls-1" cx="611.44" cy="662.63" r="6.47"/>
  <circle class="cls-1" cx="634.33" cy="662.63" r="6.47"/>
  <circle class="cls-1" cx="657.21" cy="662.63" r="6.47"/>
  <circle class="cls-1" cx="680.1" cy="662.63" r="6.47"/>
  <circle class="cls-1" cx="702.99" cy="662.63" r="6.47"/>
  <circle class="cls-1" cx="725.87" cy="662.63" r="6.47"/>
  <circle class="cls-1" cx="748.76" cy="662.63" r="6.47"/>
  <circle class="cls-1" cx="771.64" cy="662.63" r="6.47"/>
  <circle class="cls-1" cx="794.53" cy="662.63" r="6.47"/>
  <circle class="cls-1" cx="817.41" cy="662.63" r="6.47"/>
  <circle class="cls-1" cx="840.3" cy="662.63" r="6.47"/>
  <circle class="cls-1" cx="863.19" cy="662.63" r="6.47"/>
  <circle class="cls-1" cx="886.07" cy="662.63" r="6.47"/>
  <circle class="cls-1" cx="908.96" cy="662.63" r="6.47"/>
  <circle class="cls-1" cx="931.84" cy="662.63" r="6.47"/>
  <circle class="cls-1" cx="954.73" cy="662.63" r="6.47"/>
  <circle class="cls-1" cx="977.62" cy="662.63" r="6.47"/>
  <circle class="cls-1" cx="1000.5" cy="662.63" r="6.47"/>
  <circle class="cls-1" cx="1023.39" cy="662.63" r="6.47"/>
  <circle class="cls-1" cx="1046.27" cy="662.63" r="6.47"/>
  <circle class="cls-1" cx="1069.16" cy="662.63" r="6.47"/>
  <circle class="cls-1" cx="1092.04" cy="662.63" r="6.47"/>
  <circle class="cls-1" cx="1114.93" cy="662.63" r="6.47"/>
  <circle class="cls-1" cx="1137.82" cy="662.63" r="6.47"/>
  <circle class="cls-1" cx="62.18" cy="639.74" r="5.97"/>
  <circle class="cls-1" cx="85.07" cy="639.74" r="5.97"/>
  <circle class="cls-1" cx="107.96" cy="639.74" r="5.97"/>
  <circle class="cls-1" cx="130.84" cy="639.74" r="5.97"/>
  <circle class="cls-1" cx="153.73" cy="639.74" r="5.97"/>
  <circle class="cls-1" cx="176.61" cy="639.74" r="5.97"/>
  <circle class="cls-1" cx="199.5" cy="639.74" r="5.97"/>
  <circle class="cls-1" cx="222.38" cy="639.74" r="5.97"/>
  <circle class="cls-1" cx="245.27" cy="639.74" r="5.97"/>
  <circle class="cls-1" cx="268.16" cy="639.74" r="5.97"/>
  <circle class="cls-1" cx="291.04" cy="639.74" r="5.97"/>
  <circle class="cls-1" cx="313.93" cy="639.74" r="5.97"/>
  <circle class="cls-1" cx="336.81" cy="639.74" r="5.97"/>
  <circle class="cls-1" cx="359.7" cy="639.74" r="5.97"/>
  <circle class="cls-1" cx="382.59" cy="639.74" r="5.97"/>
  <circle class="cls-1" cx="405.47" cy="639.74" r="5.97"/>
  <circle class="cls-1" cx="428.36" cy="639.74" r="5.97"/>
  <circle class="cls-1" cx="451.24" cy="639.74" r="5.97"/>
  <circle class="cls-1" cx="474.13" cy="639.74" r="5.97"/>
  <circle class="cls-1" cx="497.01" cy="639.74" r="5.97"/>
  <circle class="cls-1" cx="519.9" cy="639.74" r="5.97"/>
  <circle class="cls-1" cx="542.79" cy="639.74" r="5.97"/>
  <circle class="cls-1" cx="565.67" cy="639.74" r="5.97"/>
  <circle class="cls-1" cx="588.56" cy="639.74" r="5.97"/>
  <circle class="cls-1" cx="611.44" cy="639.74" r="5.97"/>
  <circle class="cls-1" cx="634.33" cy="639.74" r="5.97"/>
  <circle class="cls-1" cx="657.21" cy="639.74" r="5.97"/>
  <circle class="cls-1" cx="680.1" cy="639.74" r="5.97"/>
  <circle class="cls-1" cx="702.99" cy="639.74" r="5.97"/>
  <circle class="cls-1" cx="725.87" cy="639.74" r="5.97"/>
  <circle class="cls-1" cx="748.76" cy="639.74" r="5.97"/>
  <circle class="cls-1" cx="771.64" cy="639.74" r="5.97"/>
  <circle class="cls-1" cx="794.53" cy="639.74" r="5.97"/>
  <circle class="cls-1" cx="817.41" cy="639.74" r="5.97"/>
  <circle class="cls-1" cx="840.3" cy="639.74" r="5.97"/>
  <circle class="cls-1" cx="863.19" cy="639.74" r="5.97"/>
  <circle class="cls-1" cx="886.07" cy="639.74" r="5.97"/>
  <circle class="cls-1" cx="908.96" cy="639.74" r="5.97"/>
  <circle class="cls-1" cx="931.84" cy="639.74" r="5.97"/>
  <circle class="cls-1" cx="954.73" cy="639.74" r="5.97"/>
  <circle class="cls-1" cx="977.62" cy="639.74" r="5.97"/>
  <circle class="cls-1" cx="1000.5" cy="639.74" r="5.97"/>
  <circle class="cls-1" cx="1023.39" cy="639.74" r="5.97"/>
  <circle class="cls-1" cx="1046.27" cy="639.74" r="5.97"/>
  <circle class="cls-1" cx="1069.16" cy="639.74" r="5.97"/>
  <circle class="cls-1" cx="1092.04" cy="639.74" r="5.97"/>
  <circle class="cls-1" cx="1114.93" cy="639.74" r="5.97"/>
  <circle class="cls-1" cx="1137.82" cy="639.74" r="5.97"/>
  <circle class="cls-1" cx="62.18" cy="616.86" r="5.39"/>
  <circle class="cls-1" cx="85.07" cy="616.86" r="5.39"/>
  <circle class="cls-1" cx="107.96" cy="616.86" r="5.39"/>
  <circle class="cls-1" cx="130.84" cy="616.86" r="5.39"/>
  <circle class="cls-1" cx="153.73" cy="616.86" r="5.39"/>
  <circle class="cls-1" cx="176.61" cy="616.86" r="5.39"/>
  <circle class="cls-1" cx="199.5" cy="616.86" r="5.39"/>
  <circle class="cls-1" cx="222.38" cy="616.86" r="5.39"/>
  <circle class="cls-1" cx="245.27" cy="616.86" r="5.39"/>
  <circle class="cls-1" cx="268.16" cy="616.86" r="5.39"/>
  <circle class="cls-1" cx="291.04" cy="616.86" r="5.39"/>
  <circle class="cls-1" cx="313.93" cy="616.86" r="5.39"/>
  <circle class="cls-1" cx="336.81" cy="616.86" r="5.39"/>
  <circle class="cls-1" cx="359.7" cy="616.86" r="5.39"/>
  <circle class="cls-1" cx="382.59" cy="616.86" r="5.39"/>
  <circle class="cls-1" cx="405.47" cy="616.86" r="5.39"/>
  <circle class="cls-1" cx="428.36" cy="616.86" r="5.39"/>
  <circle class="cls-1" cx="451.24" cy="616.86" r="5.39"/>
  <circle class="cls-1" cx="474.13" cy="616.86" r="5.39"/>
  <circle class="cls-1" cx="497.01" cy="616.86" r="5.39"/>
  <circle class="cls-1" cx="519.9" cy="616.86" r="5.39"/>
  <circle class="cls-1" cx="542.79" cy="616.86" r="5.39"/>
  <circle class="cls-1" cx="565.67" cy="616.86" r="5.39"/>
  <circle class="cls-1" cx="588.56" cy="616.86" r="5.39"/>
  <circle class="cls-1" cx="611.44" cy="616.86" r="5.39"/>
  <circle class="cls-1" cx="634.33" cy="616.86" r="5.39"/>
  <circle class="cls-1" cx="657.21" cy="616.86" r="5.39"/>
  <circle class="cls-1" cx="680.1" cy="616.86" r="5.39"/>
  <circle class="cls-1" cx="702.99" cy="616.86" r="5.39"/>
  <circle class="cls-1" cx="725.87" cy="616.86" r="5.39"/>
  <circle class="cls-1" cx="748.76" cy="616.86" r="5.39"/>
  <circle class="cls-1" cx="771.64" cy="616.86" r="5.39"/>
  <circle class="cls-1" cx="794.53" cy="616.86" r="5.39"/>
  <circle class="cls-1" cx="817.41" cy="616.86" r="5.39"/>
  <circle class="cls-1" cx="840.3" cy="616.86" r="5.39"/>
  <circle class="cls-1" cx="863.19" cy="616.86" r="5.39"/>
  <circle class="cls-1" cx="886.07" cy="616.86" r="5.39"/>
  <circle class="cls-1" cx="908.96" cy="616.86" r="5.39"/>
  <circle class="cls-1" cx="931.84" cy="616.86" r="5.39"/>
  <circle class="cls-1" cx="954.73" cy="616.86" r="5.39"/>
  <circle class="cls-1" cx="977.62" cy="616.86" r="5.39"/>
  <circle class="cls-1" cx="1000.5" cy="616.86" r="5.39"/>
  <circle class="cls-1" cx="1023.39" cy="616.86" r="5.39"/>
  <circle class="cls-1" cx="1046.27" cy="616.86" r="5.39"/>
  <circle class="cls-1" cx="1069.16" cy="616.86" r="5.39"/>
  <circle class="cls-1" cx="1092.04" cy="616.86" r="5.39"/>
  <circle class="cls-1" cx="1114.93" cy="616.86" r="5.39"/>
  <circle class="cls-1" cx="1137.82" cy="616.86" r="5.39"/>
  <circle class="cls-1" cx="62.18" cy="593.97" r="4.95"/>
  <circle class="cls-1" cx="85.07" cy="593.97" r="4.95"/>
  <circle class="cls-1" cx="107.96" cy="593.97" r="4.95"/>
  <circle class="cls-1" cx="130.84" cy="593.97" r="4.95"/>
  <circle class="cls-1" cx="153.73" cy="593.97" r="4.95"/>
  <circle class="cls-1" cx="176.61" cy="593.97" r="4.95"/>
  <circle class="cls-1" cx="199.5" cy="593.97" r="4.95"/>
  <circle class="cls-1" cx="222.38" cy="593.97" r="4.95"/>
  <circle class="cls-1" cx="245.27" cy="593.97" r="4.95"/>
  <circle class="cls-1" cx="268.16" cy="593.97" r="4.95"/>
  <circle class="cls-1" cx="291.04" cy="593.97" r="4.95"/>
  <circle class="cls-1" cx="313.93" cy="593.97" r="4.95"/>
  <circle class="cls-1" cx="336.81" cy="593.97" r="4.95"/>
  <circle class="cls-1" cx="359.7" cy="593.97" r="4.95"/>
  <circle class="cls-1" cx="382.59" cy="593.97" r="4.95"/>
  <circle class="cls-1" cx="405.47" cy="593.97" r="4.95"/>
  <circle class="cls-1" cx="428.36" cy="593.97" r="4.95"/>
  <circle class="cls-1" cx="451.24" cy="593.97" r="4.95"/>
  <circle class="cls-1" cx="474.13" cy="593.97" r="4.95"/>
  <circle class="cls-1" cx="497.01" cy="593.97" r="4.95"/>
  <circle class="cls-1" cx="519.9" cy="593.97" r="4.95"/>
  <circle class="cls-1" cx="542.79" cy="593.97" r="4.95"/>
  <circle class="cls-1" cx="565.67" cy="593.97" r="4.95"/>
  <circle class="cls-1" cx="588.56" cy="593.97" r="4.95"/>
  <circle class="cls-1" cx="611.44" cy="593.97" r="4.95"/>
  <circle class="cls-1" cx="634.33" cy="593.97" r="4.95"/>
  <circle class="cls-1" cx="657.21" cy="593.97" r="4.95"/>
  <circle class="cls-1" cx="680.1" cy="593.97" r="4.95"/>
  <circle class="cls-1" cx="702.99" cy="593.97" r="4.95"/>
  <circle class="cls-1" cx="725.87" cy="593.97" r="4.95"/>
  <circle class="cls-1" cx="748.76" cy="593.97" r="4.95"/>
  <circle class="cls-1" cx="771.64" cy="593.97" r="4.95"/>
  <circle class="cls-1" cx="794.53" cy="593.97" r="4.95"/>
  <circle class="cls-1" cx="817.41" cy="593.97" r="4.95"/>
  <circle class="cls-1" cx="840.3" cy="593.97" r="4.95"/>
  <circle class="cls-1" cx="863.19" cy="593.97" r="4.95"/>
  <circle class="cls-1" cx="886.07" cy="593.97" r="4.95"/>
  <circle class="cls-1" cx="908.96" cy="593.97" r="4.95"/>
  <circle class="cls-1" cx="931.84" cy="593.97" r="4.95"/>
  <circle class="cls-1" cx="954.73" cy="593.97" r="4.95"/>
  <circle class="cls-1" cx="977.62" cy="593.97" r="4.95"/>
  <circle class="cls-1" cx="1000.5" cy="593.97" r="4.95"/>
  <circle class="cls-1" cx="1023.39" cy="593.97" r="4.95"/>
  <circle class="cls-1" cx="1046.27" cy="593.97" r="4.95"/>
  <circle class="cls-1" cx="1069.16" cy="593.97" r="4.95"/>
  <circle class="cls-1" cx="1092.04" cy="593.97" r="4.95"/>
  <circle class="cls-1" cx="1114.93" cy="593.97" r="4.95"/>
  <circle class="cls-1" cx="1137.82" cy="593.97" r="4.95"/>
  <circle class="cls-1" cx="62.18" cy="571.09" r="4.44"/>
  <circle class="cls-1" cx="85.07" cy="571.09" r="4.44"/>
  <circle class="cls-1" cx="107.96" cy="571.09" r="4.44"/>
  <circle class="cls-1" cx="130.84" cy="571.09" r="4.44"/>
  <circle class="cls-1" cx="153.73" cy="571.09" r="4.44"/>
  <circle class="cls-1" cx="176.61" cy="571.09" r="4.44"/>
  <circle class="cls-1" cx="199.5" cy="571.09" r="4.44"/>
  <circle class="cls-1" cx="222.38" cy="571.09" r="4.44"/>
  <circle class="cls-1" cx="245.27" cy="571.09" r="4.44"/>
  <circle class="cls-1" cx="268.16" cy="571.09" r="4.44"/>
  <circle class="cls-1" cx="291.04" cy="571.09" r="4.44"/>
  <circle class="cls-1" cx="313.93" cy="571.09" r="4.44"/>
  <circle class="cls-1" cx="336.81" cy="571.09" r="4.44"/>
  <circle class="cls-1" cx="359.7" cy="571.09" r="4.44"/>
  <circle class="cls-1" cx="382.59" cy="571.09" r="4.44"/>
  <circle class="cls-1" cx="405.47" cy="571.09" r="4.44"/>
  <circle class="cls-1" cx="428.36" cy="571.09" r="4.44"/>
  <circle class="cls-1" cx="451.24" cy="571.09" r="4.44"/>
  <circle class="cls-1" cx="474.13" cy="571.09" r="4.44"/>
  <circle class="cls-1" cx="497.01" cy="571.09" r="4.44"/>
  <circle class="cls-1" cx="519.9" cy="571.09" r="4.44"/>
  <circle class="cls-1" cx="542.79" cy="571.09" r="4.44"/>
  <circle class="cls-1" cx="565.67" cy="571.09" r="4.44"/>
  <circle class="cls-1" cx="588.56" cy="571.09" r="4.44"/>
  <circle class="cls-1" cx="611.44" cy="571.09" r="4.44"/>
  <circle class="cls-1" cx="634.33" cy="571.09" r="4.44"/>
  <circle class="cls-1" cx="657.21" cy="571.09" r="4.44"/>
  <circle class="cls-1" cx="680.1" cy="571.09" r="4.44"/>
  <circle class="cls-1" cx="702.99" cy="571.09" r="4.44"/>
  <circle class="cls-1" cx="725.87" cy="571.09" r="4.44"/>
  <circle class="cls-1" cx="748.76" cy="571.09" r="4.44"/>
  <circle class="cls-1" cx="771.64" cy="571.09" r="4.44"/>
  <circle class="cls-1" cx="794.53" cy="571.09" r="4.44"/>
  <circle class="cls-1" cx="817.41" cy="571.09" r="4.44"/>
  <circle class="cls-1" cx="840.3" cy="571.09" r="4.44"/>
  <circle class="cls-1" cx="863.19" cy="571.09" r="4.44"/>
  <circle class="cls-1" cx="886.07" cy="571.09" r="4.44"/>
  <circle class="cls-1" cx="908.96" cy="571.09" r="4.44"/>
  <circle class="cls-1" cx="931.84" cy="571.09" r="4.44"/>
  <circle class="cls-1" cx="954.73" cy="571.09" r="4.44"/>
  <circle class="cls-1" cx="977.62" cy="571.09" r="4.44"/>
  <circle class="cls-1" cx="1000.5" cy="571.09" r="4.44"/>
  <circle class="cls-1" cx="1023.39" cy="571.09" r="4.44"/>
  <circle class="cls-1" cx="1046.27" cy="571.09" r="4.44"/>
  <circle class="cls-1" cx="1069.16" cy="571.09" r="4.44"/>
  <circle class="cls-1" cx="1092.04" cy="571.09" r="4.44"/>
  <circle class="cls-1" cx="1114.93" cy="571.09" r="4.44"/>
  <circle class="cls-1" cx="1137.82" cy="571.09" r="4.44"/>
  <circle class="cls-1" cx="62.18" cy="548.2" r="4"/>
  <circle class="cls-1" cx="85.07" cy="548.2" r="4"/>
  <circle class="cls-1" cx="107.96" cy="548.2" r="4"/>
  <circle class="cls-1" cx="130.84" cy="548.2" r="4"/>
  <circle class="cls-1" cx="153.73" cy="548.2" r="4"/>
  <circle class="cls-1" cx="176.61" cy="548.2" r="4"/>
  <circle class="cls-1" cx="199.5" cy="548.2" r="4"/>
  <circle class="cls-1" cx="222.38" cy="548.2" r="4"/>
  <circle class="cls-1" cx="245.27" cy="548.2" r="4"/>
  <circle class="cls-1" cx="268.16" cy="548.2" r="4"/>
  <circle class="cls-1" cx="291.04" cy="548.2" r="4"/>
  <circle class="cls-1" cx="313.93" cy="548.2" r="4"/>
  <circle class="cls-1" cx="336.81" cy="548.2" r="4"/>
  <circle class="cls-1" cx="359.7" cy="548.2" r="4"/>
  <circle class="cls-1" cx="382.59" cy="548.2" r="4"/>
  <circle class="cls-1" cx="405.47" cy="548.2" r="4"/>
  <circle class="cls-1" cx="428.36" cy="548.2" r="4"/>
  <circle class="cls-1" cx="451.24" cy="548.2" r="4"/>
  <circle class="cls-1" cx="474.13" cy="548.2" r="4"/>
  <circle class="cls-1" cx="497.01" cy="548.2" r="4"/>
  <circle class="cls-1" cx="519.9" cy="548.2" r="4"/>
  <circle class="cls-1" cx="542.79" cy="548.2" r="4"/>
  <circle class="cls-1" cx="565.67" cy="548.2" r="4"/>
  <circle class="cls-1" cx="588.56" cy="548.2" r="4"/>
  <circle class="cls-1" cx="611.44" cy="548.2" r="4"/>
  <circle class="cls-1" cx="634.33" cy="548.2" r="4"/>
  <circle class="cls-1" cx="657.21" cy="548.2" r="4"/>
  <circle class="cls-1" cx="680.1" cy="548.2" r="4"/>
  <circle class="cls-1" cx="702.99" cy="548.2" r="4"/>
  <circle class="cls-1" cx="725.87" cy="548.2" r="4"/>
  <circle class="cls-1" cx="748.76" cy="548.2" r="4"/>
  <circle class="cls-1" cx="771.64" cy="548.2" r="4"/>
  <circle class="cls-1" cx="794.53" cy="548.2" r="4"/>
  <circle class="cls-1" cx="817.41" cy="548.2" r="4"/>
  <circle class="cls-1" cx="840.3" cy="548.2" r="4"/>
  <circle class="cls-1" cx="863.19" cy="548.2" r="4"/>
  <circle class="cls-1" cx="886.07" cy="548.2" r="4"/>
  <circle class="cls-1" cx="908.96" cy="548.2" r="4"/>
  <circle class="cls-1" cx="931.84" cy="548.2" r="4"/>
  <circle class="cls-1" cx="954.73" cy="548.2" r="4"/>
  <circle class="cls-1" cx="977.62" cy="548.2" r="4"/>
  <circle class="cls-1" cx="1000.5" cy="548.2" r="4"/>
  <circle class="cls-1" cx="1023.39" cy="548.2" r="4"/>
  <circle class="cls-1" cx="1046.27" cy="548.2" r="4"/>
  <circle class="cls-1" cx="1069.16" cy="548.2" r="4"/>
  <circle class="cls-1" cx="1092.04" cy="548.2" r="4"/>
  <circle class="cls-1" cx="1114.93" cy="548.2" r="4"/>
  <circle class="cls-1" cx="1137.82" cy="548.2" r="4"/>
  <circle class="cls-1" cx="62.18" cy="525.31" r="3.55"/>
  <circle class="cls-1" cx="85.07" cy="525.31" r="3.55"/>
  <circle class="cls-1" cx="107.96" cy="525.31" r="3.55"/>
  <circle class="cls-1" cx="130.84" cy="525.31" r="3.55"/>
  <circle class="cls-1" cx="153.73" cy="525.31" r="3.55"/>
  <circle class="cls-1" cx="176.61" cy="525.31" r="3.55"/>
  <circle class="cls-1" cx="199.5" cy="525.31" r="3.55"/>
  <circle class="cls-1" cx="222.38" cy="525.31" r="3.55"/>
  <circle class="cls-1" cx="245.27" cy="525.31" r="3.55"/>
  <circle class="cls-1" cx="268.16" cy="525.31" r="3.55"/>
  <circle class="cls-1" cx="291.04" cy="525.31" r="3.55"/>
  <circle class="cls-1" cx="313.93" cy="525.31" r="3.55"/>
  <circle class="cls-1" cx="336.81" cy="525.31" r="3.55"/>
  <circle class="cls-1" cx="359.7" cy="525.31" r="3.55"/>
  <circle class="cls-1" cx="382.59" cy="525.31" r="3.55"/>
  <circle class="cls-1" cx="405.47" cy="525.31" r="3.55"/>
  <circle class="cls-1" cx="428.36" cy="525.31" r="3.55"/>
  <circle class="cls-1" cx="451.24" cy="525.31" r="3.55"/>
  <circle class="cls-1" cx="474.13" cy="525.31" r="3.55"/>
  <circle class="cls-1" cx="497.01" cy="525.31" r="3.55"/>
  <circle class="cls-1" cx="519.9" cy="525.31" r="3.55"/>
  <circle class="cls-1" cx="542.79" cy="525.31" r="3.55"/>
  <circle class="cls-1" cx="565.67" cy="525.31" r="3.55"/>
  <circle class="cls-1" cx="588.56" cy="525.31" r="3.55"/>
  <circle class="cls-1" cx="611.44" cy="525.31" r="3.55"/>
  <circle class="cls-1" cx="634.33" cy="525.31" r="3.55"/>
  <circle class="cls-1" cx="657.21" cy="525.31" r="3.55"/>
  <circle class="cls-1" cx="680.1" cy="525.31" r="3.55"/>
  <circle class="cls-1" cx="702.99" cy="525.31" r="3.55"/>
  <circle class="cls-1" cx="725.87" cy="525.31" r="3.55"/>
  <circle class="cls-1" cx="748.76" cy="525.31" r="3.55"/>
  <circle class="cls-1" cx="771.64" cy="525.31" r="3.55"/>
  <circle class="cls-1" cx="794.53" cy="525.31" r="3.55"/>
  <circle class="cls-1" cx="817.41" cy="525.31" r="3.55"/>
  <circle class="cls-1" cx="840.3" cy="525.31" r="3.55"/>
  <circle class="cls-1" cx="863.19" cy="525.31" r="3.55"/>
  <circle class="cls-1" cx="886.07" cy="525.31" r="3.55"/>
  <circle class="cls-1" cx="908.96" cy="525.31" r="3.55"/>
  <circle class="cls-1" cx="931.84" cy="525.31" r="3.55"/>
  <circle class="cls-1" cx="954.73" cy="525.31" r="3.55"/>
  <circle class="cls-1" cx="977.62" cy="525.31" r="3.55"/>
  <circle class="cls-1" cx="1000.5" cy="525.31" r="3.55"/>
  <circle class="cls-1" cx="1023.39" cy="525.31" r="3.55"/>
  <circle class="cls-1" cx="1046.27" cy="525.31" r="3.55"/>
  <circle class="cls-1" cx="1069.16" cy="525.31" r="3.55"/>
  <circle class="cls-1" cx="1092.04" cy="525.31" r="3.55"/>
  <circle class="cls-1" cx="1114.93" cy="525.31" r="3.55"/>
  <circle class="cls-1" cx="1137.82" cy="525.31" r="3.55"/>
  <circle class="cls-1" cx="62.18" cy="502.43" r="3.11"/>
  <circle class="cls-1" cx="85.07" cy="502.43" r="3.11"/>
  <circle class="cls-1" cx="107.96" cy="502.43" r="3.11"/>
  <circle class="cls-1" cx="130.84" cy="502.43" r="3.11"/>
  <circle class="cls-1" cx="153.73" cy="502.43" r="3.11"/>
  <circle class="cls-1" cx="176.61" cy="502.43" r="3.11"/>
  <circle class="cls-1" cx="199.5" cy="502.43" r="3.11"/>
  <circle class="cls-1" cx="222.38" cy="502.43" r="3.11"/>
  <circle class="cls-1" cx="245.27" cy="502.43" r="3.11"/>
  <circle class="cls-1" cx="268.16" cy="502.43" r="3.11"/>
  <circle class="cls-1" cx="291.04" cy="502.43" r="3.11"/>
  <circle class="cls-1" cx="313.93" cy="502.43" r="3.11"/>
  <circle class="cls-1" cx="336.81" cy="502.43" r="3.11"/>
  <circle class="cls-1" cx="359.7" cy="502.43" r="3.11"/>
  <circle class="cls-1" cx="382.59" cy="502.43" r="3.11"/>
  <circle class="cls-1" cx="405.47" cy="502.43" r="3.11"/>
  <circle class="cls-1" cx="428.36" cy="502.43" r="3.11"/>
  <circle class="cls-1" cx="451.24" cy="502.43" r="3.11"/>
  <circle class="cls-1" cx="474.13" cy="502.43" r="3.11"/>
  <circle class="cls-1" cx="497.01" cy="502.43" r="3.11"/>
  <circle class="cls-1" cx="519.9" cy="502.43" r="3.11"/>
  <circle class="cls-1" cx="542.79" cy="502.43" r="3.11"/>
  <circle class="cls-1" cx="565.67" cy="502.43" r="3.11"/>
  <circle class="cls-1" cx="588.56" cy="502.43" r="3.11"/>
  <circle class="cls-1" cx="611.44" cy="502.43" r="3.11"/>
  <circle class="cls-1" cx="634.33" cy="502.43" r="3.11"/>
  <circle class="cls-1" cx="657.21" cy="502.43" r="3.11"/>
  <circle class="cls-1" cx="680.1" cy="502.43" r="3.11"/>
  <circle class="cls-1" cx="702.99" cy="502.43" r="3.11"/>
  <circle class="cls-1" cx="725.87" cy="502.43" r="3.11"/>
  <circle class="cls-1" cx="748.76" cy="502.43" r="3.11"/>
  <circle class="cls-1" cx="771.64" cy="502.43" r="3.11"/>
  <circle class="cls-1" cx="794.53" cy="502.43" r="3.11"/>
  <circle class="cls-1" cx="817.41" cy="502.43" r="3.11"/>
  <circle class="cls-1" cx="840.3" cy="502.43" r="3.11"/>
  <circle class="cls-1" cx="863.19" cy="502.43" r="3.11"/>
  <circle class="cls-1" cx="886.07" cy="502.43" r="3.11"/>
  <circle class="cls-1" cx="908.96" cy="502.43" r="3.11"/>
  <circle class="cls-1" cx="931.84" cy="502.43" r="3.11"/>
  <circle class="cls-1" cx="954.73" cy="502.43" r="3.11"/>
  <circle class="cls-1" cx="977.62" cy="502.43" r="3.11"/>
  <circle class="cls-1" cx="1000.5" cy="502.43" r="3.11"/>
  <circle class="cls-1" cx="1023.39" cy="502.43" r="3.11"/>
  <circle class="cls-1" cx="1046.27" cy="502.43" r="3.11"/>
  <circle class="cls-1" cx="1069.16" cy="502.43" r="3.11"/>
  <circle class="cls-1" cx="1092.04" cy="502.43" r="3.11"/>
  <circle class="cls-1" cx="1114.93" cy="502.43" r="3.11"/>
  <circle class="cls-1" cx="1137.82" cy="502.43" r="3.11"/>
  <path class="cls-1" d="m62.18,476.88c1.47,0,2.67,1.19,2.67,2.67s-1.19,2.67-2.67,2.67-2.67-1.19-2.67-2.67,1.19-2.67,2.67-2.67Z"/>
  <path class="cls-1" d="m85.07,476.88c1.47,0,2.67,1.19,2.67,2.67s-1.19,2.67-2.67,2.67-2.67-1.19-2.67-2.67,1.19-2.67,2.67-2.67Z"/>
  <path class="cls-1" d="m107.96,476.88c1.47,0,2.67,1.19,2.67,2.67s-1.19,2.67-2.67,2.67-2.67-1.19-2.67-2.67,1.19-2.67,2.67-2.67Z"/>
  <path class="cls-1" d="m130.84,476.88c1.47,0,2.67,1.19,2.67,2.67s-1.19,2.67-2.67,2.67-2.67-1.19-2.67-2.67,1.19-2.67,2.67-2.67Z"/>
  <path class="cls-1" d="m153.73,476.88c1.47,0,2.67,1.19,2.67,2.67s-1.19,2.67-2.67,2.67-2.67-1.19-2.67-2.67,1.19-2.67,2.67-2.67Z"/>
  <path class="cls-1" d="m176.61,476.88c1.47,0,2.67,1.19,2.67,2.67s-1.19,2.67-2.67,2.67-2.67-1.19-2.67-2.67,1.19-2.67,2.67-2.67Z"/>
  <path class="cls-1" d="m199.5,476.88c1.47,0,2.67,1.19,2.67,2.67s-1.19,2.67-2.67,2.67-2.67-1.19-2.67-2.67,1.19-2.67,2.67-2.67Z"/>
  <path class="cls-1" d="m222.38,476.88c1.47,0,2.67,1.19,2.67,2.67s-1.19,2.67-2.67,2.67-2.67-1.19-2.67-2.67,1.19-2.67,2.67-2.67Z"/>
  <path class="cls-1" d="m245.27,476.88c1.47,0,2.67,1.19,2.67,2.67s-1.19,2.67-2.67,2.67-2.67-1.19-2.67-2.67,1.19-2.67,2.67-2.67Z"/>
  <path class="cls-1" d="m268.16,476.88c1.47,0,2.67,1.19,2.67,2.67s-1.19,2.67-2.67,2.67-2.67-1.19-2.67-2.67,1.19-2.67,2.67-2.67Z"/>
  <path class="cls-1" d="m291.04,476.88c1.47,0,2.67,1.19,2.67,2.67s-1.19,2.67-2.67,2.67-2.67-1.19-2.67-2.67,1.19-2.67,2.67-2.67Z"/>
  <path class="cls-1" d="m313.93,476.88c1.47,0,2.67,1.19,2.67,2.67s-1.19,2.67-2.67,2.67-2.67-1.19-2.67-2.67,1.19-2.67,2.67-2.67Z"/>
  <path class="cls-1" d="m336.81,476.88c1.47,0,2.67,1.19,2.67,2.67s-1.19,2.67-2.67,2.67-2.67-1.19-2.67-2.67,1.19-2.67,2.67-2.67Z"/>
  <path class="cls-1" d="m359.7,476.88c1.47,0,2.67,1.19,2.67,2.67s-1.19,2.67-2.67,2.67-2.67-1.19-2.67-2.67,1.19-2.67,2.67-2.67Z"/>
  <path class="cls-1" d="m382.59,476.88c1.47,0,2.67,1.19,2.67,2.67s-1.19,2.67-2.67,2.67-2.67-1.19-2.67-2.67,1.19-2.67,2.67-2.67Z"/>
  <path class="cls-1" d="m405.47,476.88c1.47,0,2.67,1.19,2.67,2.67s-1.19,2.67-2.67,2.67-2.67-1.19-2.67-2.67,1.19-2.67,2.67-2.67Z"/>
  <path class="cls-1" d="m428.36,476.88c1.47,0,2.67,1.19,2.67,2.67s-1.19,2.67-2.67,2.67-2.67-1.19-2.67-2.67,1.19-2.67,2.67-2.67Z"/>
  <path class="cls-1" d="m451.24,476.88c1.47,0,2.67,1.19,2.67,2.67s-1.19,2.67-2.67,2.67-2.67-1.19-2.67-2.67,1.19-2.67,2.67-2.67Z"/>
  <path class="cls-1" d="m474.13,476.88c1.47,0,2.67,1.19,2.67,2.67s-1.19,2.67-2.67,2.67-2.67-1.19-2.67-2.67,1.19-2.67,2.67-2.67Z"/>
  <path class="cls-1" d="m497.01,476.88c1.47,0,2.67,1.19,2.67,2.67s-1.19,2.67-2.67,2.67-2.67-1.19-2.67-2.67,1.19-2.67,2.67-2.67Z"/>
  <path class="cls-1" d="m519.9,476.88c1.47,0,2.67,1.19,2.67,2.67s-1.19,2.67-2.67,2.67-2.67-1.19-2.67-2.67,1.19-2.67,2.67-2.67Z"/>
  <path class="cls-1" d="m542.79,476.88c1.47,0,2.67,1.19,2.67,2.67s-1.19,2.67-2.67,2.67-2.67-1.19-2.67-2.67,1.19-2.67,2.67-2.67Z"/>
  <path class="cls-1" d="m565.67,476.88c1.47,0,2.67,1.19,2.67,2.67s-1.19,2.67-2.67,2.67-2.67-1.19-2.67-2.67,1.19-2.67,2.67-2.67Z"/>
  <path class="cls-1" d="m588.56,476.88c1.47,0,2.67,1.19,2.67,2.67s-1.19,2.67-2.67,2.67-2.67-1.19-2.67-2.67,1.19-2.67,2.67-2.67Z"/>
  <path class="cls-1" d="m611.44,476.88c1.47,0,2.67,1.19,2.67,2.67s-1.19,2.67-2.67,2.67-2.67-1.19-2.67-2.67,1.19-2.67,2.67-2.67Z"/>
  <path class="cls-1" d="m634.33,476.88c1.47,0,2.67,1.19,2.67,2.67s-1.19,2.67-2.67,2.67-2.67-1.19-2.67-2.67,1.19-2.67,2.67-2.67Z"/>
  <path class="cls-1" d="m657.21,476.88c1.47,0,2.67,1.19,2.67,2.67s-1.19,2.67-2.67,2.67-2.67-1.19-2.67-2.67,1.19-2.67,2.67-2.67Z"/>
  <path class="cls-1" d="m680.1,476.88c1.47,0,2.67,1.19,2.67,2.67s-1.19,2.67-2.67,2.67-2.67-1.19-2.67-2.67,1.19-2.67,2.67-2.67Z"/>
  <path class="cls-1" d="m702.99,476.88c1.47,0,2.67,1.19,2.67,2.67s-1.19,2.67-2.67,2.67-2.67-1.19-2.67-2.67,1.19-2.67,2.67-2.67Z"/>
  <path class="cls-1" d="m725.87,476.88c1.47,0,2.67,1.19,2.67,2.67s-1.19,2.67-2.67,2.67-2.67-1.19-2.67-2.67,1.19-2.67,2.67-2.67Z"/>
  <path class="cls-1" d="m748.76,476.88c1.47,0,2.67,1.19,2.67,2.67s-1.19,2.67-2.67,2.67-2.67-1.19-2.67-2.67,1.19-2.67,2.67-2.67Z"/>
  <path class="cls-1" d="m771.64,476.88c1.47,0,2.67,1.19,2.67,2.67s-1.19,2.67-2.67,2.67-2.67-1.19-2.67-2.67,1.19-2.67,2.67-2.67Z"/>
  <path class="cls-1" d="m794.53,476.88c1.47,0,2.67,1.19,2.67,2.67s-1.19,2.67-2.67,2.67-2.67-1.19-2.67-2.67,1.19-2.67,2.67-2.67Z"/>
  <path class="cls-1" d="m817.41,476.88c1.47,0,2.67,1.19,2.67,2.67s-1.19,2.67-2.67,2.67-2.67-1.19-2.67-2.67,1.19-2.67,2.67-2.67Z"/>
  <path class="cls-1" d="m840.3,476.88c1.47,0,2.67,1.19,2.67,2.67s-1.19,2.67-2.67,2.67-2.67-1.19-2.67-2.67,1.19-2.67,2.67-2.67Z"/>
  <path class="cls-1" d="m863.19,476.88c1.47,0,2.67,1.19,2.67,2.67s-1.19,2.67-2.67,2.67-2.67-1.19-2.67-2.67,1.19-2.67,2.67-2.67Z"/>
  <path class="cls-1" d="m886.07,476.88c1.47,0,2.67,1.19,2.67,2.67s-1.19,2.67-2.67,2.67-2.67-1.19-2.67-2.67,1.19-2.67,2.67-2.67Z"/>
  <path class="cls-1" d="m908.96,476.88c1.47,0,2.67,1.19,2.67,2.67s-1.19,2.67-2.67,2.67-2.67-1.19-2.67-2.67,1.19-2.67,2.67-2.67Z"/>
  <path class="cls-1" d="m931.84,476.88c1.47,0,2.67,1.19,2.67,2.67s-1.19,2.67-2.67,2.67-2.67-1.19-2.67-2.67,1.19-2.67,2.67-2.67Z"/>
  <path class="cls-1" d="m954.73,476.88c1.47,0,2.67,1.19,2.67,2.67s-1.19,2.67-2.67,2.67-2.67-1.19-2.67-2.67,1.19-2.67,2.67-2.67Z"/>
  <path class="cls-1" d="m977.62,476.88c1.47,0,2.67,1.19,2.67,2.67s-1.19,2.67-2.67,2.67-2.67-1.19-2.67-2.67,1.19-2.67,2.67-2.67Z"/>
  <path class="cls-1" d="m1000.5,476.88c1.47,0,2.67,1.19,2.67,2.67s-1.19,2.67-2.67,2.67-2.67-1.19-2.67-2.67,1.19-2.67,2.67-2.67Z"/>
  <path class="cls-1" d="m1023.39,476.88c1.47,0,2.67,1.19,2.67,2.67s-1.19,2.67-2.67,2.67-2.67-1.19-2.67-2.67,1.19-2.67,2.67-2.67Z"/>
  <path class="cls-1" d="m1046.27,476.88c1.47,0,2.67,1.19,2.67,2.67s-1.19,2.67-2.67,2.67-2.67-1.19-2.67-2.67,1.19-2.67,2.67-2.67Z"/>
  <path class="cls-1" d="m1069.16,476.88c1.47,0,2.67,1.19,2.67,2.67s-1.19,2.67-2.67,2.67-2.67-1.19-2.67-2.67,1.19-2.67,2.67-2.67Z"/>
  <path class="cls-1" d="m1092.04,476.88c1.47,0,2.67,1.19,2.67,2.67s-1.19,2.67-2.67,2.67-2.67-1.19-2.67-2.67,1.19-2.67,2.67-2.67Z"/>
  <path class="cls-1" d="m1114.93,476.88c1.47,0,2.67,1.19,2.67,2.67s-1.19,2.67-2.67,2.67-2.67-1.19-2.67-2.67,1.19-2.67,2.67-2.67Z"/>
  <path class="cls-1" d="m1137.82,476.88c1.47,0,2.67,1.19,2.67,2.67s-1.19,2.67-2.67,2.67-2.67-1.19-2.67-2.67,1.19-2.67,2.67-2.67Z"/>
  <path class="cls-1" d="m62.18,454.37c1.26,0,2.28,1.02,2.28,2.28s-1.02,2.28-2.28,2.28-2.28-1.02-2.28-2.28,1.02-2.28,2.28-2.28Z"/>
  <path class="cls-1" d="m85.07,454.37c1.26,0,2.28,1.02,2.28,2.28s-1.02,2.28-2.28,2.28-2.28-1.02-2.28-2.28,1.02-2.28,2.28-2.28Z"/>
  <path class="cls-1" d="m107.96,454.37c1.26,0,2.28,1.02,2.28,2.28s-1.02,2.28-2.28,2.28-2.28-1.02-2.28-2.28,1.02-2.28,2.28-2.28Z"/>
  <path class="cls-1" d="m130.84,454.37c1.26,0,2.28,1.02,2.28,2.28s-1.02,2.28-2.28,2.28-2.28-1.02-2.28-2.28,1.02-2.28,2.28-2.28Z"/>
  <path class="cls-1" d="m153.73,454.37c1.26,0,2.28,1.02,2.28,2.28s-1.02,2.28-2.28,2.28-2.28-1.02-2.28-2.28,1.02-2.28,2.28-2.28Z"/>
  <path class="cls-1" d="m176.61,454.37c1.26,0,2.28,1.02,2.28,2.28s-1.02,2.28-2.28,2.28-2.28-1.02-2.28-2.28,1.02-2.28,2.28-2.28Z"/>
  <path class="cls-1" d="m199.5,454.37c1.26,0,2.28,1.02,2.28,2.28s-1.02,2.28-2.28,2.28-2.28-1.02-2.28-2.28,1.02-2.28,2.28-2.28Z"/>
  <path class="cls-1" d="m222.38,454.37c1.26,0,2.28,1.02,2.28,2.28s-1.02,2.28-2.28,2.28-2.28-1.02-2.28-2.28,1.02-2.28,2.28-2.28Z"/>
  <path class="cls-1" d="m245.27,454.37c1.26,0,2.28,1.02,2.28,2.28s-1.02,2.28-2.28,2.28-2.28-1.02-2.28-2.28,1.02-2.28,2.28-2.28Z"/>
  <path class="cls-1" d="m268.16,454.37c1.26,0,2.28,1.02,2.28,2.28s-1.02,2.28-2.28,2.28-2.28-1.02-2.28-2.28,1.02-2.28,2.28-2.28Z"/>
  <path class="cls-1" d="m291.04,454.37c1.26,0,2.28,1.02,2.28,2.28s-1.02,2.28-2.28,2.28-2.28-1.02-2.28-2.28,1.02-2.28,2.28-2.28Z"/>
  <path class="cls-1" d="m313.93,454.37c1.26,0,2.28,1.02,2.28,2.28s-1.02,2.28-2.28,2.28-2.28-1.02-2.28-2.28,1.02-2.28,2.28-2.28Z"/>
  <path class="cls-1" d="m336.81,454.37c1.26,0,2.28,1.02,2.28,2.28s-1.02,2.28-2.28,2.28-2.28-1.02-2.28-2.28,1.02-2.28,2.28-2.28Z"/>
  <path class="cls-1" d="m359.7,454.37c1.26,0,2.28,1.02,2.28,2.28s-1.02,2.28-2.28,2.28-2.28-1.02-2.28-2.28,1.02-2.28,2.28-2.28Z"/>
  <path class="cls-1" d="m382.59,454.37c1.26,0,2.28,1.02,2.28,2.28s-1.02,2.28-2.28,2.28-2.28-1.02-2.28-2.28,1.02-2.28,2.28-2.28Z"/>
  <path class="cls-1" d="m405.47,454.37c1.26,0,2.28,1.02,2.28,2.28s-1.02,2.28-2.28,2.28-2.28-1.02-2.28-2.28,1.02-2.28,2.28-2.28Z"/>
  <path class="cls-1" d="m428.36,454.37c1.26,0,2.28,1.02,2.28,2.28s-1.02,2.28-2.28,2.28-2.28-1.02-2.28-2.28,1.02-2.28,2.28-2.28Z"/>
  <path class="cls-1" d="m451.24,454.37c1.26,0,2.28,1.02,2.28,2.28s-1.02,2.28-2.28,2.28-2.28-1.02-2.28-2.28,1.02-2.28,2.28-2.28Z"/>
  <path class="cls-1" d="m474.13,454.37c1.26,0,2.28,1.02,2.28,2.28s-1.02,2.28-2.28,2.28-2.28-1.02-2.28-2.28,1.02-2.28,2.28-2.28Z"/>
  <path class="cls-1" d="m497.01,454.37c1.26,0,2.28,1.02,2.28,2.28s-1.02,2.28-2.28,2.28-2.28-1.02-2.28-2.28,1.02-2.28,2.28-2.28Z"/>
  <path class="cls-1" d="m519.9,454.37c1.26,0,2.28,1.02,2.28,2.28s-1.02,2.28-2.28,2.28-2.28-1.02-2.28-2.28,1.02-2.28,2.28-2.28Z"/>
  <path class="cls-1" d="m542.79,454.37c1.26,0,2.28,1.02,2.28,2.28s-1.02,2.28-2.28,2.28-2.28-1.02-2.28-2.28,1.02-2.28,2.28-2.28Z"/>
  <path class="cls-1" d="m565.67,454.37c1.26,0,2.28,1.02,2.28,2.28s-1.02,2.28-2.28,2.28-2.28-1.02-2.28-2.28,1.02-2.28,2.28-2.28Z"/>
  <path class="cls-1" d="m588.56,454.37c1.26,0,2.28,1.02,2.28,2.28s-1.02,2.28-2.28,2.28-2.28-1.02-2.28-2.28,1.02-2.28,2.28-2.28Z"/>
  <path class="cls-1" d="m611.44,454.37c1.26,0,2.28,1.02,2.28,2.28s-1.02,2.28-2.28,2.28-2.28-1.02-2.28-2.28,1.02-2.28,2.28-2.28Z"/>
  <path class="cls-1" d="m634.33,454.37c1.26,0,2.28,1.02,2.28,2.28s-1.02,2.28-2.28,2.28-2.28-1.02-2.28-2.28,1.02-2.28,2.28-2.28Z"/>
  <path class="cls-1" d="m657.21,454.37c1.26,0,2.28,1.02,2.28,2.28s-1.02,2.28-2.28,2.28-2.28-1.02-2.28-2.28,1.02-2.28,2.28-2.28Z"/>
  <path class="cls-1" d="m680.1,454.37c1.26,0,2.28,1.02,2.28,2.28s-1.02,2.28-2.28,2.28-2.28-1.02-2.28-2.28,1.02-2.28,2.28-2.28Z"/>
  <path class="cls-1" d="m702.99,454.37c1.26,0,2.28,1.02,2.28,2.28s-1.02,2.28-2.28,2.28-2.28-1.02-2.28-2.28,1.02-2.28,2.28-2.28Z"/>
  <path class="cls-1" d="m725.87,454.37c1.26,0,2.28,1.02,2.28,2.28s-1.02,2.28-2.28,2.28-2.28-1.02-2.28-2.28,1.02-2.28,2.28-2.28Z"/>
  <path class="cls-1" d="m748.76,454.37c1.26,0,2.28,1.02,2.28,2.28s-1.02,2.28-2.28,2.28-2.28-1.02-2.28-2.28,1.02-2.28,2.28-2.28Z"/>
  <path class="cls-1" d="m771.64,454.37c1.26,0,2.28,1.02,2.28,2.28s-1.02,2.28-2.28,2.28-2.28-1.02-2.28-2.28,1.02-2.28,2.28-2.28Z"/>
  <path class="cls-1" d="m794.53,454.37c1.26,0,2.28,1.02,2.28,2.28s-1.02,2.28-2.28,2.28-2.28-1.02-2.28-2.28,1.02-2.28,2.28-2.28Z"/>
  <path class="cls-1" d="m817.41,454.37c1.26,0,2.28,1.02,2.28,2.28s-1.02,2.28-2.28,2.28-2.28-1.02-2.28-2.28,1.02-2.28,2.28-2.28Z"/>
  <path class="cls-1" d="m840.3,454.37c1.26,0,2.28,1.02,2.28,2.28s-1.02,2.28-2.28,2.28-2.28-1.02-2.28-2.28,1.02-2.28,2.28-2.28Z"/>
  <path class="cls-1" d="m863.19,454.37c1.26,0,2.28,1.02,2.28,2.28s-1.02,2.28-2.28,2.28-2.28-1.02-2.28-2.28,1.02-2.28,2.28-2.28Z"/>
  <path class="cls-1" d="m886.07,454.37c1.26,0,2.28,1.02,2.28,2.28s-1.02,2.28-2.28,2.28-2.28-1.02-2.28-2.28,1.02-2.28,2.28-2.28Z"/>
  <path class="cls-1" d="m908.96,454.37c1.26,0,2.28,1.02,2.28,2.28s-1.02,2.28-2.28,2.28-2.28-1.02-2.28-2.28,1.02-2.28,2.28-2.28Z"/>
  <path class="cls-1" d="m931.84,454.37c1.26,0,2.28,1.02,2.28,2.28s-1.02,2.28-2.28,2.28-2.28-1.02-2.28-2.28,1.02-2.28,2.28-2.28Z"/>
  <path class="cls-1" d="m954.73,454.37c1.26,0,2.28,1.02,2.28,2.28s-1.02,2.28-2.28,2.28-2.28-1.02-2.28-2.28,1.02-2.28,2.28-2.28Z"/>
  <path class="cls-1" d="m977.62,454.37c1.26,0,2.28,1.02,2.28,2.28s-1.02,2.28-2.28,2.28-2.28-1.02-2.28-2.28,1.02-2.28,2.28-2.28Z"/>
  <path class="cls-1" d="m1000.5,454.37c1.26,0,2.28,1.02,2.28,2.28s-1.02,2.28-2.28,2.28-2.28-1.02-2.28-2.28,1.02-2.28,2.28-2.28Z"/>
  <path class="cls-1" d="m1023.39,454.37c1.26,0,2.28,1.02,2.28,2.28s-1.02,2.28-2.28,2.28-2.28-1.02-2.28-2.28,1.02-2.28,2.28-2.28Z"/>
  <path class="cls-1" d="m1046.27,454.37c1.26,0,2.28,1.02,2.28,2.28s-1.02,2.28-2.28,2.28-2.28-1.02-2.28-2.28,1.02-2.28,2.28-2.28Z"/>
  <path class="cls-1" d="m1069.16,454.37c1.26,0,2.28,1.02,2.28,2.28s-1.02,2.28-2.28,2.28-2.28-1.02-2.28-2.28,1.02-2.28,2.28-2.28Z"/>
  <path class="cls-1" d="m1092.04,454.37c1.26,0,2.28,1.02,2.28,2.28s-1.02,2.28-2.28,2.28-2.28-1.02-2.28-2.28,1.02-2.28,2.28-2.28Z"/>
  <path class="cls-1" d="m1114.93,454.37c1.26,0,2.28,1.02,2.28,2.28s-1.02,2.28-2.28,2.28-2.28-1.02-2.28-2.28,1.02-2.28,2.28-2.28Z"/>
  <path class="cls-1" d="m1137.82,454.37c1.26,0,2.28,1.02,2.28,2.28s-1.02,2.28-2.28,2.28-2.28-1.02-2.28-2.28,1.02-2.28,2.28-2.28Z"/>
  <circle class="cls-1" cx="62.18" cy="433.77" r="1.9"/>
  <circle class="cls-1" cx="85.07" cy="433.77" r="1.9"/>
  <circle class="cls-1" cx="107.96" cy="433.77" r="1.9"/>
  <circle class="cls-1" cx="130.84" cy="433.77" r="1.9"/>
  <circle class="cls-1" cx="153.73" cy="433.77" r="1.9"/>
  <circle class="cls-1" cx="176.61" cy="433.77" r="1.9"/>
  <circle class="cls-1" cx="199.5" cy="433.77" r="1.9"/>
  <circle class="cls-1" cx="222.38" cy="433.77" r="1.9"/>
  <circle class="cls-1" cx="245.27" cy="433.77" r="1.9"/>
  <circle class="cls-1" cx="268.16" cy="433.77" r="1.9"/>
  <circle class="cls-1" cx="291.04" cy="433.77" r="1.9"/>
  <circle class="cls-1" cx="313.93" cy="433.77" r="1.9"/>
  <circle class="cls-1" cx="336.81" cy="433.77" r="1.9"/>
  <circle class="cls-1" cx="359.7" cy="433.77" r="1.9"/>
  <circle class="cls-1" cx="382.59" cy="433.77" r="1.9"/>
  <circle class="cls-1" cx="405.47" cy="433.77" r="1.9"/>
  <circle class="cls-1" cx="428.36" cy="433.77" r="1.9"/>
  <circle class="cls-1" cx="451.24" cy="433.77" r="1.9"/>
  <circle class="cls-1" cx="474.13" cy="433.77" r="1.9"/>
  <circle class="cls-1" cx="497.01" cy="433.77" r="1.9"/>
  <circle class="cls-1" cx="519.9" cy="433.77" r="1.9"/>
  <circle class="cls-1" cx="542.79" cy="433.77" r="1.9"/>
  <circle class="cls-1" cx="565.67" cy="433.77" r="1.9"/>
  <circle class="cls-1" cx="588.56" cy="433.77" r="1.9"/>
  <circle class="cls-1" cx="611.44" cy="433.77" r="1.9"/>
  <circle class="cls-1" cx="634.33" cy="433.77" r="1.9"/>
  <circle class="cls-1" cx="657.21" cy="433.77" r="1.9"/>
  <circle class="cls-1" cx="680.1" cy="433.77" r="1.9"/>
  <circle class="cls-1" cx="702.99" cy="433.77" r="1.9"/>
  <circle class="cls-1" cx="725.87" cy="433.77" r="1.9"/>
  <circle class="cls-1" cx="748.76" cy="433.77" r="1.9"/>
  <circle class="cls-1" cx="771.64" cy="433.77" r="1.9"/>
  <circle class="cls-1" cx="794.53" cy="433.77" r="1.9"/>
  <circle class="cls-1" cx="817.41" cy="433.77" r="1.9"/>
  <circle class="cls-1" cx="840.3" cy="433.77" r="1.9"/>
  <circle class="cls-1" cx="863.19" cy="433.77" r="1.9"/>
  <circle class="cls-1" cx="886.07" cy="433.77" r="1.9"/>
  <circle class="cls-1" cx="908.96" cy="433.77" r="1.9"/>
  <circle class="cls-1" cx="931.84" cy="433.77" r="1.9"/>
  <circle class="cls-1" cx="954.73" cy="433.77" r="1.9"/>
  <circle class="cls-1" cx="977.62" cy="433.77" r="1.9"/>
  <circle class="cls-1" cx="1000.5" cy="433.77" r="1.9"/>
  <circle class="cls-1" cx="1023.39" cy="433.77" r="1.9"/>
  <circle class="cls-1" cx="1046.27" cy="433.77" r="1.9"/>
  <circle class="cls-1" cx="1069.16" cy="433.77" r="1.9"/>
  <circle class="cls-1" cx="1092.04" cy="433.77" r="1.9"/>
  <circle class="cls-1" cx="1114.93" cy="433.77" r="1.9"/>
  <circle class="cls-1" cx="1137.82" cy="433.77" r="1.9"/>
  <path class="cls-1" d="m62.18,409.36c.84,0,1.52.68,1.52,1.52s-.68,1.52-1.52,1.52-1.52-.68-1.52-1.52.68-1.52,1.52-1.52Z"/>
  <path class="cls-1" d="m85.07,409.36c.84,0,1.52.68,1.52,1.52s-.68,1.52-1.52,1.52-1.52-.68-1.52-1.52.68-1.52,1.52-1.52Z"/>
  <path class="cls-1" d="m107.96,409.36c.84,0,1.52.68,1.52,1.52s-.68,1.52-1.52,1.52-1.52-.68-1.52-1.52.68-1.52,1.52-1.52Z"/>
  <path class="cls-1" d="m130.84,409.36c.84,0,1.52.68,1.52,1.52s-.68,1.52-1.52,1.52-1.52-.68-1.52-1.52.68-1.52,1.52-1.52Z"/>
  <path class="cls-1" d="m153.73,409.36c.84,0,1.52.68,1.52,1.52s-.68,1.52-1.52,1.52-1.52-.68-1.52-1.52.68-1.52,1.52-1.52Z"/>
  <path class="cls-1" d="m176.61,409.36c.84,0,1.52.68,1.52,1.52s-.68,1.52-1.52,1.52-1.52-.68-1.52-1.52.68-1.52,1.52-1.52Z"/>
  <path class="cls-1" d="m199.5,409.36c.84,0,1.52.68,1.52,1.52s-.68,1.52-1.52,1.52-1.52-.68-1.52-1.52.68-1.52,1.52-1.52Z"/>
  <path class="cls-1" d="m222.38,409.36c.84,0,1.52.68,1.52,1.52s-.68,1.52-1.52,1.52-1.52-.68-1.52-1.52.68-1.52,1.52-1.52Z"/>
  <path class="cls-1" d="m245.27,409.36c.84,0,1.52.68,1.52,1.52s-.68,1.52-1.52,1.52-1.52-.68-1.52-1.52.68-1.52,1.52-1.52Z"/>
  <path class="cls-1" d="m268.16,409.36c.84,0,1.52.68,1.52,1.52s-.68,1.52-1.52,1.52-1.52-.68-1.52-1.52.68-1.52,1.52-1.52Z"/>
  <path class="cls-1" d="m291.04,409.36c.84,0,1.52.68,1.52,1.52s-.68,1.52-1.52,1.52-1.52-.68-1.52-1.52.68-1.52,1.52-1.52Z"/>
  <path class="cls-1" d="m313.93,409.36c.84,0,1.52.68,1.52,1.52s-.68,1.52-1.52,1.52-1.52-.68-1.52-1.52.68-1.52,1.52-1.52Z"/>
  <path class="cls-1" d="m336.81,409.36c.84,0,1.52.68,1.52,1.52s-.68,1.52-1.52,1.52-1.52-.68-1.52-1.52.68-1.52,1.52-1.52Z"/>
  <path class="cls-1" d="m359.7,409.36c.84,0,1.52.68,1.52,1.52s-.68,1.52-1.52,1.52-1.52-.68-1.52-1.52.68-1.52,1.52-1.52Z"/>
  <path class="cls-1" d="m382.59,409.36c.84,0,1.52.68,1.52,1.52s-.68,1.52-1.52,1.52-1.52-.68-1.52-1.52.68-1.52,1.52-1.52Z"/>
  <path class="cls-1" d="m405.47,409.36c.84,0,1.52.68,1.52,1.52s-.68,1.52-1.52,1.52-1.52-.68-1.52-1.52.68-1.52,1.52-1.52Z"/>
  <path class="cls-1" d="m428.36,409.36c.84,0,1.52.68,1.52,1.52s-.68,1.52-1.52,1.52-1.52-.68-1.52-1.52.68-1.52,1.52-1.52Z"/>
  <path class="cls-1" d="m451.24,409.36c.84,0,1.52.68,1.52,1.52s-.68,1.52-1.52,1.52-1.52-.68-1.52-1.52.68-1.52,1.52-1.52Z"/>
  <path class="cls-1" d="m474.13,409.36c.84,0,1.52.68,1.52,1.52s-.68,1.52-1.52,1.52-1.52-.68-1.52-1.52.68-1.52,1.52-1.52Z"/>
  <path class="cls-1" d="m497.01,409.36c.84,0,1.52.68,1.52,1.52s-.68,1.52-1.52,1.52-1.52-.68-1.52-1.52.68-1.52,1.52-1.52Z"/>
  <path class="cls-1" d="m519.9,409.36c.84,0,1.52.68,1.52,1.52s-.68,1.52-1.52,1.52-1.52-.68-1.52-1.52.68-1.52,1.52-1.52Z"/>
  <path class="cls-1" d="m542.79,409.36c.84,0,1.52.68,1.52,1.52s-.68,1.52-1.52,1.52-1.52-.68-1.52-1.52.68-1.52,1.52-1.52Z"/>
  <path class="cls-1" d="m565.67,409.36c.84,0,1.52.68,1.52,1.52s-.68,1.52-1.52,1.52-1.52-.68-1.52-1.52.68-1.52,1.52-1.52Z"/>
  <path class="cls-1" d="m588.56,409.36c.84,0,1.52.68,1.52,1.52s-.68,1.52-1.52,1.52-1.52-.68-1.52-1.52.68-1.52,1.52-1.52Z"/>
  <path class="cls-1" d="m611.44,409.36c.84,0,1.52.68,1.52,1.52s-.68,1.52-1.52,1.52-1.52-.68-1.52-1.52.68-1.52,1.52-1.52Z"/>
  <path class="cls-1" d="m634.33,409.36c.84,0,1.52.68,1.52,1.52s-.68,1.52-1.52,1.52-1.52-.68-1.52-1.52.68-1.52,1.52-1.52Z"/>
  <path class="cls-1" d="m657.21,409.36c.84,0,1.52.68,1.52,1.52s-.68,1.52-1.52,1.52-1.52-.68-1.52-1.52.68-1.52,1.52-1.52Z"/>
  <path class="cls-1" d="m680.1,409.36c.84,0,1.52.68,1.52,1.52s-.68,1.52-1.52,1.52-1.52-.68-1.52-1.52.68-1.52,1.52-1.52Z"/>
  <path class="cls-1" d="m702.99,409.36c.84,0,1.52.68,1.52,1.52s-.68,1.52-1.52,1.52-1.52-.68-1.52-1.52.68-1.52,1.52-1.52Z"/>
  <path class="cls-1" d="m725.87,409.36c.84,0,1.52.68,1.52,1.52s-.68,1.52-1.52,1.52-1.52-.68-1.52-1.52.68-1.52,1.52-1.52Z"/>
  <path class="cls-1" d="m748.76,409.36c.84,0,1.52.68,1.52,1.52s-.68,1.52-1.52,1.52-1.52-.68-1.52-1.52.68-1.52,1.52-1.52Z"/>
  <path class="cls-1" d="m771.64,409.36c.84,0,1.52.68,1.52,1.52s-.68,1.52-1.52,1.52-1.52-.68-1.52-1.52.68-1.52,1.52-1.52Z"/>
  <path class="cls-1" d="m794.53,409.36c.84,0,1.52.68,1.52,1.52s-.68,1.52-1.52,1.52-1.52-.68-1.52-1.52.68-1.52,1.52-1.52Z"/>
  <path class="cls-1" d="m817.41,409.36c.84,0,1.52.68,1.52,1.52s-.68,1.52-1.52,1.52-1.52-.68-1.52-1.52.68-1.52,1.52-1.52Z"/>
  <path class="cls-1" d="m840.3,409.36c.84,0,1.52.68,1.52,1.52s-.68,1.52-1.52,1.52-1.52-.68-1.52-1.52.68-1.52,1.52-1.52Z"/>
  <path class="cls-1" d="m863.19,409.36c.84,0,1.52.68,1.52,1.52s-.68,1.52-1.52,1.52-1.52-.68-1.52-1.52.68-1.52,1.52-1.52Z"/>
  <path class="cls-1" d="m886.07,409.36c.84,0,1.52.68,1.52,1.52s-.68,1.52-1.52,1.52-1.52-.68-1.52-1.52.68-1.52,1.52-1.52Z"/>
  <path class="cls-1" d="m908.96,409.36c.84,0,1.52.68,1.52,1.52s-.68,1.52-1.52,1.52-1.52-.68-1.52-1.52.68-1.52,1.52-1.52Z"/>
  <path class="cls-1" d="m931.84,409.36c.84,0,1.52.68,1.52,1.52s-.68,1.52-1.52,1.52-1.52-.68-1.52-1.52.68-1.52,1.52-1.52Z"/>
  <path class="cls-1" d="m954.73,409.36c.84,0,1.52.68,1.52,1.52s-.68,1.52-1.52,1.52-1.52-.68-1.52-1.52.68-1.52,1.52-1.52Z"/>
  <path class="cls-1" d="m977.62,409.36c.84,0,1.52.68,1.52,1.52s-.68,1.52-1.52,1.52-1.52-.68-1.52-1.52.68-1.52,1.52-1.52Z"/>
  <path class="cls-1" d="m1000.5,409.36c.84,0,1.52.68,1.52,1.52s-.68,1.52-1.52,1.52-1.52-.68-1.52-1.52.68-1.52,1.52-1.52Z"/>
  <path class="cls-1" d="m1023.39,409.36c.84,0,1.52.68,1.52,1.52s-.68,1.52-1.52,1.52-1.52-.68-1.52-1.52.68-1.52,1.52-1.52Z"/>
  <path class="cls-1" d="m1046.27,409.36c.84,0,1.52.68,1.52,1.52s-.68,1.52-1.52,1.52-1.52-.68-1.52-1.52.68-1.52,1.52-1.52Z"/>
  <path class="cls-1" d="m1069.16,409.36c.84,0,1.52.68,1.52,1.52s-.68,1.52-1.52,1.52-1.52-.68-1.52-1.52.68-1.52,1.52-1.52Z"/>
  <path class="cls-1" d="m1092.04,409.36c.84,0,1.52.68,1.52,1.52s-.68,1.52-1.52,1.52-1.52-.68-1.52-1.52.68-1.52,1.52-1.52Z"/>
  <path class="cls-1" d="m1114.93,409.36c.84,0,1.52.68,1.52,1.52s-.68,1.52-1.52,1.52-1.52-.68-1.52-1.52.68-1.52,1.52-1.52Z"/>
  <path class="cls-1" d="m1137.82,409.36c.84,0,1.52.68,1.52,1.52s-.68,1.52-1.52,1.52-1.52-.68-1.52-1.52.68-1.52,1.52-1.52Z"/>
  <circle class="cls-1" cx="62.18" cy="388" r="1.21"/>
  <circle class="cls-1" cx="85.07" cy="388" r="1.21"/>
  <circle class="cls-1" cx="107.96" cy="388" r="1.21"/>
  <circle class="cls-1" cx="130.84" cy="388" r="1.21"/>
  <circle class="cls-1" cx="153.73" cy="388" r="1.21"/>
  <circle class="cls-1" cx="176.61" cy="388" r="1.21"/>
  <circle class="cls-1" cx="199.5" cy="388" r="1.21"/>
  <circle class="cls-1" cx="222.38" cy="388" r="1.21"/>
  <circle class="cls-1" cx="245.27" cy="388" r="1.21"/>
  <circle class="cls-1" cx="268.16" cy="388" r="1.21"/>
  <circle class="cls-1" cx="291.04" cy="388" r="1.21"/>
  <circle class="cls-1" cx="313.93" cy="388" r="1.21"/>
  <circle class="cls-1" cx="336.81" cy="388" r="1.21"/>
  <circle class="cls-1" cx="359.7" cy="388" r="1.21"/>
  <circle class="cls-1" cx="382.59" cy="388" r="1.21"/>
  <circle class="cls-1" cx="405.47" cy="388" r="1.21"/>
  <circle class="cls-1" cx="428.36" cy="388" r="1.21"/>
  <circle class="cls-1" cx="451.24" cy="388" r="1.21"/>
  <circle class="cls-1" cx="474.13" cy="388" r="1.21"/>
  <circle class="cls-1" cx="497.01" cy="388" r="1.21"/>
  <circle class="cls-1" cx="519.9" cy="388" r="1.21"/>
  <circle class="cls-1" cx="542.79" cy="388" r="1.21"/>
  <circle class="cls-1" cx="565.67" cy="388" r="1.21"/>
  <circle class="cls-1" cx="588.56" cy="388" r="1.21"/>
  <circle class="cls-1" cx="611.44" cy="388" r="1.21"/>
  <circle class="cls-1" cx="634.33" cy="388" r="1.21"/>
  <circle class="cls-1" cx="657.21" cy="388" r="1.21"/>
  <circle class="cls-1" cx="680.1" cy="388" r="1.21"/>
  <circle class="cls-1" cx="702.99" cy="388" r="1.21"/>
  <circle class="cls-1" cx="725.87" cy="388" r="1.21"/>
  <circle class="cls-1" cx="748.76" cy="388" r="1.21"/>
  <circle class="cls-1" cx="771.64" cy="388" r="1.21"/>
  <circle class="cls-1" cx="794.53" cy="388" r="1.21"/>
  <circle class="cls-1" cx="817.41" cy="388" r="1.21"/>
  <circle class="cls-1" cx="840.3" cy="388" r="1.21"/>
  <circle class="cls-1" cx="863.19" cy="388" r="1.21"/>
  <circle class="cls-1" cx="886.07" cy="388" r="1.21"/>
  <circle class="cls-1" cx="908.96" cy="388" r="1.21"/>
  <circle class="cls-1" cx="931.84" cy="388" r="1.21"/>
  <circle class="cls-1" cx="954.73" cy="388" r="1.21"/>
  <circle class="cls-1" cx="977.62" cy="388" r="1.21"/>
  <circle class="cls-1" cx="1000.5" cy="388" r="1.21"/>
  <circle class="cls-1" cx="1023.39" cy="388" r="1.21"/>
  <circle class="cls-1" cx="1046.27" cy="388" r="1.21"/>
  <circle class="cls-1" cx="1069.16" cy="388" r="1.21"/>
  <circle class="cls-1" cx="1092.04" cy="388" r="1.21"/>
  <circle class="cls-1" cx="1114.93" cy="388" r="1.21"/>
  <circle class="cls-1" cx="1137.82" cy="388" r="1.21"/>
  <path class="cls-1" d="m62.18,364.23c.49,0,.89.4.89.89s-.4.89-.89.89-.89-.4-.89-.89.4-.89.89-.89Z"/>
  <path class="cls-1" d="m85.07,364.23c.49,0,.89.4.89.89s-.4.89-.89.89-.89-.4-.89-.89.4-.89.89-.89Z"/>
  <path class="cls-1" d="m107.96,364.23c.49,0,.89.4.89.89s-.4.89-.89.89-.89-.4-.89-.89.4-.89.89-.89Z"/>
  <path class="cls-1" d="m130.84,364.23c.49,0,.89.4.89.89s-.4.89-.89.89-.89-.4-.89-.89.4-.89.89-.89Z"/>
  <path class="cls-1" d="m153.73,364.23c.49,0,.89.4.89.89s-.4.89-.89.89-.89-.4-.89-.89.4-.89.89-.89Z"/>
  <path class="cls-1" d="m176.61,364.23c.49,0,.89.4.89.89s-.4.89-.89.89-.89-.4-.89-.89.4-.89.89-.89Z"/>
  <path class="cls-1" d="m199.5,364.23c.49,0,.89.4.89.89s-.4.89-.89.89-.89-.4-.89-.89.4-.89.89-.89Z"/>
  <path class="cls-1" d="m222.38,364.23c.49,0,.89.4.89.89s-.4.89-.89.89-.89-.4-.89-.89.4-.89.89-.89Z"/>
  <path class="cls-1" d="m245.27,364.23c.49,0,.89.4.89.89s-.4.89-.89.89-.89-.4-.89-.89.4-.89.89-.89Z"/>
  <path class="cls-1" d="m268.16,364.23c.49,0,.89.4.89.89s-.4.89-.89.89-.89-.4-.89-.89.4-.89.89-.89Z"/>
  <path class="cls-1" d="m291.04,364.23c.49,0,.89.4.89.89s-.4.89-.89.89-.89-.4-.89-.89.4-.89.89-.89Z"/>
  <path class="cls-1" d="m313.93,364.23c.49,0,.89.4.89.89s-.4.89-.89.89-.89-.4-.89-.89.4-.89.89-.89Z"/>
  <path class="cls-1" d="m336.81,364.23c.49,0,.89.4.89.89s-.4.89-.89.89-.89-.4-.89-.89.4-.89.89-.89Z"/>
  <path class="cls-1" d="m359.7,364.23c.49,0,.89.4.89.89s-.4.89-.89.89-.89-.4-.89-.89.4-.89.89-.89Z"/>
  <path class="cls-1" d="m382.59,364.23c.49,0,.89.4.89.89s-.4.89-.89.89-.89-.4-.89-.89.4-.89.89-.89Z"/>
  <path class="cls-1" d="m405.47,364.23c.49,0,.89.4.89.89s-.4.89-.89.89-.89-.4-.89-.89.4-.89.89-.89Z"/>
  <path class="cls-1" d="m428.36,364.23c.49,0,.89.4.89.89s-.4.89-.89.89-.89-.4-.89-.89.4-.89.89-.89Z"/>
  <path class="cls-1" d="m451.24,364.23c.49,0,.89.4.89.89s-.4.89-.89.89-.89-.4-.89-.89.4-.89.89-.89Z"/>
  <path class="cls-1" d="m474.13,364.23c.49,0,.89.4.89.89s-.4.89-.89.89-.89-.4-.89-.89.4-.89.89-.89Z"/>
  <path class="cls-1" d="m497.01,364.23c.49,0,.89.4.89.89s-.4.89-.89.89-.89-.4-.89-.89.4-.89.89-.89Z"/>
  <path class="cls-1" d="m519.9,364.23c.49,0,.89.4.89.89s-.4.89-.89.89-.89-.4-.89-.89.4-.89.89-.89Z"/>
  <path class="cls-1" d="m542.79,364.23c.49,0,.89.4.89.89s-.4.89-.89.89-.89-.4-.89-.89.4-.89.89-.89Z"/>
  <path class="cls-1" d="m565.67,364.23c.49,0,.89.4.89.89s-.4.89-.89.89-.89-.4-.89-.89.4-.89.89-.89Z"/>
  <path class="cls-1" d="m588.56,364.23c.49,0,.89.4.89.89s-.4.89-.89.89-.89-.4-.89-.89.4-.89.89-.89Z"/>
  <path class="cls-1" d="m611.44,364.23c.49,0,.89.4.89.89s-.4.89-.89.89-.89-.4-.89-.89.4-.89.89-.89Z"/>
  <path class="cls-1" d="m634.33,364.23c.49,0,.89.4.89.89s-.4.89-.89.89-.89-.4-.89-.89.4-.89.89-.89Z"/>
  <path class="cls-1" d="m657.21,364.23c.49,0,.89.4.89.89s-.4.89-.89.89-.89-.4-.89-.89.4-.89.89-.89Z"/>
  <path class="cls-1" d="m680.1,364.23c.49,0,.89.4.89.89s-.4.89-.89.89-.89-.4-.89-.89.4-.89.89-.89Z"/>
  <path class="cls-1" d="m702.99,364.23c.49,0,.89.4.89.89s-.4.89-.89.89-.89-.4-.89-.89.4-.89.89-.89Z"/>
  <path class="cls-1" d="m725.87,364.23c.49,0,.89.4.89.89s-.4.89-.89.89-.89-.4-.89-.89.4-.89.89-.89Z"/>
  <path class="cls-1" d="m748.76,364.23c.49,0,.89.4.89.89s-.4.89-.89.89-.89-.4-.89-.89.4-.89.89-.89Z"/>
  <path class="cls-1" d="m771.64,364.23c.49,0,.89.4.89.89s-.4.89-.89.89-.89-.4-.89-.89.4-.89.89-.89Z"/>
  <path class="cls-1" d="m794.53,364.23c.49,0,.89.4.89.89s-.4.89-.89.89-.89-.4-.89-.89.4-.89.89-.89Z"/>
  <path class="cls-1" d="m817.41,364.23c.49,0,.89.4.89.89s-.4.89-.89.89-.89-.4-.89-.89.4-.89.89-.89Z"/>
  <path class="cls-1" d="m840.3,364.23c.49,0,.89.4.89.89s-.4.89-.89.89-.89-.4-.89-.89.4-.89.89-.89Z"/>
  <path class="cls-1" d="m863.19,364.23c.49,0,.89.4.89.89s-.4.89-.89.89-.89-.4-.89-.89.4-.89.89-.89Z"/>
  <path class="cls-1" d="m886.07,364.23c.49,0,.89.4.89.89s-.4.89-.89.89-.89-.4-.89-.89.4-.89.89-.89Z"/>
  <path class="cls-1" d="m908.96,364.23c.49,0,.89.4.89.89s-.4.89-.89.89-.89-.4-.89-.89.4-.89.89-.89Z"/>
  <path class="cls-1" d="m931.84,364.23c.49,0,.89.4.89.89s-.4.89-.89.89-.89-.4-.89-.89.4-.89.89-.89Z"/>
  <path class="cls-1" d="m954.73,364.23c.49,0,.89.4.89.89s-.4.89-.89.89-.89-.4-.89-.89.4-.89.89-.89Z"/>
  <path class="cls-1" d="m977.62,364.23c.49,0,.89.4.89.89s-.4.89-.89.89-.89-.4-.89-.89.4-.89.89-.89Z"/>
  <path class="cls-1" d="m1000.5,364.23c.49,0,.89.4.89.89s-.4.89-.89.89-.89-.4-.89-.89.4-.89.89-.89Z"/>
  <path class="cls-1" d="m1023.39,364.23c.49,0,.89.4.89.89s-.4.89-.89.89-.89-.4-.89-.89.4-.89.89-.89Z"/>
  <path class="cls-1" d="m1046.27,364.23c.49,0,.89.4.89.89s-.4.89-.89.89-.89-.4-.89-.89.4-.89.89-.89Z"/>
  <path class="cls-1" d="m1069.16,364.23c.49,0,.89.4.89.89s-.4.89-.89.89-.89-.4-.89-.89.4-.89.89-.89Z"/>
  <path class="cls-1" d="m1092.04,364.23c.49,0,.89.4.89.89s-.4.89-.89.89-.89-.4-.89-.89.4-.89.89-.89Z"/>
  <path class="cls-1" d="m1114.93,364.23c.49,0,.89.4.89.89s-.4.89-.89.89-.89-.4-.89-.89.4-.89.89-.89Z"/>
  <path class="cls-1" d="m1137.82,364.23c.49,0,.89.4.89.89s-.4.89-.89.89-.89-.4-.89-.89.4-.89.89-.89Z"/>
  <path class="cls-1" d="m62.18,341.66c.32,0,.57.26.57.57s-.26.57-.57.57-.57-.26-.57-.57.26-.57.57-.57Z"/>
  <path class="cls-1" d="m85.07,341.66c.32,0,.57.26.57.57s-.26.57-.57.57-.57-.26-.57-.57.26-.57.57-.57Z"/>
  <path class="cls-1" d="m107.96,341.66c.32,0,.57.26.57.57s-.26.57-.57.57-.57-.26-.57-.57.26-.57.57-.57Z"/>
  <path class="cls-1" d="m130.84,341.66c.32,0,.57.26.57.57s-.26.57-.57.57-.57-.26-.57-.57.26-.57.57-.57Z"/>
  <path class="cls-1" d="m153.73,341.66c.32,0,.57.26.57.57s-.26.57-.57.57-.57-.26-.57-.57.26-.57.57-.57Z"/>
  <path class="cls-1" d="m176.61,341.66c.32,0,.57.26.57.57s-.26.57-.57.57-.57-.26-.57-.57.26-.57.57-.57Z"/>
  <path class="cls-1" d="m199.5,341.66c.32,0,.57.26.57.57s-.26.57-.57.57-.57-.26-.57-.57.26-.57.57-.57Z"/>
  <path class="cls-1" d="m222.38,341.66c.32,0,.57.26.57.57s-.26.57-.57.57-.57-.26-.57-.57.26-.57.57-.57Z"/>
  <path class="cls-1" d="m245.27,341.66c.32,0,.57.26.57.57s-.26.57-.57.57-.57-.26-.57-.57.26-.57.57-.57Z"/>
  <path class="cls-1" d="m268.16,341.66c.32,0,.57.26.57.57s-.26.57-.57.57-.57-.26-.57-.57.26-.57.57-.57Z"/>
  <path class="cls-1" d="m291.04,341.66c.32,0,.57.26.57.57s-.26.57-.57.57-.57-.26-.57-.57.26-.57.57-.57Z"/>
  <path class="cls-1" d="m313.93,341.66c.32,0,.57.26.57.57s-.26.57-.57.57-.57-.26-.57-.57.26-.57.57-.57Z"/>
  <path class="cls-1" d="m336.81,341.66c.32,0,.57.26.57.57s-.26.57-.57.57-.57-.26-.57-.57.26-.57.57-.57Z"/>
  <path class="cls-1" d="m359.7,341.66c.32,0,.57.26.57.57s-.26.57-.57.57-.57-.26-.57-.57.26-.57.57-.57Z"/>
  <path class="cls-1" d="m382.59,341.66c.32,0,.57.26.57.57s-.26.57-.57.57-.57-.26-.57-.57.26-.57.57-.57Z"/>
  <path class="cls-1" d="m405.47,341.66c.32,0,.57.26.57.57s-.26.57-.57.57-.57-.26-.57-.57.26-.57.57-.57Z"/>
  <path class="cls-1" d="m428.36,341.66c.32,0,.57.26.57.57s-.26.57-.57.57-.57-.26-.57-.57.26-.57.57-.57Z"/>
  <path class="cls-1" d="m451.24,341.66c.32,0,.57.26.57.57s-.26.57-.57.57-.57-.26-.57-.57.26-.57.57-.57Z"/>
  <path class="cls-1" d="m474.13,341.66c.32,0,.57.26.57.57s-.26.57-.57.57-.57-.26-.57-.57.26-.57.57-.57Z"/>
  <path class="cls-1" d="m497.01,341.66c.32,0,.57.26.57.57s-.26.57-.57.57-.57-.26-.57-.57.26-.57.57-.57Z"/>
  <path class="cls-1" d="m519.9,341.66c.32,0,.57.26.57.57s-.26.57-.57.57-.57-.26-.57-.57.26-.57.57-.57Z"/>
  <path class="cls-1" d="m542.79,341.66c.32,0,.57.26.57.57s-.26.57-.57.57-.57-.26-.57-.57.26-.57.57-.57Z"/>
  <path class="cls-1" d="m565.67,341.66c.32,0,.57.26.57.57s-.26.57-.57.57-.57-.26-.57-.57.26-.57.57-.57Z"/>
  <path class="cls-1" d="m588.56,341.66c.32,0,.57.26.57.57s-.26.57-.57.57-.57-.26-.57-.57.26-.57.57-.57Z"/>
  <path class="cls-1" d="m611.44,341.66c.32,0,.57.26.57.57s-.26.57-.57.57-.57-.26-.57-.57.26-.57.57-.57Z"/>
  <path class="cls-1" d="m634.33,341.66c.32,0,.57.26.57.57s-.26.57-.57.57-.57-.26-.57-.57.26-.57.57-.57Z"/>
  <path class="cls-1" d="m657.21,341.66c.32,0,.57.26.57.57s-.26.57-.57.57-.57-.26-.57-.57.26-.57.57-.57Z"/>
  <path class="cls-1" d="m680.1,341.66c.32,0,.57.26.57.57s-.26.57-.57.57-.57-.26-.57-.57.26-.57.57-.57Z"/>
  <path class="cls-1" d="m702.99,341.66c.32,0,.57.26.57.57s-.26.57-.57.57-.57-.26-.57-.57.26-.57.57-.57Z"/>
  <path class="cls-1" d="m725.87,341.66c.32,0,.57.26.57.57s-.26.57-.57.57-.57-.26-.57-.57.26-.57.57-.57Z"/>
  <path class="cls-1" d="m748.76,341.66c.32,0,.57.26.57.57s-.26.57-.57.57-.57-.26-.57-.57.26-.57.57-.57Z"/>
  <path class="cls-1" d="m771.64,341.66c.32,0,.57.26.57.57s-.26.57-.57.57-.57-.26-.57-.57.26-.57.57-.57Z"/>
  <path class="cls-1" d="m794.53,341.66c.32,0,.57.26.57.57s-.26.57-.57.57-.57-.26-.57-.57.26-.57.57-.57Z"/>
  <path class="cls-1" d="m817.41,341.66c.32,0,.57.26.57.57s-.26.57-.57.57-.57-.26-.57-.57.26-.57.57-.57Z"/>
  <path class="cls-1" d="m840.3,341.66c.32,0,.57.26.57.57s-.26.57-.57.57-.57-.26-.57-.57.26-.57.57-.57Z"/>
  <path class="cls-1" d="m863.19,341.66c.32,0,.57.26.57.57s-.26.57-.57.57-.57-.26-.57-.57.26-.57.57-.57Z"/>
  <path class="cls-1" d="m886.07,341.66c.32,0,.57.26.57.57s-.26.57-.57.57-.57-.26-.57-.57.26-.57.57-.57Z"/>
  <path class="cls-1" d="m908.96,341.66c.32,0,.57.26.57.57s-.26.57-.57.57-.57-.26-.57-.57.26-.57.57-.57Z"/>
  <path class="cls-1" d="m931.84,341.66c.32,0,.57.26.57.57s-.26.57-.57.57-.57-.26-.57-.57.26-.57.57-.57Z"/>
  <path class="cls-1" d="m954.73,341.66c.32,0,.57.26.57.57s-.26.57-.57.57-.57-.26-.57-.57.26-.57.57-.57Z"/>
  <path class="cls-1" d="m977.62,341.66c.32,0,.57.26.57.57s-.26.57-.57.57-.57-.26-.57-.57.26-.57.57-.57Z"/>
  <path class="cls-1" d="m1000.5,341.66c.32,0,.57.26.57.57s-.26.57-.57.57-.57-.26-.57-.57.26-.57.57-.57Z"/>
  <path class="cls-1" d="m1023.39,341.66c.32,0,.57.26.57.57s-.26.57-.57.57-.57-.26-.57-.57.26-.57.57-.57Z"/>
  <path class="cls-1" d="m1046.27,341.66c.32,0,.57.26.57.57s-.26.57-.57.57-.57-.26-.57-.57.26-.57.57-.57Z"/>
  <path class="cls-1" d="m1069.16,341.66c.32,0,.57.26.57.57s-.26.57-.57.57-.57-.26-.57-.57.26-.57.57-.57Z"/>
  <path class="cls-1" d="m1092.04,341.66c.32,0,.57.26.57.57s-.26.57-.57.57-.57-.26-.57-.57.26-.57.57-.57Z"/>
  <path class="cls-1" d="m1114.93,341.66c.32,0,.57.26.57.57s-.26.57-.57.57-.57-.26-.57-.57.26-.57.57-.57Z"/>
  <path class="cls-1" d="m1137.82,341.66c.32,0,.57.26.57.57s-.26.57-.57.57-.57-.26-.57-.57.26-.57.57-.57Z"/>
  <path class="cls-1" d="m62.18,319.02c.18,0,.32.14.32.32s-.14.32-.32.32-.32-.14-.32-.32.14-.32.32-.32Z"/>
  <path class="cls-1" d="m85.07,319.02c.18,0,.32.14.32.32s-.14.32-.32.32-.32-.14-.32-.32.14-.32.32-.32Z"/>
  <path class="cls-1" d="m107.96,319.02c.18,0,.32.14.32.32s-.14.32-.32.32-.32-.14-.32-.32.14-.32.32-.32Z"/>
  <path class="cls-1" d="m130.84,319.02c.18,0,.32.14.32.32s-.14.32-.32.32-.32-.14-.32-.32.14-.32.32-.32Z"/>
  <path class="cls-1" d="m153.73,319.02c.18,0,.32.14.32.32s-.14.32-.32.32-.32-.14-.32-.32.14-.32.32-.32Z"/>
  <path class="cls-1" d="m176.61,319.02c.18,0,.32.14.32.32s-.14.32-.32.32-.32-.14-.32-.32.14-.32.32-.32Z"/>
  <path class="cls-1" d="m199.5,319.02c.18,0,.32.14.32.32s-.14.32-.32.32-.32-.14-.32-.32.14-.32.32-.32Z"/>
  <path class="cls-1" d="m222.38,319.02c.18,0,.32.14.32.32s-.14.32-.32.32-.32-.14-.32-.32.14-.32.32-.32Z"/>
  <path class="cls-1" d="m245.27,319.02c.18,0,.32.14.32.32s-.14.32-.32.32-.32-.14-.32-.32.14-.32.32-.32Z"/>
  <path class="cls-1" d="m268.16,319.02c.18,0,.32.14.32.32s-.14.32-.32.32-.32-.14-.32-.32.14-.32.32-.32Z"/>
  <path class="cls-1" d="m291.04,319.02c.18,0,.32.14.32.32s-.14.32-.32.32-.32-.14-.32-.32.14-.32.32-.32Z"/>
  <path class="cls-1" d="m313.93,319.02c.18,0,.32.14.32.32s-.14.32-.32.32-.32-.14-.32-.32.14-.32.32-.32Z"/>
  <path class="cls-1" d="m336.81,319.02c.18,0,.32.14.32.32s-.14.32-.32.32-.32-.14-.32-.32.14-.32.32-.32Z"/>
  <path class="cls-1" d="m359.7,319.02c.18,0,.32.14.32.32s-.14.32-.32.32-.32-.14-.32-.32.14-.32.32-.32Z"/>
  <path class="cls-1" d="m382.59,319.02c.18,0,.32.14.32.32s-.14.32-.32.32-.32-.14-.32-.32.14-.32.32-.32Z"/>
  <path class="cls-1" d="m405.47,319.02c.18,0,.32.14.32.32s-.14.32-.32.32-.32-.14-.32-.32.14-.32.32-.32Z"/>
  <path class="cls-1" d="m428.36,319.02c.18,0,.32.14.32.32s-.14.32-.32.32-.32-.14-.32-.32.14-.32.32-.32Z"/>
  <path class="cls-1" d="m451.24,319.02c.18,0,.32.14.32.32s-.14.32-.32.32-.32-.14-.32-.32.14-.32.32-.32Z"/>
  <path class="cls-1" d="m474.13,319.02c.18,0,.32.14.32.32s-.14.32-.32.32-.32-.14-.32-.32.14-.32.32-.32Z"/>
  <path class="cls-1" d="m497.01,319.02c.18,0,.32.14.32.32s-.14.32-.32.32-.32-.14-.32-.32.14-.32.32-.32Z"/>
  <path class="cls-1" d="m519.9,319.02c.18,0,.32.14.32.32s-.14.32-.32.32-.32-.14-.32-.32.14-.32.32-.32Z"/>
  <path class="cls-1" d="m542.79,319.02c.18,0,.32.14.32.32s-.14.32-.32.32-.32-.14-.32-.32.14-.32.32-.32Z"/>
  <path class="cls-1" d="m565.67,319.02c.18,0,.32.14.32.32s-.14.32-.32.32-.32-.14-.32-.32.14-.32.32-.32Z"/>
  <path class="cls-1" d="m588.56,319.02c.18,0,.32.14.32.32s-.14.32-.32.32-.32-.14-.32-.32.14-.32.32-.32Z"/>
  <path class="cls-1" d="m611.44,319.02c.18,0,.32.14.32.32s-.14.32-.32.32-.32-.14-.32-.32.14-.32.32-.32Z"/>
  <path class="cls-1" d="m634.33,319.02c.18,0,.32.14.32.32s-.14.32-.32.32-.32-.14-.32-.32.14-.32.32-.32Z"/>
  <path class="cls-1" d="m657.21,319.02c.18,0,.32.14.32.32s-.14.32-.32.32-.32-.14-.32-.32.14-.32.32-.32Z"/>
  <path class="cls-1" d="m680.1,319.02c.18,0,.32.14.32.32s-.14.32-.32.32-.32-.14-.32-.32.14-.32.32-.32Z"/>
  <path class="cls-1" d="m702.99,319.02c.18,0,.32.14.32.32s-.14.32-.32.32-.32-.14-.32-.32.14-.32.32-.32Z"/>
  <path class="cls-1" d="m725.87,319.02c.18,0,.32.14.32.32s-.14.32-.32.32-.32-.14-.32-.32.14-.32.32-.32Z"/>
  <path class="cls-1" d="m748.76,319.02c.18,0,.32.14.32.32s-.14.32-.32.32-.32-.14-.32-.32.14-.32.32-.32Z"/>
  <path class="cls-1" d="m771.64,319.02c.18,0,.32.14.32.32s-.14.32-.32.32-.32-.14-.32-.32.14-.32.32-.32Z"/>
  <path class="cls-1" d="m794.53,319.02c.18,0,.32.14.32.32s-.14.32-.32.32-.32-.14-.32-.32.14-.32.32-.32Z"/>
  <path class="cls-1" d="m817.41,319.02c.18,0,.32.14.32.32s-.14.32-.32.32-.32-.14-.32-.32.14-.32.32-.32Z"/>
  <path class="cls-1" d="m840.3,319.02c.18,0,.32.14.32.32s-.14.32-.32.32-.32-.14-.32-.32.14-.32.32-.32Z"/>
  <path class="cls-1" d="m863.19,319.02c.18,0,.32.14.32.32s-.14.32-.32.32-.32-.14-.32-.32.14-.32.32-.32Z"/>
  <path class="cls-1" d="m886.07,319.02c.18,0,.32.14.32.32s-.14.32-.32.32-.32-.14-.32-.32.14-.32.32-.32Z"/>
  <path class="cls-1" d="m908.96,319.02c.18,0,.32.14.32.32s-.14.32-.32.32-.32-.14-.32-.32.14-.32.32-.32Z"/>
  <path class="cls-1" d="m931.84,319.02c.18,0,.32.14.32.32s-.14.32-.32.32-.32-.14-.32-.32.14-.32.32-.32Z"/>
  <path class="cls-1" d="m954.73,319.02c.18,0,.32.14.32.32s-.14.32-.32.32-.32-.14-.32-.32.14-.32.32-.32Z"/>
  <path class="cls-1" d="m977.62,319.02c.18,0,.32.14.32.32s-.14.32-.32.32-.32-.14-.32-.32.14-.32.32-.32Z"/>
  <path class="cls-1" d="m1000.5,319.02c.18,0,.32.14.32.32s-.14.32-.32.32-.32-.14-.32-.32.14-.32.32-.32Z"/>
  <path class="cls-1" d="m1023.39,319.02c.18,0,.32.14.32.32s-.14.32-.32.32-.32-.14-.32-.32.14-.32.32-.32Z"/>
  <path class="cls-1" d="m1046.27,319.02c.18,0,.32.14.32.32s-.14.32-.32.32-.32-.14-.32-.32.14-.32.32-.32Z"/>
  <path class="cls-1" d="m1069.16,319.02c.18,0,.32.14.32.32s-.14.32-.32.32-.32-.14-.32-.32.14-.32.32-.32Z"/>
  <path class="cls-1" d="m1092.04,319.02c.18,0,.32.14.32.32s-.14.32-.32.32-.32-.14-.32-.32.14-.32.32-.32Z"/>
  <path class="cls-1" d="m1114.93,319.02c.18,0,.32.14.32.32s-.14.32-.32.32-.32-.14-.32-.32.14-.32.32-.32Z"/>
  <path class="cls-1" d="m1137.82,319.02c.18,0,.32.14.32.32s-.14.32-.32.32-.32-.14-.32-.32.14-.32.32-.32Z"/>
  <path class="cls-1" d="m62.18,296.33c.07,0,.13.06.13.13s-.06.13-.13.13-.13-.06-.13-.13.06-.13.13-.13Z"/>
  <path class="cls-1" d="m85.07,296.33c.07,0,.13.06.13.13s-.06.13-.13.13-.13-.06-.13-.13.06-.13.13-.13Z"/>
  <path class="cls-1" d="m107.96,296.33c.07,0,.13.06.13.13s-.06.13-.13.13-.13-.06-.13-.13.06-.13.13-.13Z"/>
  <path class="cls-1" d="m130.84,296.33c.07,0,.13.06.13.13s-.06.13-.13.13-.13-.06-.13-.13.06-.13.13-.13Z"/>
  <path class="cls-1" d="m153.73,296.33c.07,0,.13.06.13.13s-.06.13-.13.13-.13-.06-.13-.13.06-.13.13-.13Z"/>
  <path class="cls-1" d="m176.61,296.33c.07,0,.13.06.13.13s-.06.13-.13.13-.13-.06-.13-.13.06-.13.13-.13Z"/>
  <path class="cls-1" d="m199.5,296.33c.07,0,.13.06.13.13s-.06.13-.13.13-.13-.06-.13-.13.06-.13.13-.13Z"/>
  <path class="cls-1" d="m222.38,296.33c.07,0,.13.06.13.13s-.06.13-.13.13-.13-.06-.13-.13.06-.13.13-.13Z"/>
  <path class="cls-1" d="m245.27,296.33c.07,0,.13.06.13.13s-.06.13-.13.13-.13-.06-.13-.13.06-.13.13-.13Z"/>
  <path class="cls-1" d="m268.16,296.33c.07,0,.13.06.13.13s-.06.13-.13.13-.13-.06-.13-.13.06-.13.13-.13Z"/>
  <path class="cls-1" d="m291.04,296.33c.07,0,.13.06.13.13s-.06.13-.13.13-.13-.06-.13-.13.06-.13.13-.13Z"/>
  <path class="cls-1" d="m313.93,296.33c.07,0,.13.06.13.13s-.06.13-.13.13-.13-.06-.13-.13.06-.13.13-.13Z"/>
  <path class="cls-1" d="m336.81,296.33c.07,0,.13.06.13.13s-.06.13-.13.13-.13-.06-.13-.13.06-.13.13-.13Z"/>
  <path class="cls-1" d="m359.7,296.33c.07,0,.13.06.13.13s-.06.13-.13.13-.13-.06-.13-.13.06-.13.13-.13Z"/>
  <path class="cls-1" d="m382.59,296.33c.07,0,.13.06.13.13s-.06.13-.13.13-.13-.06-.13-.13.06-.13.13-.13Z"/>
  <path class="cls-1" d="m405.47,296.33c.07,0,.13.06.13.13s-.06.13-.13.13-.13-.06-.13-.13.06-.13.13-.13Z"/>
  <path class="cls-1" d="m428.36,296.33c.07,0,.13.06.13.13s-.06.13-.13.13-.13-.06-.13-.13.06-.13.13-.13Z"/>
  <path class="cls-1" d="m451.24,296.33c.07,0,.13.06.13.13s-.06.13-.13.13-.13-.06-.13-.13.06-.13.13-.13Z"/>
  <path class="cls-1" d="m474.13,296.33c.07,0,.13.06.13.13s-.06.13-.13.13-.13-.06-.13-.13.06-.13.13-.13Z"/>
  <path class="cls-1" d="m497.01,296.33c.07,0,.13.06.13.13s-.06.13-.13.13-.13-.06-.13-.13.06-.13.13-.13Z"/>
  <path class="cls-1" d="m519.9,296.33c.07,0,.13.06.13.13s-.06.13-.13.13-.13-.06-.13-.13.06-.13.13-.13Z"/>
  <path class="cls-1" d="m542.79,296.33c.07,0,.13.06.13.13s-.06.13-.13.13-.13-.06-.13-.13.06-.13.13-.13Z"/>
  <path class="cls-1" d="m565.67,296.33c.07,0,.13.06.13.13s-.06.13-.13.13-.13-.06-.13-.13.06-.13.13-.13Z"/>
  <path class="cls-1" d="m588.56,296.33c.07,0,.13.06.13.13s-.06.13-.13.13-.13-.06-.13-.13.06-.13.13-.13Z"/>
  <path class="cls-1" d="m611.44,296.33c.07,0,.13.06.13.13s-.06.13-.13.13-.13-.06-.13-.13.06-.13.13-.13Z"/>
  <path class="cls-1" d="m634.33,296.33c.07,0,.13.06.13.13s-.06.13-.13.13-.13-.06-.13-.13.06-.13.13-.13Z"/>
  <path class="cls-1" d="m657.21,296.33c.07,0,.13.06.13.13s-.06.13-.13.13-.13-.06-.13-.13.06-.13.13-.13Z"/>
  <path class="cls-1" d="m680.1,296.33c.07,0,.13.06.13.13s-.06.13-.13.13-.13-.06-.13-.13.06-.13.13-.13Z"/>
  <path class="cls-1" d="m702.99,296.33c.07,0,.13.06.13.13s-.06.13-.13.13-.13-.06-.13-.13.06-.13.13-.13Z"/>
  <path class="cls-1" d="m725.87,296.33c.07,0,.13.06.13.13s-.06.13-.13.13-.13-.06-.13-.13.06-.13.13-.13Z"/>
  <path class="cls-1" d="m748.76,296.33c.07,0,.13.06.13.13s-.06.13-.13.13-.13-.06-.13-.13.06-.13.13-.13Z"/>
  <path class="cls-1" d="m771.64,296.33c.07,0,.13.06.13.13s-.06.13-.13.13-.13-.06-.13-.13.06-.13.13-.13Z"/>
  <path class="cls-1" d="m794.53,296.33c.07,0,.13.06.13.13s-.06.13-.13.13-.13-.06-.13-.13.06-.13.13-.13Z"/>
  <path class="cls-1" d="m817.41,296.33c.07,0,.13.06.13.13s-.06.13-.13.13-.13-.06-.13-.13.06-.13.13-.13Z"/>
  <path class="cls-1" d="m840.3,296.33c.07,0,.13.06.13.13s-.06.13-.13.13-.13-.06-.13-.13.06-.13.13-.13Z"/>
  <path class="cls-1" d="m863.19,296.33c.07,0,.13.06.13.13s-.06.13-.13.13-.13-.06-.13-.13.06-.13.13-.13Z"/>
  <path class="cls-1" d="m886.07,296.33c.07,0,.13.06.13.13s-.06.13-.13.13-.13-.06-.13-.13.06-.13.13-.13Z"/>
  <path class="cls-1" d="m908.96,296.33c.07,0,.13.06.13.13s-.06.13-.13.13-.13-.06-.13-.13.06-.13.13-.13Z"/>
  <path class="cls-1" d="m931.84,296.33c.07,0,.13.06.13.13s-.06.13-.13.13-.13-.06-.13-.13.06-.13.13-.13Z"/>
  <path class="cls-1" d="m954.73,296.33c.07,0,.13.06.13.13s-.06.13-.13.13-.13-.06-.13-.13.06-.13.13-.13Z"/>
  <path class="cls-1" d="m977.62,296.33c.07,0,.13.06.13.13s-.06.13-.13.13-.13-.06-.13-.13.06-.13.13-.13Z"/>
  <path class="cls-1" d="m1000.5,296.33c.07,0,.13.06.13.13s-.06.13-.13.13-.13-.06-.13-.13.06-.13.13-.13Z"/>
  <path class="cls-1" d="m1023.39,296.33c.07,0,.13.06.13.13s-.06.13-.13.13-.13-.06-.13-.13.06-.13.13-.13Z"/>
  <path class="cls-1" d="m1046.27,296.33c.07,0,.13.06.13.13s-.06.13-.13.13-.13-.06-.13-.13.06-.13.13-.13Z"/>
  <path class="cls-1" d="m1069.16,296.33c.07,0,.13.06.13.13s-.06.13-.13.13-.13-.06-.13-.13.06-.13.13-.13Z"/>
  <path class="cls-1" d="m1092.04,296.33c.07,0,.13.06.13.13s-.06.13-.13.13-.13-.06-.13-.13.06-.13.13-.13Z"/>
  <path class="cls-1" d="m1114.93,296.33c.07,0,.13.06.13.13s-.06.13-.13.13-.13-.06-.13-.13.06-.13.13-.13Z"/>
  <path class="cls-1" d="m1137.82,296.33c.07,0,.13.06.13.13s-.06.13-.13.13-.13-.06-.13-.13.06-.13.13-.13Z"/>
</svg>