<?xml version="1.0" encoding="utf-8"?>
<!-- Generator: Adobe Illustrator 27.8.0, SVG Export Plug-In . SVG Version: 6.00 Build 0)  -->
<svg version="1.1" id="Layer_1" xmlns="http://www.w3.org/2000/svg" xmlns:xlink="http://www.w3.org/1999/xlink" x="0px" y="0px"
	 viewBox="0 0 1200 500" style="enable-background:new 0 0 1200 500;" xml:space="preserve">
<style type="text/css">
	.st0{fill:#E2E3E4;}
</style>
<g>
	<g>
		<path class="st0" d="M320.3,291.4c-73.1,0-132.6-58.7-132.6-130.9S247.1,29.6,320.3,29.6s132.6,58.7,132.6,130.9
			S393.4,291.4,320.3,291.4z M320.3,30.6c-72.6,0-131.6,58.3-131.6,129.9s59,129.9,131.6,129.9s131.6-58.3,131.6-129.9
			S392.8,30.6,320.3,30.6z"/>
		<path class="st0" d="M506.8,306.5c-73.1,0-132.6-58.7-132.6-130.9S433.6,44.7,506.8,44.7s132.6,58.7,132.6,130.9
			S579.9,306.5,506.8,306.5L506.8,306.5z M506.8,45.7c-72.6,0-131.6,58.3-131.6,129.9s59,129.9,131.6,129.9s131.6-58.3,131.6-129.9
			S579.3,45.7,506.8,45.7z"/>
		<path class="st0" d="M133.1,397.6C60,397.6,0.5,338.9,0.5,266.7S60,135.8,133.1,135.8s132.6,58.7,132.6,130.9
			S206.2,397.6,133.1,397.6z M133.1,136.8C60.5,136.8,1.5,195,1.5,266.7s59,129.9,131.6,129.9s131.6-58.3,131.6-129.9
			S205.7,136.8,133.1,136.8L133.1,136.8z"/>
		<path class="st0" d="M539.7,360.3c-49.4,0-89.5-39.6-89.5-88.4s40.2-88.4,89.5-88.4c49.4,0,89.5,39.6,89.5,88.4
			S589.1,360.3,539.7,360.3z M539.7,184.5c-48.8,0-88.6,39.2-88.6,87.4s39.7,87.4,88.6,87.4s88.6-39.2,88.6-87.4
			S588.6,184.5,539.7,184.5z"/>
		<path class="st0" d="M362.8,349.2c-42.4,0-76.9-33.8-76.9-75.3s34.5-75.3,76.9-75.3s76.9,33.8,76.9,75.3S405.2,349.2,362.8,349.2z
			 M362.8,199.6c-41.9,0-76,33.3-76,74.3s34.1,74.3,76,74.3s76-33.3,76-74.3S404.7,199.6,362.8,199.6z"/>
		<path class="st0" d="M397.6,443.8c-32.7,0-59.3-26.3-59.3-58.5s26.6-58.5,59.3-58.5s59.3,26.3,59.3,58.5S430.3,443.8,397.6,443.8
			L397.6,443.8z M397.6,327.7c-32.2,0-58.3,25.8-58.3,57.6s26.2,57.6,58.3,57.6s58.3-25.8,58.3-57.6S429.8,327.7,397.6,327.7z"/>
		<path class="st0" d="M184.6,203.2c-43.7,0-79.3-35.1-79.3-78.3s35.6-78.3,79.3-78.3s79.3,35.1,79.3,78.3S228.4,203.2,184.6,203.2z
			 M184.6,47.7c-43.2,0-78.3,34.7-78.3,77.3s35.1,77.3,78.3,77.3s78.3-34.7,78.3-77.3S227.8,47.7,184.6,47.7L184.6,47.7z"/>
		<path class="st0" d="M237.2,428.6c-32.7,0-59.3-26.3-59.3-58.5s26.6-58.5,59.3-58.5s59.3,26.3,59.3,58.5S269.9,428.6,237.2,428.6z
			 M237.2,312.5c-32.2,0-58.3,25.8-58.3,57.6s26.2,57.6,58.3,57.6s58.3-25.8,58.3-57.6S269.3,312.5,237.2,312.5z"/>
		<path class="st0" d="M260.1,278.5c0,2.3,1.9,4.2,4.3,4.2c2.4,0,4.3-1.9,4.3-4.2c0-2.3-1.9-4.2-4.3-4.2
			C262.1,274.3,260.1,276.2,260.1,278.5"/>
		<path class="st0" d="M264.4,283.3c-2.6,0-4.8-2.1-4.8-4.7s2.1-4.7,4.8-4.7c2.6,0,4.8,2.1,4.8,4.7S267.1,283.3,264.4,283.3z
			 M264.4,274.8c-2.1,0-3.8,1.7-3.8,3.7s1.7,3.7,3.8,3.7c2.1,0,3.8-1.7,3.8-3.7S266.5,274.8,264.4,274.8z"/>
		<path class="st0" d="M184.2,149.7c0,2.3,1.9,4.2,4.3,4.2c2.4,0,4.3-1.9,4.3-4.2c0-2.3-1.9-4.2-4.3-4.2
			C186.1,145.5,184.2,147.4,184.2,149.7"/>
		<path class="st0" d="M188.5,154.4c-2.6,0-4.8-2.1-4.8-4.7c0-2.6,2.1-4.7,4.8-4.7c2.6,0,4.8,2.1,4.8,4.7
			C193.2,152.3,191.1,154.4,188.5,154.4z M188.5,146c-2.1,0-3.8,1.7-3.8,3.7c0,2,1.7,3.7,3.8,3.7c2.1,0,3.8-1.7,3.8-3.7
			C192.2,147.7,190.6,146,188.5,146z"/>
		<path class="st0" d="M231,186.1c0,2.3,1.9,4.2,4.3,4.2s4.3-1.9,4.3-4.2c0-2.3-1.9-4.2-4.3-4.2S231,183.8,231,186.1"/>
		<path class="st0" d="M235.3,190.8c-2.6,0-4.8-2.1-4.8-4.7c0-2.6,2.1-4.7,4.8-4.7s4.8,2.1,4.8,4.7
			C240.1,188.7,237.9,190.8,235.3,190.8z M235.3,182.4c-2.1,0-3.8,1.7-3.8,3.7c0,2,1.7,3.7,3.8,3.7s3.8-1.7,3.8-3.7
			C239.1,184.1,237.4,182.4,235.3,182.4z"/>
		<path class="st0" d="M190.9,201.4c0,2.3,1.9,4.2,4.3,4.2c2.4,0,4.3-1.9,4.3-4.2s-1.9-4.2-4.3-4.2
			C192.8,197.2,190.9,199.1,190.9,201.4"/>
		<path class="st0" d="M195.2,206.1c-2.6,0-4.8-2.1-4.8-4.7s2.1-4.7,4.8-4.7c2.6,0,4.8,2.1,4.8,4.7S197.8,206.1,195.2,206.1z
			 M195.2,197.7c-2.1,0-3.8,1.7-3.8,3.7s1.7,3.7,3.8,3.7c2.1,0,3.8-1.7,3.8-3.7S197.2,197.7,195.2,197.7z"/>
		<path class="st0" d="M49.5,162.2c0,2.3,1.9,4.2,4.3,4.2s4.3-1.9,4.3-4.2s-1.9-4.2-4.3-4.2S49.5,159.9,49.5,162.2"/>
		<path class="st0" d="M53.8,166.9c-2.6,0-4.8-2.1-4.8-4.7s2.1-4.7,4.8-4.7s4.8,2.1,4.8,4.7S56.4,166.9,53.8,166.9z M53.8,158.5
			c-2.1,0-3.8,1.7-3.8,3.7c0,2,1.7,3.7,3.8,3.7c2.1,0,3.8-1.7,3.8-3.7C57.6,160.2,55.9,158.5,53.8,158.5z"/>
		<path class="st0" d="M401.5,259.7c0,2.3,1.9,4.2,4.3,4.2s4.3-1.9,4.3-4.2c0-2.3-1.9-4.2-4.3-4.2S401.5,257.4,401.5,259.7"/>
		<path class="st0" d="M405.8,264.4c-2.6,0-4.8-2.1-4.8-4.7c0-2.6,2.1-4.7,4.8-4.7s4.8,2.1,4.8,4.7
			C410.6,262.3,408.4,264.4,405.8,264.4z M405.8,256c-2.1,0-3.8,1.7-3.8,3.7s1.7,3.7,3.8,3.7s3.8-1.7,3.8-3.7S407.9,256,405.8,256z"
			/>
		<path class="st0" d="M423,234.8c0,2.3,1.9,4.2,4.3,4.2c2.4,0,4.3-1.9,4.3-4.2s-1.9-4.2-4.3-4.2C424.9,230.6,423,232.5,423,234.8"
			/>
		<path class="st0" d="M427.3,239.5c-2.6,0-4.8-2.1-4.8-4.7s2.1-4.7,4.8-4.7c2.6,0,4.8,2.1,4.8,4.7S429.9,239.5,427.3,239.5z
			 M427.3,231.1c-2.1,0-3.8,1.7-3.8,3.7c0,2,1.7,3.7,3.8,3.7c2.1,0,3.8-1.7,3.8-3.7C431.1,232.8,429.4,231.1,427.3,231.1z"/>
		<path class="st0" d="M372.4,200.9c0,2.3,1.9,4.2,4.3,4.2s4.3-1.9,4.3-4.2c0-2.3-1.9-4.2-4.3-4.2S372.4,198.6,372.4,200.9"/>
		<path class="st0" d="M376.7,205.6c-2.6,0-4.8-2.1-4.8-4.7c0-2.6,2.1-4.7,4.8-4.7s4.8,2.1,4.8,4.7
			C381.4,203.5,379.3,205.6,376.7,205.6z M376.7,197.2c-2.1,0-3.8,1.7-3.8,3.7c0,2,1.7,3.7,3.8,3.7s3.8-1.7,3.8-3.7
			C380.4,198.9,378.7,197.2,376.7,197.2z"/>
		<path class="st0" d="M282.6,285.5c0,2.3,1.9,4.2,4.3,4.2s4.3-1.9,4.3-4.2s-1.9-4.2-4.3-4.2S282.6,283.2,282.6,285.5"/>
		<path class="st0" d="M286.9,290.2c-2.6,0-4.8-2.1-4.8-4.7s2.1-4.7,4.8-4.7s4.8,2.1,4.8,4.7S289.5,290.2,286.9,290.2z M286.9,281.8
			c-2.1,0-3.8,1.7-3.8,3.7c0,2,1.7,3.7,3.8,3.7c2.1,0,3.8-1.7,3.8-3.7C290.6,283.4,289,281.8,286.9,281.8z"/>
		<path class="st0" d="M348.5,348.5c0,2.3,1.9,4.2,4.3,4.2s4.3-1.9,4.3-4.2c0-2.3-1.9-4.2-4.3-4.2S348.5,346.2,348.5,348.5"/>
		<path class="st0" d="M352.8,353.2c-2.6,0-4.8-2.1-4.8-4.7s2.1-4.7,4.8-4.7s4.8,2.1,4.8,4.7S355.4,353.2,352.8,353.2z M352.8,344.8
			c-2.1,0-3.8,1.7-3.8,3.7s1.7,3.7,3.8,3.7s3.8-1.7,3.8-3.7S354.9,344.8,352.8,344.8z"/>
		<path class="st0" d="M408.7,330.4c0,2.3,1.9,4.2,4.3,4.2s4.3-1.9,4.3-4.2c0-2.3-1.9-4.2-4.3-4.2S408.7,328,408.7,330.4"/>
		<path class="st0" d="M413,335.1c-2.6,0-4.8-2.1-4.8-4.7s2.1-4.7,4.8-4.7s4.8,2.1,4.8,4.7S415.6,335.1,413,335.1z M413,326.7
			c-2.1,0-3.8,1.7-3.8,3.7s1.7,3.7,3.8,3.7s3.8-1.7,3.8-3.7S415.1,326.7,413,326.7z"/>
		<path class="st0" d="M449.3,294.5c0,2.3,1.9,4.2,4.3,4.2s4.3-1.9,4.3-4.2c0-2.3-1.9-4.2-4.3-4.2S449.3,292.2,449.3,294.5"/>
		<path class="st0" d="M453.6,299.3c-2.6,0-4.8-2.1-4.8-4.7s2.1-4.7,4.8-4.7s4.8,2.1,4.8,4.7S456.2,299.3,453.6,299.3z M453.6,290.8
			c-2.1,0-3.8,1.7-3.8,3.7s1.7,3.7,3.8,3.7s3.8-1.7,3.8-3.7S455.7,290.8,453.6,290.8z"/>
		<path class="st0" d="M617.2,239.6c0,2.3,1.9,4.2,4.3,4.2s4.3-1.9,4.3-4.2s-1.9-4.2-4.3-4.2S617.2,237.3,617.2,239.6"/>
		<path class="st0" d="M621.5,244.3c-2.6,0-4.8-2.1-4.8-4.7s2.1-4.7,4.8-4.7c2.6,0,4.8,2.1,4.8,4.7S624.1,244.3,621.5,244.3z
			 M621.5,235.9c-2.1,0-3.8,1.7-3.8,3.7c0,2,1.7,3.7,3.8,3.7c2.1,0,3.8-1.7,3.8-3.7C625.2,237.6,623.5,235.9,621.5,235.9z"/>
		<path class="st0" d="M251.5,315.1c0,2.3,1.9,4.2,4.3,4.2s4.3-1.9,4.3-4.2c0-2.3-1.9-4.2-4.3-4.2S251.5,312.8,251.5,315.1"/>
		<path class="st0" d="M255.8,319.8c-2.6,0-4.8-2.1-4.8-4.7s2.1-4.7,4.8-4.7s4.8,2.1,4.8,4.7S258.5,319.8,255.8,319.8z M255.8,311.4
			c-2.1,0-3.8,1.7-3.8,3.7s1.7,3.7,3.8,3.7s3.8-1.7,3.8-3.7S257.9,311.4,255.8,311.4z"/>
		<path class="st0" d="M176.6,387.7c0,2.3,1.9,4.2,4.3,4.2s4.3-1.9,4.3-4.2s-1.9-4.2-4.3-4.2S176.6,385.4,176.6,387.7"/>
		<path class="st0" d="M180.8,392.4c-2.6,0-4.8-2.1-4.8-4.7s2.1-4.7,4.8-4.7s4.8,2.1,4.8,4.7S183.5,392.4,180.8,392.4z M180.8,384
			c-2.1,0-3.8,1.7-3.8,3.7c0,2,1.7,3.7,3.8,3.7c2.1,0,3.8-1.7,3.8-3.7C184.6,385.6,182.9,384,180.8,384z"/>
	</g>
	<g>
		<path class="st0" d="M808.9,489c-89.1,0-161.5-73.4-161.5-163.6s72.4-163.6,161.5-163.6s161.5,73.4,161.5,163.6S898,489,808.9,489
			L808.9,489z M808.9,162.8c-88.5,0-160.5,73-160.5,162.6S720.4,488,808.9,488s160.5-73,160.5-162.6S897.4,162.8,808.9,162.8z"/>
		<path class="st0" d="M999.7,313.2c-72.2,0-130.9-59.5-130.9-132.6S927.5,48,999.7,48s130.9,59.5,130.9,132.6
			S1071.9,313.2,999.7,313.2z M999.7,49c-71.6,0-129.9,59-129.9,131.6s58.3,131.6,129.9,131.6s129.9-59,129.9-131.6
			S1071.3,49,999.7,49L999.7,49z"/>
		<path class="st0" d="M1014.8,499.7c-72.2,0-130.9-59.5-130.9-132.6s58.7-132.6,130.9-132.6s130.9,59.5,130.9,132.6
			S1087,499.7,1014.8,499.7L1014.8,499.7z M1014.8,235.5c-71.6,0-129.9,59-129.9,131.6s58.3,131.6,129.9,131.6
			c71.6,0,129.9-59,129.9-131.6S1086.4,235.5,1014.8,235.5z"/>
		<path class="st0" d="M691.6,339.3c-72.2,0-130.9-59.5-130.9-132.6S619.4,74,691.6,74s130.9,59.5,130.9,132.6
			S763.7,339.3,691.6,339.3z M691.6,75c-71.6,0-129.9,59-129.9,131.6s58.3,131.6,129.9,131.6s129.9-59,129.9-131.6
			S763.2,75,691.6,75z"/>
		<path class="st0" d="M620.9,179.4c-48.7,0-88.4-40.2-88.4-89.5s39.6-89.5,88.4-89.5s88.4,40.2,88.4,89.5S669.6,179.4,620.9,179.4z
			 M620.9,1.3c-48.2,0-87.4,39.7-87.4,88.6s39.2,88.6,87.4,88.6s87.4-39.7,87.4-88.6S669.1,1.3,620.9,1.3z"/>
		<path class="st0" d="M1111.1,489.6c-48.7,0-88.4-40.2-88.4-89.5s39.6-89.5,88.4-89.5c48.7,0,88.4,40.2,88.4,89.5
			S1159.9,489.6,1111.1,489.6z M1111.1,311.5c-48.2,0-87.4,39.7-87.4,88.6s39.2,88.6,87.4,88.6s87.4-39.7,87.4-88.6
			S1159.3,311.5,1111.1,311.5z"/>
		<path class="st0" d="M1113.1,300c-41.5,0-75.3-34.5-75.3-76.9s33.8-76.9,75.3-76.9s75.3,34.5,75.3,76.9S1154.6,300,1113.1,300
			L1113.1,300z M1113.1,147.1c-41,0-74.3,34.1-74.3,76s33.3,76,74.3,76s74.3-34.1,74.3-76S1154.1,147.1,1113.1,147.1L1113.1,147.1z"
			/>
		<path class="st0" d="M569.7,156.8c2.3,0,4.2,1.9,4.2,4.3s-1.9,4.3-4.2,4.3s-4.2-1.9-4.2-4.3S567.3,156.8,569.7,156.8"/>
		<path class="st0" d="M569.7,165.8c-2.6,0-4.7-2.1-4.7-4.8c0-2.6,2.1-4.8,4.7-4.8s4.7,2.1,4.7,4.8
			C574.4,163.7,572.3,165.8,569.7,165.8z M569.7,157.3c-2,0-3.7,1.7-3.7,3.8s1.7,3.8,3.7,3.8s3.7-1.7,3.7-3.8
			S571.7,157.3,569.7,157.3z"/>
		<path class="st0" d="M584.9,278.6c2.3,0,4.2,1.9,4.2,4.3s-1.9,4.3-4.2,4.3c-2.3,0-4.2-1.9-4.2-4.3S582.6,278.6,584.9,278.6"/>
		<path class="st0" d="M584.9,287.6c-2.6,0-4.7-2.1-4.7-4.8s2.1-4.8,4.7-4.8c2.6,0,4.7,2.1,4.7,4.8S587.5,287.6,584.9,287.6z
			 M584.9,279.1c-2,0-3.7,1.7-3.7,3.8s1.7,3.8,3.7,3.8s3.7-1.7,3.7-3.8S587,279.1,584.9,279.1z"/>
		<path class="st0" d="M649,326.8c2.3,0,4.2,1.9,4.2,4.3s-1.9,4.3-4.2,4.3c-2.3,0-4.2-1.9-4.2-4.3S646.6,326.8,649,326.8"/>
		<path class="st0" d="M649,335.9c-2.6,0-4.7-2.1-4.7-4.8s2.1-4.8,4.7-4.8c2.6,0,4.7,2.1,4.7,4.8S651.6,335.9,649,335.9z M649,327.3
			c-2,0-3.7,1.7-3.7,3.8s1.7,3.8,3.7,3.8s3.7-1.7,3.7-3.8S651,327.3,649,327.3z"/>
		<path class="st0" d="M655.2,367c2.3,0,4.2,1.9,4.2,4.3s-1.9,4.3-4.2,4.3c-2.3,0-4.2-1.9-4.2-4.3S652.8,367,655.2,367"/>
		<path class="st0" d="M655.2,376c-2.6,0-4.7-2.1-4.7-4.8s2.1-4.8,4.7-4.8c2.6,0,4.7,2.1,4.7,4.8S657.8,376,655.2,376z M655.2,367.5
			c-2,0-3.7,1.7-3.7,3.8s1.7,3.8,3.7,3.8c2,0,3.7-1.7,3.7-3.8S657.2,367.5,655.2,367.5z"/>
		<path class="st0" d="M813.7,157.3c2.3,0,4.2,1.9,4.2,4.3s-1.9,4.3-4.2,4.3s-4.2-1.9-4.2-4.3S811.4,157.3,813.7,157.3"/>
		<path class="st0" d="M813.7,166.3c-2.6,0-4.7-2.1-4.7-4.8s2.1-4.8,4.7-4.8c2.6,0,4.7,2.1,4.7,4.8S816.3,166.3,813.7,166.3z
			 M813.7,157.8c-2,0-3.7,1.7-3.7,3.8s1.7,3.8,3.7,3.8s3.7-1.7,3.7-3.8S815.8,157.8,813.7,157.8z"/>
		<path class="st0" d="M771.5,162c2.3,0,4.2,1.9,4.2,4.3c0,2.4-1.9,4.3-4.2,4.3s-4.2-1.9-4.2-4.3C767.3,164,769.2,162,771.5,162"/>
		<path class="st0" d="M771.5,171.1c-2.6,0-4.7-2.1-4.7-4.8c0-2.6,2.1-4.8,4.7-4.8c2.6,0,4.7,2.1,4.7,4.8
			C776.2,168.9,774.1,171.1,771.5,171.1z M771.5,162.5c-2,0-3.7,1.7-3.7,3.8c0,2.1,1.7,3.8,3.7,3.8s3.7-1.7,3.7-3.8
			C775.2,164.2,773.5,162.5,771.5,162.5z"/>
		<path class="st0" d="M812.8,251.8c2.3,0,4.2,1.9,4.2,4.3c0,2.4-1.9,4.3-4.2,4.3c-2.3,0-4.2-1.9-4.2-4.3
			C808.6,253.8,810.5,251.8,812.8,251.8"/>
		<path class="st0" d="M812.8,260.9c-2.6,0-4.7-2.1-4.7-4.8s2.1-4.8,4.7-4.8c2.6,0,4.7,2.1,4.7,4.8S815.4,260.9,812.8,260.9z
			 M812.8,252.3c-2,0-3.7,1.7-3.7,3.8s1.7,3.8,3.7,3.8c2,0,3.7-1.7,3.7-3.8S814.8,252.3,812.8,252.3z"/>
		<path class="st0" d="M1098.9,261.9c2.3,0,4.2,1.9,4.2,4.3s-1.9,4.3-4.2,4.3c-2.3,0-4.2-1.9-4.2-4.3S1096.6,261.9,1098.9,261.9"/>
		<path class="st0" d="M1098.9,270.9c-2.6,0-4.7-2.1-4.7-4.8s2.1-4.8,4.7-4.8c2.6,0,4.7,2.1,4.7,4.8S1101.5,270.9,1098.9,270.9z
			 M1098.9,262.4c-2,0-3.7,1.7-3.7,3.8s1.7,3.8,3.7,3.8s3.7-1.7,3.7-3.8S1101,262.4,1098.9,262.4z"/>
		<path class="st0" d="M1074.1,283.4c2.3,0,4.2,1.9,4.2,4.3s-1.9,4.3-4.2,4.3c-2.3,0-4.2-1.9-4.2-4.3S1071.8,283.4,1074.1,283.4"/>
		<path class="st0" d="M1074.1,292.4c-2.6,0-4.7-2.1-4.7-4.8s2.1-4.8,4.7-4.8s4.7,2.1,4.7,4.8S1076.7,292.4,1074.1,292.4z
			 M1074.1,283.9c-2,0-3.7,1.7-3.7,3.8s1.7,3.8,3.7,3.8s3.7-1.7,3.7-3.8S1076.1,283.9,1074.1,283.9z"/>
		<path class="st0" d="M1040.2,232.7c2.3,0,4.2,1.9,4.2,4.3c0,2.4-1.9,4.3-4.2,4.3c-2.3,0-4.2-1.9-4.2-4.3
			C1035.9,234.6,1037.8,232.7,1040.2,232.7"/>
		<path class="st0" d="M1040.2,241.8c-2.6,0-4.7-2.1-4.7-4.8c0-2.6,2.1-4.8,4.7-4.8c2.6,0,4.7,2.1,4.7,4.8
			C1044.9,239.6,1042.7,241.8,1040.2,241.8z M1040.2,233.2c-2,0-3.7,1.7-3.7,3.8c0,2.1,1.7,3.8,3.7,3.8c2,0,3.7-1.7,3.7-3.8
			C1043.9,234.9,1042.2,233.2,1040.2,233.2z"/>
		<path class="st0" d="M1030.6,429.5c2.3,0,4.2,1.9,4.2,4.3s-1.9,4.3-4.2,4.3s-4.2-1.9-4.2-4.3S1028.3,429.5,1030.6,429.5"/>
		<path class="st0" d="M1030.6,438.6c-2.6,0-4.7-2.1-4.7-4.8s2.1-4.8,4.7-4.8s4.7,2.1,4.7,4.8S1033.2,438.6,1030.6,438.6z
			 M1030.6,430c-2,0-3.7,1.7-3.7,3.8s1.7,3.8,3.7,3.8c2,0,3.7-1.7,3.7-3.8S1032.7,430,1030.6,430z"/>
		<path class="st0" d="M1078.8,477.5c2.3,0,4.2,1.9,4.2,4.3s-1.9,4.3-4.2,4.3c-2.3,0-4.2-1.9-4.2-4.3S1076.5,477.5,1078.8,477.5"/>
		<path class="st0" d="M1078.8,486.6c-2.6,0-4.7-2.1-4.7-4.8c0-2.6,2.1-4.8,4.7-4.8c2.6,0,4.7,2.1,4.7,4.8
			C1083.6,484.4,1081.4,486.6,1078.8,486.6z M1078.8,478c-2,0-3.7,1.7-3.7,3.8s1.7,3.8,3.7,3.8c2,0,3.7-1.7,3.7-3.8
			S1080.9,478,1078.8,478z"/>
		<path class="st0" d="M969,304.4c2.3,0,4.2,1.9,4.2,4.3s-1.9,4.3-4.2,4.3s-4.2-1.9-4.2-4.3S966.7,304.4,969,304.4"/>
		<path class="st0" d="M969,313.4c-2.6,0-4.7-2.1-4.7-4.8c0-2.6,2.1-4.8,4.7-4.8c2.6,0,4.7,2.1,4.7,4.8
			C973.7,311.3,971.6,313.4,969,313.4z M969,304.9c-2,0-3.7,1.7-3.7,3.8s1.7,3.8,3.7,3.8s3.7-1.7,3.7-3.8S971,304.9,969,304.9z"/>
		<path class="st0" d="M928.9,431.4c2.3,0,4.2,1.9,4.2,4.3s-1.9,4.3-4.2,4.3c-2.3,0-4.2-1.9-4.2-4.3S926.5,431.4,928.9,431.4"/>
		<path class="st0" d="M928.9,440.5c-2.6,0-4.7-2.1-4.7-4.8c0-2.6,2.1-4.8,4.7-4.8c2.6,0,4.7,2.1,4.7,4.8
			C933.6,438.3,931.5,440.5,928.9,440.5z M928.9,431.9c-2,0-3.7,1.7-3.7,3.8s1.7,3.8,3.7,3.8c2,0,3.7-1.7,3.7-3.8
			S930.9,431.9,928.9,431.9z"/>
		<path class="st0" d="M913.6,445.3c2.3,0,4.2,1.9,4.2,4.3s-1.9,4.3-4.2,4.3s-4.2-1.9-4.2-4.3S911.3,445.3,913.6,445.3"/>
		<path class="st0" d="M913.6,454.3c-2.6,0-4.7-2.1-4.7-4.8c0-2.6,2.1-4.8,4.7-4.8c2.6,0,4.7,2.1,4.7,4.8
			C918.3,452.2,916.2,454.3,913.6,454.3z M913.6,445.8c-2,0-3.7,1.7-3.7,3.8c0,2.1,1.7,3.8,3.7,3.8s3.7-1.7,3.7-3.8
			C917.3,447.5,915.6,445.8,913.6,445.8z"/>
		<path class="st0" d="M953.2,246.6c2.3,0,4.2,1.9,4.2,4.3s-1.9,4.3-4.2,4.3s-4.2-1.9-4.2-4.3S950.9,246.6,953.2,246.6"/>
		<path class="st0" d="M953.2,255.6c-2.6,0-4.7-2.1-4.7-4.8s2.1-4.8,4.7-4.8c2.6,0,4.7,2.1,4.7,4.8S955.8,255.6,953.2,255.6z
			 M953.2,247.1c-2,0-3.7,1.7-3.7,3.8s1.7,3.8,3.7,3.8s3.7-1.7,3.7-3.8S955.3,247.1,953.2,247.1z"/>
		<path class="st0" d="M916.9,276.2c2.3,0,4.2,1.9,4.2,4.3c0,2.4-1.9,4.3-4.2,4.3c-2.3,0-4.2-1.9-4.2-4.3
			C912.7,278.1,914.6,276.2,916.9,276.2"/>
		<path class="st0" d="M916.9,285.2c-2.6,0-4.7-2.1-4.7-4.8s2.1-4.8,4.7-4.8c2.6,0,4.7,2.1,4.7,4.8S919.5,285.2,916.9,285.2z
			 M916.9,276.7c-2,0-3.7,1.7-3.7,3.8s1.7,3.8,3.7,3.8s3.7-1.7,3.7-3.8S919,276.7,916.9,276.7z"/>
		<path class="st0" d="M888.3,243.7c2.3,0,4.2,1.9,4.2,4.3s-1.9,4.3-4.2,4.3s-4.2-1.9-4.2-4.3S885.9,243.7,888.3,243.7"/>
		<path class="st0" d="M888.3,252.8c-2.6,0-4.7-2.1-4.7-4.8c0-2.6,2.1-4.8,4.7-4.8c2.6,0,4.7,2.1,4.7,4.8
			C893,250.6,890.9,252.8,888.3,252.8z M888.3,244.2c-2,0-3.7,1.7-3.7,3.8c0,2.1,1.7,3.8,3.7,3.8s3.7-1.7,3.7-3.8
			C892,245.9,890.3,244.2,888.3,244.2z"/>
		<path class="st0" d="M916,199.8c2.3,0,4.2,1.9,4.2,4.3c0,2.4-1.9,4.3-4.2,4.3c-2.3,0-4.2-1.9-4.2-4.3
			C911.8,201.7,913.6,199.8,916,199.8"/>
		<path class="st0" d="M916,208.8c-2.6,0-4.7-2.1-4.7-4.8c0-2.6,2.1-4.8,4.7-4.8c2.6,0,4.7,2.1,4.7,4.8
			C920.7,206.7,918.6,208.8,916,208.8z M916,200.3c-2,0-3.7,1.7-3.7,3.8c0,2.1,1.7,3.8,3.7,3.8c2,0,3.7-1.7,3.7-3.8
			C919.7,202,918,200.3,916,200.3z"/>
		<path class="st0" d="M869.6,170.6c2.3,0,4.2,1.9,4.2,4.3s-1.9,4.3-4.2,4.3s-4.2-1.9-4.2-4.3S867.3,170.6,869.6,170.6"/>
		<path class="st0" d="M869.6,179.7c-2.6,0-4.7-2.1-4.7-4.8c0-2.6,2.1-4.8,4.7-4.8c2.6,0,4.7,2.1,4.7,4.8
			C874.3,177.5,872.2,179.7,869.6,179.7z M869.6,171.1c-2,0-3.7,1.7-3.7,3.8c0,2.1,1.7,3.8,3.7,3.8s3.7-1.7,3.7-3.8
			C873.4,172.8,871.7,171.1,869.6,171.1z"/>
		<path class="st0" d="M843.1,263.9c-41.5,0-75.3-34.2-75.3-76.3s33.8-76.3,75.3-76.3s75.3,34.2,75.3,76.3S884.7,263.9,843.1,263.9z
			 M843.1,112.3c-41,0-74.3,33.8-74.3,75.3s33.3,75.3,74.3,75.3s74.3-33.8,74.3-75.3S884.1,112.3,843.1,112.3L843.1,112.3z"/>
		<path class="st0" d="M632.2,376.6c-32.3,0-58.5-26.6-58.5-59.3S600,258,632.2,258c32.3,0,58.5,26.6,58.5,59.3
			S664.5,376.6,632.2,376.6z M632.2,259c-31.7,0-57.6,26.2-57.6,58.3s25.8,58.3,57.6,58.3c31.7,0,57.6-26.2,57.6-58.3
			S664,259,632.2,259z"/>
	</g>
</g>
</svg>
