<?xml version="1.0" encoding="UTF-8"?>
<svg id="Layer_1" data-name="Layer 1" xmlns="http://www.w3.org/2000/svg" viewBox="0 0 150 150">
  <defs>
    <style>
      .cls-1 {
        fill: #005c8a;
        stroke-width: 0px;
      }
    </style>
  </defs>
  <g>
    <polygon class="cls-1" points="122.33 106.51 122.33 133.93 35.55 133.93 35.55 121.51 35.55 106.51 25.21 106.51 25.21 122.24 25.21 144.28 132.67 144.28 132.67 106.51 122.33 106.51"/>
    <path class="cls-1" d="M132.67,66.45v-23.83L92.65,5.72H25.21v60.72h-12.03v42.57h126.72v-42.57h-7.23ZM88.6,16.07l10.34,9,22.03,20.69h-32.37v-29.69ZM35.55,52.74V16.07h44.06v39.59h42.71v10.79H35.55v-13.7ZM134.89,104.01H18.18v-32.57h116.72v32.57Z"/>
  </g>
  <g id="Powerpoint">
    <g>
      <path class="cls-1" d="M48.04,77.97l-8.78,21.02h-4.25l-8.78-21.02h4.22l6.7,15.94,6.67-15.94h4.22Z"/>
      <path class="cls-1" d="M51.75,77.97h3.79v21.02h-3.79v-21.02Z"/>
      <path class="cls-1" d="M61.35,77.97h7.38c2.28,0,4.33.45,6.12,1.35s3.2,2.14,4.21,3.73c1.01,1.59,1.51,3.4,1.51,5.42s-.5,3.83-1.51,5.43c-1.01,1.6-2.41,2.85-4.21,3.75-1.79.9-3.84,1.35-6.12,1.35h-7.38v-21.02ZM69.13,95.53c1.47,0,2.78-.3,3.92-.9,1.14-.6,2.04-1.44,2.68-2.51s.96-2.29.96-3.66-.32-2.58-.96-3.64c-.64-1.06-1.54-1.89-2.68-2.49-1.14-.6-2.45-.9-3.92-.9h-3.98v14.11h3.98Z"/>
      <path class="cls-1" d="M88.83,81.46v5.08h10.83v3.49h-10.83v5.48h12v3.49h-15.82v-21.02h15.82v3.49h-12Z"/>
      <path class="cls-1" d="M109.61,97.87c-1.69-.99-3.04-2.32-4.04-3.99-1-1.67-1.5-3.48-1.5-5.42s.5-3.74,1.5-5.4c1-1.66,2.35-2.99,4.04-3.98s3.52-1.48,5.48-1.48,3.78.5,5.48,1.48,3.04,2.32,4.05,3.98c1.01,1.66,1.52,3.46,1.52,5.4s-.5,3.74-1.52,5.42c-1.01,1.67-2.36,3-4.05,3.99-1.69.99-3.52,1.48-5.48,1.48s-3.79-.49-5.48-1.48ZM118.64,94.86c1.1-.67,1.97-1.58,2.62-2.71.64-1.13.96-2.36.96-3.69s-.32-2.52-.96-3.66c-.64-1.13-1.52-2.04-2.62-2.71-1.1-.67-2.29-1.01-3.55-1.01s-2.44.34-3.54,1.01c-1.09.67-1.96,1.58-2.62,2.71-.65,1.13-.98,2.35-.98,3.66s.33,2.56.98,3.69c.65,1.13,1.52,2.04,2.62,2.71,1.09.67,2.27,1.01,3.54,1.01s2.45-.34,3.55-1.01Z"/>
    </g>
  </g>
</svg>