<?xml version="1.0" encoding="UTF-8"?>
<svg id="Layer_1" data-name="Layer 1" xmlns="http://www.w3.org/2000/svg" viewBox="0 0 150 150">
  <defs>
    <style>
      .cls-1 {
        fill: #005c8a;
        stroke-width: 0px;
      }
    </style>
  </defs>
  <path class="cls-1" d="M115.8,34.2c4.99,5,6.49,13.1,2.42,17.18l-31.11,31.13c9.91,3.86,21.03,2.28,28.38-5.08l15.19-15.23c10.28-10.28,8.62-28.67-2.8-40.08-11.41-11.42-29.81-13.08-40.08-2.81l-15.23,15.22c-4.98,4.98-7.51,11.81-7.11,19.24.16,3.14.86,6.21,2,9.13l31.15-31.13c4.08-4.07,12.19-2.57,17.19,2.43ZM22.1,127.91c11.41,11.41,29.85,13.04,40.16,2.73l15.29-15.29c7.38-7.39,9-18.52,5.15-28.44l-31.13,31.12c-4.07,4.08-12.19,2.58-17.18-2.43-5-4.97-6.5-13.09-2.42-17.17l31.14-31.16c-2.95-1.13-6.02-1.83-9.15-1.98-7.46-.39-14.3,2.16-19.3,7.18l-15.28,15.27c-10.34,10.32-8.69,28.76,2.72,40.18ZM57.43,100.25c-1.92,0-3.87-.85-5.35-2.34-1.35-1.34-2.18-3.05-2.33-4.81-.12-1.71.41-3.26,1.5-4.34l35.83-35.85c.97-.97,2.33-1.5,3.83-1.5,1.91,0,3.87.86,5.36,2.35,1.47,1.47,2.32,3.41,2.32,5.32,0,1.51-.54,2.86-1.52,3.83l-35.83,35.84c-.96.97-2.32,1.5-3.8,1.5h0Z"/>
</svg>