<?xml version="1.0" encoding="UTF-8"?>
<svg id="Layer_1" data-name="Layer 1" xmlns="http://www.w3.org/2000/svg" viewBox="0 0 150 150">
  <defs>
    <style>
      .cls-1 {
        fill: #005c8a;
        stroke-width: 0px;
      }
    </style>
  </defs>
  <path class="cls-1" d="M92.65,5.72H25.21v138.56h107.46V42.61L92.65,5.72ZM88.6,16.07l10.34,9,22.03,20.69h-32.37v-29.69ZM122.33,133.93H35.55V16.07h44.06v39.59h42.71v78.28Z"/>
  <path class="cls-1" d="M109.4,84.16c-5.93-1.73-15.14-.25-24.83,2.98-4.64-2.86-9.27-6.13-13.37-9.47.57-9.46-.31-17.8-3.11-22.15-2.59-4.03-6.72-5.14-11.34-3.01-4.34,1.98-6.11,5.78-4.86,10.41,1.33,4.95,6.55,11.19,13.46,17.23-.52,5.54-1.53,11.44-2.87,16.98-8.78,5.07-15.87,10.75-18.51,15.61-2.25,4.12-1.73,8.06,1.44,10.8,1.66,1.44,3.46,2.14,5.28,2.14,1.93,0,3.88-.8,5.73-2.4,4.42-3.85,8.25-12.41,10.94-22.33,5.22-2.85,10.99-5.48,16.61-7.54,9.63,5.59,19.2,9.26,25.25,8.69,4.5-.43,7.24-3.14,7.54-7.44.37-5.27-2.25-8.99-7.37-10.5ZM52.68,118.97c-1.61,1.4-2.45,1.17-3.53.24-.6-.52-1.5-1.29-.16-3.75,1.64-3.03,5.75-6.63,11.14-10.16-2.12,6.23-4.68,11.27-7.45,13.68ZM57.4,61.42c-.52-1.93-.07-2.9,1.73-3.74,2.31-1.05,3.27-.45,4.16.92,1.8,2.8,2.54,8,2.46,14.25-4.37-4.19-7.49-8.25-8.36-11.43ZM69.1,93.57c.61-3.03,1.12-6.11,1.49-9.15,2.33,1.81,4.78,3.55,7.28,5.2-2.97,1.2-5.91,2.53-8.77,3.95ZM108.68,96.42c-4.03.41-10.38-1.82-17.28-5.4,6.63-1.81,12.53-2.5,16.41-1.37,2.5.73,3.45,2.06,3.27,4.62-.09,1.29-.49,1.97-2.4,2.15Z"/>
</svg>