<svg xmlns="http://www.w3.org/2000/svg" viewBox="0 0 330.45 289.71"><defs><style>.cls-1{fill:#218fcf;}.cls-2{fill:#1d4489;}.cls-3{fill:#00438c;}</style></defs><g id="Layer_2" data-name="Layer 2"><g id="Layer_1-2" data-name="Layer 1"><path class="cls-1" d="M199.31,227.26c-6,4.87-15.1,3.68-20.22-2.65l-1-1.23-5.54,4.49,1,1.23a22.5,22.5,0,0,0,14.62,8.25,23.83,23.83,0,0,0,2.78.17,20.51,20.51,0,0,0,13-4.57l1.22-1-4.61-5.7Z"/><rect class="cls-1" x="174.08" y="190.04" width="27.71" height="7.33" transform="translate(-80.01 161.37) rotate(-38.99)"/><path class="cls-2" d="M165.48,254.65a13.6,13.6,0,0,1-10.41,2.88,15.3,15.3,0,0,1-13.18-16.28,13.6,13.6,0,0,1,5-9.58L166,216.22c6-4.88,15.1-3.69,20.23,2.64a15.78,15.78,0,0,1,3,6.32l.34,1.43,7.11-1.16-.39-1.65a23.52,23.52,0,0,0-4.57-9.43,22.44,22.44,0,0,0-14.62-8.24,20.58,20.58,0,0,0-15.76,4.39L142.26,226c-9.08,7.35-10.22,21-2.55,30.51a22.44,22.44,0,0,0,17.39,8.41,20.53,20.53,0,0,0,13-4.56L190.4,243.9l-4.61-5.7Z"/><path class="cls-1" d="M217.25,180.54l-1.51-.68-2.6,6.68,1.32.63a15.73,15.73,0,0,1,5.54,4.3,15,15,0,0,1,3.37,10.75,13.58,13.58,0,0,1-5,9.58l-1.22,1,4.61,5.69,1.22-1c9.08-7.36,10.22-21.05,2.55-30.52A23.06,23.06,0,0,0,217.25,180.54Z"/><path class="cls-2" d="M259.63,159.39A22.43,22.43,0,0,0,245,151.14a20.61,20.61,0,0,0-15.75,4.39L210.16,171a20.59,20.59,0,0,0-7.57,14.49,22.95,22.95,0,0,0,14,22.8l1.48.61,2.62-6.73-1.48-.57a15,15,0,0,1-6.1-4.58c-5.13-6.33-4.41-15.45,1.61-20.33l19.09-15.45a13.59,13.59,0,0,1,10.41-2.88,15.3,15.3,0,0,1,13.18,16.28,13.67,13.67,0,0,1-5,9.58l-20.31,16.44,4.61,5.7,20.31-16.45C266.16,182.55,267.3,168.86,259.63,159.39Z"/><circle class="cls-1" cx="96.51" cy="106.83" r="5.57"/><circle class="cls-1" cx="125.3" cy="106.83" r="5.57"/><circle class="cls-1" cx="153.08" cy="106.83" r="5.57"/><path class="cls-3" d="M63.32,74.9V289.71H330.45V74.9Zm259.9,207.62H70.51V137.29H308V130.1H70.51v-48H323.22Z"/><circle class="cls-1" cx="25.37" cy="24.4" r="4.26"/><circle class="cls-1" cx="47.37" cy="24.4" r="4.26"/><circle class="cls-1" cx="68.61" cy="24.4" r="4.26"/><polygon class="cls-3" points="0 0 0 164.18 63.33 164.18 63.33 158.69 5.49 158.69 5.49 47.69 187.01 47.69 187.01 42.19 5.49 42.19 5.49 5.49 198.65 5.49 198.65 74.91 204.18 74.91 204.18 0 0 0"/></g></g></svg>