<?xml version="1.0" encoding="utf-8"?>
<!-- Generator: Adobe Illustrator 25.0.0, SVG Export Plug-In . SVG Version: 6.00 Build 0)  -->
<svg version="1.1" id="Layer_1" xmlns="http://www.w3.org/2000/svg" xmlns:xlink="http://www.w3.org/1999/xlink" x="0px" y="0px"
	 viewBox="0 0 120 120" style="enable-background:new 0 0 120 120;" xml:space="preserve">
<style type="text/css">
	.st0{display:none;}
	.st1{display:inline;}
	.st2{fill:#FFFFFF;stroke:#EC008C;stroke-width:0.1;stroke-miterlimit:10;}
	.st3{fill:#1D428A;}
	.st4{fill:#0091DA;}
</style>
<g id="_x39_5x95_Grids" class="st0">
	<g class="st1">
		<rect x="12.4" y="12.6" class="st2" width="5" height="5"/>
		<rect x="17.4" y="12.6" class="st2" width="5" height="5"/>
		<rect x="22.4" y="12.6" class="st2" width="5" height="5"/>
		<rect x="27.4" y="12.6" class="st2" width="5" height="5"/>
		<rect x="32.4" y="12.6" class="st2" width="5" height="5"/>
		<rect x="37.4" y="12.6" class="st2" width="5" height="5"/>
		<rect x="42.4" y="12.6" class="st2" width="5" height="5"/>
		<rect x="47.4" y="12.6" class="st2" width="5" height="5"/>
		<rect x="52.4" y="12.6" class="st2" width="5" height="5"/>
		<rect x="57.4" y="12.6" class="st2" width="5" height="5"/>
		<rect x="62.4" y="12.6" class="st2" width="5" height="5"/>
		<rect x="67.4" y="12.6" class="st2" width="5" height="5"/>
		<rect x="72.4" y="12.6" class="st2" width="5" height="5"/>
		<rect x="77.4" y="12.6" class="st2" width="5" height="5"/>
		<rect x="82.4" y="12.6" class="st2" width="5" height="5"/>
		<rect x="87.4" y="12.6" class="st2" width="5" height="5"/>
		<rect x="92.4" y="12.6" class="st2" width="5" height="5"/>
		<rect x="97.4" y="12.6" class="st2" width="5" height="5"/>
		<rect x="102.4" y="12.6" class="st2" width="5" height="5"/>
		<rect x="12.4" y="17.6" class="st2" width="5" height="5"/>
		<rect x="17.4" y="17.6" class="st2" width="5" height="5"/>
		<rect x="22.4" y="17.6" class="st2" width="5" height="5"/>
		<rect x="27.4" y="17.6" class="st2" width="5" height="5"/>
		<rect x="32.4" y="17.6" class="st2" width="5" height="5"/>
		<rect x="37.4" y="17.6" class="st2" width="5" height="5"/>
		<rect x="42.4" y="17.6" class="st2" width="5" height="5"/>
		<rect x="47.4" y="17.6" class="st2" width="5" height="5"/>
		<rect x="52.4" y="17.6" class="st2" width="5" height="5"/>
		<rect x="57.4" y="17.6" class="st2" width="5" height="5"/>
		<rect x="62.4" y="17.6" class="st2" width="5" height="5"/>
		<rect x="67.4" y="17.6" class="st2" width="5" height="5"/>
		<rect x="72.4" y="17.6" class="st2" width="5" height="5"/>
		<rect x="77.4" y="17.6" class="st2" width="5" height="5"/>
		<rect x="82.4" y="17.6" class="st2" width="5" height="5"/>
		<rect x="87.4" y="17.6" class="st2" width="5" height="5"/>
		<rect x="92.4" y="17.6" class="st2" width="5" height="5"/>
		<rect x="97.4" y="17.6" class="st2" width="5" height="5"/>
		<rect x="102.4" y="17.6" class="st2" width="5" height="5"/>
		<rect x="12.4" y="22.6" class="st2" width="5" height="5"/>
		<rect x="17.4" y="22.6" class="st2" width="5" height="5"/>
		<rect x="22.4" y="22.6" class="st2" width="5" height="5"/>
		<rect x="27.4" y="22.6" class="st2" width="5" height="5"/>
		<rect x="32.4" y="22.6" class="st2" width="5" height="5"/>
		<rect x="37.4" y="22.6" class="st2" width="5" height="5"/>
		<rect x="42.4" y="22.6" class="st2" width="5" height="5"/>
		<rect x="47.4" y="22.6" class="st2" width="5" height="5"/>
		<rect x="52.4" y="22.6" class="st2" width="5" height="5"/>
		<rect x="57.4" y="22.6" class="st2" width="5" height="5"/>
		<rect x="62.4" y="22.6" class="st2" width="5" height="5"/>
		<rect x="67.4" y="22.6" class="st2" width="5" height="5"/>
		<rect x="72.4" y="22.6" class="st2" width="5" height="5"/>
		<rect x="77.4" y="22.6" class="st2" width="5" height="5"/>
		<rect x="82.4" y="22.6" class="st2" width="5" height="5"/>
		<rect x="87.4" y="22.6" class="st2" width="5" height="5"/>
		<rect x="92.4" y="22.6" class="st2" width="5" height="5"/>
		<rect x="97.4" y="22.6" class="st2" width="5" height="5"/>
		<rect x="102.4" y="22.6" class="st2" width="5" height="5"/>
		<rect x="12.4" y="27.6" class="st2" width="5" height="5"/>
		<rect x="17.4" y="27.6" class="st2" width="5" height="5"/>
		<rect x="22.4" y="27.6" class="st2" width="5" height="5"/>
		<rect x="27.4" y="27.6" class="st2" width="5" height="5"/>
		<rect x="32.4" y="27.6" class="st2" width="5" height="5"/>
		<rect x="37.4" y="27.6" class="st2" width="5" height="5"/>
		<rect x="42.4" y="27.6" class="st2" width="5" height="5"/>
		<rect x="47.4" y="27.6" class="st2" width="5" height="5"/>
		<rect x="52.4" y="27.6" class="st2" width="5" height="5"/>
		<rect x="57.4" y="27.6" class="st2" width="5" height="5"/>
		<rect x="62.4" y="27.6" class="st2" width="5" height="5"/>
		<rect x="67.4" y="27.6" class="st2" width="5" height="5"/>
		<rect x="72.4" y="27.6" class="st2" width="5" height="5"/>
		<rect x="77.4" y="27.6" class="st2" width="5" height="5"/>
		<rect x="82.4" y="27.6" class="st2" width="5" height="5"/>
		<rect x="87.4" y="27.6" class="st2" width="5" height="5"/>
		<rect x="92.4" y="27.6" class="st2" width="5" height="5"/>
		<rect x="97.4" y="27.6" class="st2" width="5" height="5"/>
		<rect x="102.4" y="27.6" class="st2" width="5" height="5"/>
		<rect x="12.4" y="32.6" class="st2" width="5" height="5"/>
		<rect x="17.4" y="32.6" class="st2" width="5" height="5"/>
		<rect x="22.4" y="32.6" class="st2" width="5" height="5"/>
		<rect x="27.4" y="32.6" class="st2" width="5" height="5"/>
		<rect x="32.4" y="32.6" class="st2" width="5" height="5"/>
		<rect x="37.4" y="32.6" class="st2" width="5" height="5"/>
		<rect x="42.4" y="32.6" class="st2" width="5" height="5"/>
		<rect x="47.4" y="32.6" class="st2" width="5" height="5"/>
		<rect x="52.4" y="32.6" class="st2" width="5" height="5"/>
		<rect x="57.4" y="32.6" class="st2" width="5" height="5"/>
		<rect x="62.4" y="32.6" class="st2" width="5" height="5"/>
		<rect x="67.4" y="32.6" class="st2" width="5" height="5"/>
		<rect x="72.4" y="32.6" class="st2" width="5" height="5"/>
		<rect x="77.4" y="32.6" class="st2" width="5" height="5"/>
		<rect x="82.4" y="32.6" class="st2" width="5" height="5"/>
		<rect x="87.4" y="32.6" class="st2" width="5" height="5"/>
		<rect x="92.4" y="32.6" class="st2" width="5" height="5"/>
		<rect x="97.4" y="32.6" class="st2" width="5" height="5"/>
		<rect x="102.4" y="32.6" class="st2" width="5" height="5"/>
		<rect x="12.4" y="37.6" class="st2" width="5" height="5"/>
		<rect x="17.4" y="37.6" class="st2" width="5" height="5"/>
		<rect x="22.4" y="37.6" class="st2" width="5" height="5"/>
		<rect x="27.4" y="37.6" class="st2" width="5" height="5"/>
		<rect x="32.4" y="37.6" class="st2" width="5" height="5"/>
		<rect x="37.4" y="37.6" class="st2" width="5" height="5"/>
		<rect x="42.4" y="37.6" class="st2" width="5" height="5"/>
		<rect x="47.4" y="37.6" class="st2" width="5" height="5"/>
		<rect x="52.4" y="37.6" class="st2" width="5" height="5"/>
		<rect x="57.4" y="37.6" class="st2" width="5" height="5"/>
		<rect x="62.4" y="37.6" class="st2" width="5" height="5"/>
		<rect x="67.4" y="37.6" class="st2" width="5" height="5"/>
		<rect x="72.4" y="37.6" class="st2" width="5" height="5"/>
		<rect x="77.4" y="37.6" class="st2" width="5" height="5"/>
		<rect x="82.4" y="37.6" class="st2" width="5" height="5"/>
		<rect x="87.4" y="37.6" class="st2" width="5" height="5"/>
		<rect x="92.4" y="37.6" class="st2" width="5" height="5"/>
		<rect x="97.4" y="37.6" class="st2" width="5" height="5"/>
		<rect x="102.4" y="37.6" class="st2" width="5" height="5"/>
		<rect x="12.4" y="42.6" class="st2" width="5" height="5"/>
		<rect x="17.4" y="42.6" class="st2" width="5" height="5"/>
		<rect x="22.4" y="42.6" class="st2" width="5" height="5"/>
		<rect x="27.4" y="42.6" class="st2" width="5" height="5"/>
		<rect x="32.4" y="42.6" class="st2" width="5" height="5"/>
		<rect x="37.4" y="42.6" class="st2" width="5" height="5"/>
		<rect x="42.4" y="42.6" class="st2" width="5" height="5"/>
		<rect x="47.4" y="42.6" class="st2" width="5" height="5"/>
		<rect x="52.4" y="42.6" class="st2" width="5" height="5"/>
		<rect x="57.4" y="42.6" class="st2" width="5" height="5"/>
		<rect x="62.4" y="42.6" class="st2" width="5" height="5"/>
		<rect x="67.4" y="42.6" class="st2" width="5" height="5"/>
		<rect x="72.4" y="42.6" class="st2" width="5" height="5"/>
		<rect x="77.4" y="42.6" class="st2" width="5" height="5"/>
		<rect x="82.4" y="42.6" class="st2" width="5" height="5"/>
		<rect x="87.4" y="42.6" class="st2" width="5" height="5"/>
		<rect x="92.4" y="42.6" class="st2" width="5" height="5"/>
		<rect x="97.4" y="42.6" class="st2" width="5" height="5"/>
		<rect x="102.4" y="42.6" class="st2" width="5" height="5"/>
		<rect x="12.4" y="47.6" class="st2" width="5" height="5"/>
		<rect x="17.4" y="47.6" class="st2" width="5" height="5"/>
		<rect x="22.4" y="47.6" class="st2" width="5" height="5"/>
		<rect x="27.4" y="47.6" class="st2" width="5" height="5"/>
		<rect x="32.4" y="47.6" class="st2" width="5" height="5"/>
		<rect x="37.4" y="47.6" class="st2" width="5" height="5"/>
		<rect x="42.4" y="47.6" class="st2" width="5" height="5"/>
		<rect x="47.4" y="47.6" class="st2" width="5" height="5"/>
		<rect x="52.4" y="47.6" class="st2" width="5" height="5"/>
		<rect x="57.4" y="47.6" class="st2" width="5" height="5"/>
		<rect x="62.4" y="47.6" class="st2" width="5" height="5"/>
		<rect x="67.4" y="47.6" class="st2" width="5" height="5"/>
		<rect x="72.4" y="47.6" class="st2" width="5" height="5"/>
		<rect x="77.4" y="47.6" class="st2" width="5" height="5"/>
		<rect x="82.4" y="47.6" class="st2" width="5" height="5"/>
		<rect x="87.4" y="47.6" class="st2" width="5" height="5"/>
		<rect x="92.4" y="47.6" class="st2" width="5" height="5"/>
		<rect x="97.4" y="47.6" class="st2" width="5" height="5"/>
		<rect x="102.4" y="47.6" class="st2" width="5" height="5"/>
		<rect x="12.4" y="52.6" class="st2" width="5" height="5"/>
		<rect x="17.4" y="52.6" class="st2" width="5" height="5"/>
		<rect x="22.4" y="52.6" class="st2" width="5" height="5"/>
		<rect x="27.4" y="52.6" class="st2" width="5" height="5"/>
		<rect x="32.4" y="52.6" class="st2" width="5" height="5"/>
		<rect x="37.4" y="52.6" class="st2" width="5" height="5"/>
		<rect x="42.4" y="52.6" class="st2" width="5" height="5"/>
		<rect x="47.4" y="52.6" class="st2" width="5" height="5"/>
		<rect x="52.4" y="52.6" class="st2" width="5" height="5"/>
		<rect x="57.4" y="52.6" class="st2" width="5" height="5"/>
		<rect x="62.4" y="52.6" class="st2" width="5" height="5"/>
		<rect x="67.4" y="52.6" class="st2" width="5" height="5"/>
		<rect x="72.4" y="52.6" class="st2" width="5" height="5"/>
		<rect x="77.4" y="52.6" class="st2" width="5" height="5"/>
		<rect x="82.4" y="52.6" class="st2" width="5" height="5"/>
		<rect x="87.4" y="52.6" class="st2" width="5" height="5"/>
		<rect x="92.4" y="52.6" class="st2" width="5" height="5"/>
		<rect x="97.4" y="52.6" class="st2" width="5" height="5"/>
		<rect x="102.4" y="52.6" class="st2" width="5" height="5"/>
		<rect x="12.4" y="57.6" class="st2" width="5" height="5"/>
		<rect x="17.4" y="57.6" class="st2" width="5" height="5"/>
		<rect x="22.4" y="57.6" class="st2" width="5" height="5"/>
		<rect x="27.4" y="57.6" class="st2" width="5" height="5"/>
		<rect x="32.4" y="57.6" class="st2" width="5" height="5"/>
		<rect x="37.4" y="57.6" class="st2" width="5" height="5"/>
		<rect x="42.4" y="57.6" class="st2" width="5" height="5"/>
		<rect x="47.4" y="57.6" class="st2" width="5" height="5"/>
		<rect x="52.4" y="57.6" class="st2" width="5" height="5"/>
		<rect x="57.4" y="57.6" class="st2" width="5" height="5"/>
		<rect x="62.4" y="57.6" class="st2" width="5" height="5"/>
		<rect x="67.4" y="57.6" class="st2" width="5" height="5"/>
		<rect x="72.4" y="57.6" class="st2" width="5" height="5"/>
		<rect x="77.4" y="57.6" class="st2" width="5" height="5"/>
		<rect x="82.4" y="57.6" class="st2" width="5" height="5"/>
		<rect x="87.4" y="57.6" class="st2" width="5" height="5"/>
		<rect x="92.4" y="57.6" class="st2" width="5" height="5"/>
		<rect x="97.4" y="57.6" class="st2" width="5" height="5"/>
		<rect x="102.4" y="57.6" class="st2" width="5" height="5"/>
		<rect x="12.4" y="62.6" class="st2" width="5" height="5"/>
		<rect x="17.4" y="62.6" class="st2" width="5" height="5"/>
		<rect x="22.4" y="62.6" class="st2" width="5" height="5"/>
		<rect x="27.4" y="62.6" class="st2" width="5" height="5"/>
		<rect x="32.4" y="62.6" class="st2" width="5" height="5"/>
		<rect x="37.4" y="62.6" class="st2" width="5" height="5"/>
		<rect x="42.4" y="62.6" class="st2" width="5" height="5"/>
		<rect x="47.4" y="62.6" class="st2" width="5" height="5"/>
		<rect x="52.4" y="62.6" class="st2" width="5" height="5"/>
		<rect x="57.4" y="62.6" class="st2" width="5" height="5"/>
		<rect x="62.4" y="62.6" class="st2" width="5" height="5"/>
		<rect x="67.4" y="62.6" class="st2" width="5" height="5"/>
		<rect x="72.4" y="62.6" class="st2" width="5" height="5"/>
		<rect x="77.4" y="62.6" class="st2" width="5" height="5"/>
		<rect x="82.4" y="62.6" class="st2" width="5" height="5"/>
		<rect x="87.4" y="62.6" class="st2" width="5" height="5"/>
		<rect x="92.4" y="62.6" class="st2" width="5" height="5"/>
		<rect x="97.4" y="62.6" class="st2" width="5" height="5"/>
		<rect x="102.4" y="62.6" class="st2" width="5" height="5"/>
		<rect x="12.4" y="67.6" class="st2" width="5" height="5"/>
		<rect x="17.4" y="67.6" class="st2" width="5" height="5"/>
		<rect x="22.4" y="67.6" class="st2" width="5" height="5"/>
		<rect x="27.4" y="67.6" class="st2" width="5" height="5"/>
		<rect x="32.4" y="67.6" class="st2" width="5" height="5"/>
		<rect x="37.4" y="67.6" class="st2" width="5" height="5"/>
		<rect x="42.4" y="67.6" class="st2" width="5" height="5"/>
		<rect x="47.4" y="67.6" class="st2" width="5" height="5"/>
		<rect x="52.4" y="67.6" class="st2" width="5" height="5"/>
		<rect x="57.4" y="67.6" class="st2" width="5" height="5"/>
		<rect x="62.4" y="67.6" class="st2" width="5" height="5"/>
		<rect x="67.4" y="67.6" class="st2" width="5" height="5"/>
		<rect x="72.4" y="67.6" class="st2" width="5" height="5"/>
		<rect x="77.4" y="67.6" class="st2" width="5" height="5"/>
		<rect x="82.4" y="67.6" class="st2" width="5" height="5"/>
		<rect x="87.4" y="67.6" class="st2" width="5" height="5"/>
		<rect x="92.4" y="67.6" class="st2" width="5" height="5"/>
		<rect x="97.4" y="67.6" class="st2" width="5" height="5"/>
		<rect x="102.4" y="67.6" class="st2" width="5" height="5"/>
		<rect x="12.4" y="72.6" class="st2" width="5" height="5"/>
		<rect x="17.4" y="72.6" class="st2" width="5" height="5"/>
		<rect x="22.4" y="72.6" class="st2" width="5" height="5"/>
		<rect x="27.4" y="72.6" class="st2" width="5" height="5"/>
		<rect x="32.4" y="72.6" class="st2" width="5" height="5"/>
		<rect x="37.4" y="72.6" class="st2" width="5" height="5"/>
		<rect x="42.4" y="72.6" class="st2" width="5" height="5"/>
		<rect x="47.4" y="72.6" class="st2" width="5" height="5"/>
		<rect x="52.4" y="72.6" class="st2" width="5" height="5"/>
		<rect x="57.4" y="72.6" class="st2" width="5" height="5"/>
		<rect x="62.4" y="72.6" class="st2" width="5" height="5"/>
		<rect x="67.4" y="72.6" class="st2" width="5" height="5"/>
		<rect x="72.4" y="72.6" class="st2" width="5" height="5"/>
		<rect x="77.4" y="72.6" class="st2" width="5" height="5"/>
		<rect x="82.4" y="72.6" class="st2" width="5" height="5"/>
		<rect x="87.4" y="72.6" class="st2" width="5" height="5"/>
		<rect x="92.4" y="72.6" class="st2" width="5" height="5"/>
		<rect x="97.4" y="72.6" class="st2" width="5" height="5"/>
		<rect x="102.4" y="72.6" class="st2" width="5" height="5"/>
		<rect x="12.4" y="77.6" class="st2" width="5" height="5"/>
		<rect x="17.4" y="77.6" class="st2" width="5" height="5"/>
		<rect x="22.4" y="77.6" class="st2" width="5" height="5"/>
		<rect x="27.4" y="77.6" class="st2" width="5" height="5"/>
		<rect x="32.4" y="77.6" class="st2" width="5" height="5"/>
		<rect x="37.4" y="77.6" class="st2" width="5" height="5"/>
		<rect x="42.4" y="77.6" class="st2" width="5" height="5"/>
		<rect x="47.4" y="77.6" class="st2" width="5" height="5"/>
		<rect x="52.4" y="77.6" class="st2" width="5" height="5"/>
		<rect x="57.4" y="77.6" class="st2" width="5" height="5"/>
		<rect x="62.4" y="77.6" class="st2" width="5" height="5"/>
		<rect x="67.4" y="77.6" class="st2" width="5" height="5"/>
		<rect x="72.4" y="77.6" class="st2" width="5" height="5"/>
		<rect x="77.4" y="77.6" class="st2" width="5" height="5"/>
		<rect x="82.4" y="77.6" class="st2" width="5" height="5"/>
		<rect x="87.4" y="77.6" class="st2" width="5" height="5"/>
		<rect x="92.4" y="77.6" class="st2" width="5" height="5"/>
		<rect x="97.4" y="77.6" class="st2" width="5" height="5"/>
		<rect x="102.4" y="77.6" class="st2" width="5" height="5"/>
		<rect x="12.4" y="82.6" class="st2" width="5" height="5"/>
		<rect x="17.4" y="82.6" class="st2" width="5" height="5"/>
		<rect x="22.4" y="82.6" class="st2" width="5" height="5"/>
		<rect x="27.4" y="82.6" class="st2" width="5" height="5"/>
		<rect x="32.4" y="82.6" class="st2" width="5" height="5"/>
		<rect x="37.4" y="82.6" class="st2" width="5" height="5"/>
		<rect x="42.4" y="82.6" class="st2" width="5" height="5"/>
		<rect x="47.4" y="82.6" class="st2" width="5" height="5"/>
		<rect x="52.4" y="82.6" class="st2" width="5" height="5"/>
		<rect x="57.4" y="82.6" class="st2" width="5" height="5"/>
		<rect x="62.4" y="82.6" class="st2" width="5" height="5"/>
		<rect x="67.4" y="82.6" class="st2" width="5" height="5"/>
		<rect x="72.4" y="82.6" class="st2" width="5" height="5"/>
		<rect x="77.4" y="82.6" class="st2" width="5" height="5"/>
		<rect x="82.4" y="82.6" class="st2" width="5" height="5"/>
		<rect x="87.4" y="82.6" class="st2" width="5" height="5"/>
		<rect x="92.4" y="82.6" class="st2" width="5" height="5"/>
		<rect x="97.4" y="82.6" class="st2" width="5" height="5"/>
		<rect x="102.4" y="82.6" class="st2" width="5" height="5"/>
		<rect x="12.4" y="87.6" class="st2" width="5" height="5"/>
		<rect x="17.4" y="87.6" class="st2" width="5" height="5"/>
		<rect x="22.4" y="87.6" class="st2" width="5" height="5"/>
		<rect x="27.4" y="87.6" class="st2" width="5" height="5"/>
		<rect x="32.4" y="87.6" class="st2" width="5" height="5"/>
		<rect x="37.4" y="87.6" class="st2" width="5" height="5"/>
		<rect x="42.4" y="87.6" class="st2" width="5" height="5"/>
		<rect x="47.4" y="87.6" class="st2" width="5" height="5"/>
		<rect x="52.4" y="87.6" class="st2" width="5" height="5"/>
		<rect x="57.4" y="87.6" class="st2" width="5" height="5"/>
		<rect x="62.4" y="87.6" class="st2" width="5" height="5"/>
		<rect x="67.4" y="87.6" class="st2" width="5" height="5"/>
		<rect x="72.4" y="87.6" class="st2" width="5" height="5"/>
		<rect x="77.4" y="87.6" class="st2" width="5" height="5"/>
		<rect x="82.4" y="87.6" class="st2" width="5" height="5"/>
		<rect x="87.4" y="87.6" class="st2" width="5" height="5"/>
		<rect x="92.4" y="87.6" class="st2" width="5" height="5"/>
		<rect x="97.4" y="87.6" class="st2" width="5" height="5"/>
		<rect x="102.4" y="87.6" class="st2" width="5" height="5"/>
		<rect x="12.4" y="92.6" class="st2" width="5" height="5"/>
		<rect x="17.4" y="92.6" class="st2" width="5" height="5"/>
		<rect x="22.4" y="92.6" class="st2" width="5" height="5"/>
		<rect x="27.4" y="92.6" class="st2" width="5" height="5"/>
		<rect x="32.4" y="92.6" class="st2" width="5" height="5"/>
		<rect x="37.4" y="92.6" class="st2" width="5" height="5"/>
		<rect x="42.4" y="92.6" class="st2" width="5" height="5"/>
		<rect x="47.4" y="92.6" class="st2" width="5" height="5"/>
		<rect x="52.4" y="92.6" class="st2" width="5" height="5"/>
		<rect x="57.4" y="92.6" class="st2" width="5" height="5"/>
		<rect x="62.4" y="92.6" class="st2" width="5" height="5"/>
		<rect x="67.4" y="92.6" class="st2" width="5" height="5"/>
		<rect x="72.4" y="92.6" class="st2" width="5" height="5"/>
		<rect x="77.4" y="92.6" class="st2" width="5" height="5"/>
		<rect x="82.4" y="92.6" class="st2" width="5" height="5"/>
		<rect x="87.4" y="92.6" class="st2" width="5" height="5"/>
		<rect x="92.4" y="92.6" class="st2" width="5" height="5"/>
		<rect x="97.4" y="92.6" class="st2" width="5" height="5"/>
		<rect x="102.4" y="92.6" class="st2" width="5" height="5"/>
		<rect x="12.4" y="97.6" class="st2" width="5" height="5"/>
		<rect x="17.4" y="97.6" class="st2" width="5" height="5"/>
		<rect x="22.4" y="97.6" class="st2" width="5" height="5"/>
		<rect x="27.4" y="97.6" class="st2" width="5" height="5"/>
		<rect x="32.4" y="97.6" class="st2" width="5" height="5"/>
		<rect x="37.4" y="97.6" class="st2" width="5" height="5"/>
		<rect x="42.4" y="97.6" class="st2" width="5" height="5"/>
		<rect x="47.4" y="97.6" class="st2" width="5" height="5"/>
		<rect x="52.4" y="97.6" class="st2" width="5" height="5"/>
		<rect x="57.4" y="97.6" class="st2" width="5" height="5"/>
		<rect x="62.4" y="97.6" class="st2" width="5" height="5"/>
		<rect x="67.4" y="97.6" class="st2" width="5" height="5"/>
		<rect x="72.4" y="97.6" class="st2" width="5" height="5"/>
		<rect x="77.4" y="97.6" class="st2" width="5" height="5"/>
		<rect x="82.4" y="97.6" class="st2" width="5" height="5"/>
		<rect x="87.4" y="97.6" class="st2" width="5" height="5"/>
		<rect x="92.4" y="97.6" class="st2" width="5" height="5"/>
		<rect x="97.4" y="97.6" class="st2" width="5" height="5"/>
		<rect x="102.4" y="97.6" class="st2" width="5" height="5"/>
		<rect x="12.4" y="102.6" class="st2" width="5" height="5"/>
		<rect x="17.4" y="102.6" class="st2" width="5" height="5"/>
		<rect x="22.4" y="102.6" class="st2" width="5" height="5"/>
		<rect x="27.4" y="102.6" class="st2" width="5" height="5"/>
		<rect x="32.4" y="102.6" class="st2" width="5" height="5"/>
		<rect x="37.4" y="102.6" class="st2" width="5" height="5"/>
		<rect x="42.4" y="102.6" class="st2" width="5" height="5"/>
		<rect x="47.4" y="102.6" class="st2" width="5" height="5"/>
		<rect x="52.4" y="102.6" class="st2" width="5" height="5"/>
		<rect x="57.4" y="102.6" class="st2" width="5" height="5"/>
		<rect x="62.4" y="102.6" class="st2" width="5" height="5"/>
		<rect x="67.4" y="102.6" class="st2" width="5" height="5"/>
		<rect x="72.4" y="102.6" class="st2" width="5" height="5"/>
		<rect x="77.4" y="102.6" class="st2" width="5" height="5"/>
		<rect x="82.4" y="102.6" class="st2" width="5" height="5"/>
		<rect x="87.4" y="102.6" class="st2" width="5" height="5"/>
		<rect x="92.4" y="102.6" class="st2" width="5" height="5"/>
		<rect x="97.4" y="102.6" class="st2" width="5" height="5"/>
		<rect x="102.4" y="102.6" class="st2" width="5" height="5"/>
	</g>
</g>
<g id="Business_2color-light_bk">
	<g id="File_PDF_1_">
		<g>
			<path class="st3" d="M95.4,119.6H24.6c-0.9,0-1.5-0.8-1.5-1.5V89.9c0-0.9,0.8-0.5,1.5-0.5s1.5-0.3,1.5,0.5v26.5h67.6V90.1
				c0-0.9,0.8-1.5,1.5-1.5s1.5,0.8,1.5,1.5v27.9C97,118.9,96.3,119.6,95.4,119.6z"/>
		</g>
		<g>
			<g>
				<path class="st3" d="M95.4,52.9c-0.9,0-1.5-0.8-1.5-1.5V3.7H44.4L26.1,22v29.1c0,0.9-0.8,1.5-1.5,1.5S23,51.9,23,51.1V21.4
					c0-0.4,0.1-0.8,0.5-1.2L42.7,0.9c0.3-0.3,0.8-0.5,1.2-0.5h51.5c0.9,0,1.5,0.8,1.5,1.5v49.2C97,52.3,96.3,52.9,95.4,52.9z"/>
			</g>
			<g>
				<path class="st3" d="M44.2,23.1H24.8c-0.9,0-1.5-0.8-1.5-1.5c0-0.8,0.8-1.5,1.5-1.5h17.8V2.2c0-0.9,0.8-1.5,1.5-1.5
					s1.5,0.8,1.5,1.5v19.3C45.8,22.4,45.1,23.1,44.2,23.1z"/>
			</g>
		</g>
		<g>
			<path class="st4" d="M32.2,62.5h8.4c4,0,7,2.6,7,6.3c0,3.7-3,6.3-7,6.3h-4.4v6.1h-4V62.5z M40.2,71.3c1.9,0,3.3-1,3.3-2.6
				s-1.3-2.6-3.3-2.6h-4v5.3h4V71.3z"/>
			<path class="st4" d="M53.8,62.5h6.7c6.3,0,10.7,3.9,10.7,9.3S66.8,81,60.5,81h-6.7C53.8,81,53.8,62.5,53.8,62.5z M60.9,77.4
				c3.6,0,6.1-2.3,6.1-5.7s-2.6-5.7-6.1-5.7h-3.2v11.3H60.9z"/>
			<path class="st4" d="M81.6,66.1v4h9.3v3.6h-9.3V81h-4V62.5h14.3v3.6H81.6z"/>
		</g>
		<path class="st4" d="M114.7,49.8H5.3c-0.9,0-1.5,0.8-1.5,1.5V90c0,0.9,0.8,1.5,1.5,1.5h109.5c0.9,0,1.5-0.8,1.5-1.5V51.4
			C116.3,50.5,115.6,49.8,114.7,49.8z M113.1,88.5H6.8V53.1h106.2V88.5z"/>
	</g>
</g>
</svg>
