<?xml version="1.0" encoding="utf-8"?>
<!-- Generator: Adobe Illustrator 25.0.0, SVG Export Plug-In . SVG Version: 6.00 Build 0)  -->
<svg version="1.1" id="Layer_1" xmlns="http://www.w3.org/2000/svg" xmlns:xlink="http://www.w3.org/1999/xlink" x="0px" y="0px"
	 viewBox="0 0 120 120" style="enable-background:new 0 0 120 120;" xml:space="preserve">
<style type="text/css">
	.st0{display:none;}
	.st1{display:inline;}
	.st2{fill:#FFFFFF;stroke:#EC008C;stroke-width:0.1;stroke-miterlimit:10;}
	.st3{fill:#1D428A;}
	.st4{fill:#0091DA;}
	.st5{enable-background:new    ;}
</style>
<g id="_x39_5x95_Grids" class="st0">
	<g class="st1">
		<rect x="12.4" y="12.6" class="st2" width="5" height="5"/>
		<rect x="17.4" y="12.6" class="st2" width="5" height="5"/>
		<rect x="22.4" y="12.6" class="st2" width="5" height="5"/>
		<rect x="27.4" y="12.6" class="st2" width="5" height="5"/>
		<rect x="32.4" y="12.6" class="st2" width="5" height="5"/>
		<rect x="37.4" y="12.6" class="st2" width="5" height="5"/>
		<rect x="42.4" y="12.6" class="st2" width="5" height="5"/>
		<rect x="47.4" y="12.6" class="st2" width="5" height="5"/>
		<rect x="52.4" y="12.6" class="st2" width="5" height="5"/>
		<rect x="57.4" y="12.6" class="st2" width="5" height="5"/>
		<rect x="62.4" y="12.6" class="st2" width="5" height="5"/>
		<rect x="67.4" y="12.6" class="st2" width="5" height="5"/>
		<rect x="72.4" y="12.6" class="st2" width="5" height="5"/>
		<rect x="77.4" y="12.6" class="st2" width="5" height="5"/>
		<rect x="82.4" y="12.6" class="st2" width="5" height="5"/>
		<rect x="87.4" y="12.6" class="st2" width="5" height="5"/>
		<rect x="92.4" y="12.6" class="st2" width="5" height="5"/>
		<rect x="97.4" y="12.6" class="st2" width="5" height="5"/>
		<rect x="102.4" y="12.6" class="st2" width="5" height="5"/>
		<rect x="12.4" y="17.6" class="st2" width="5" height="5"/>
		<rect x="17.4" y="17.6" class="st2" width="5" height="5"/>
		<rect x="22.4" y="17.6" class="st2" width="5" height="5"/>
		<rect x="27.4" y="17.6" class="st2" width="5" height="5"/>
		<rect x="32.4" y="17.6" class="st2" width="5" height="5"/>
		<rect x="37.4" y="17.6" class="st2" width="5" height="5"/>
		<rect x="42.4" y="17.6" class="st2" width="5" height="5"/>
		<rect x="47.4" y="17.6" class="st2" width="5" height="5"/>
		<rect x="52.4" y="17.6" class="st2" width="5" height="5"/>
		<rect x="57.4" y="17.6" class="st2" width="5" height="5"/>
		<rect x="62.4" y="17.6" class="st2" width="5" height="5"/>
		<rect x="67.4" y="17.6" class="st2" width="5" height="5"/>
		<rect x="72.4" y="17.6" class="st2" width="5" height="5"/>
		<rect x="77.4" y="17.6" class="st2" width="5" height="5"/>
		<rect x="82.4" y="17.6" class="st2" width="5" height="5"/>
		<rect x="87.4" y="17.6" class="st2" width="5" height="5"/>
		<rect x="92.4" y="17.6" class="st2" width="5" height="5"/>
		<rect x="97.4" y="17.6" class="st2" width="5" height="5"/>
		<rect x="102.4" y="17.6" class="st2" width="5" height="5"/>
		<rect x="12.4" y="22.6" class="st2" width="5" height="5"/>
		<rect x="17.4" y="22.6" class="st2" width="5" height="5"/>
		<rect x="22.4" y="22.6" class="st2" width="5" height="5"/>
		<rect x="27.4" y="22.6" class="st2" width="5" height="5"/>
		<rect x="32.4" y="22.6" class="st2" width="5" height="5"/>
		<rect x="37.4" y="22.6" class="st2" width="5" height="5"/>
		<rect x="42.4" y="22.6" class="st2" width="5" height="5"/>
		<rect x="47.4" y="22.6" class="st2" width="5" height="5"/>
		<rect x="52.4" y="22.6" class="st2" width="5" height="5"/>
		<rect x="57.4" y="22.6" class="st2" width="5" height="5"/>
		<rect x="62.4" y="22.6" class="st2" width="5" height="5"/>
		<rect x="67.4" y="22.6" class="st2" width="5" height="5"/>
		<rect x="72.4" y="22.6" class="st2" width="5" height="5"/>
		<rect x="77.4" y="22.6" class="st2" width="5" height="5"/>
		<rect x="82.4" y="22.6" class="st2" width="5" height="5"/>
		<rect x="87.4" y="22.6" class="st2" width="5" height="5"/>
		<rect x="92.4" y="22.6" class="st2" width="5" height="5"/>
		<rect x="97.4" y="22.6" class="st2" width="5" height="5"/>
		<rect x="102.4" y="22.6" class="st2" width="5" height="5"/>
		<rect x="12.4" y="27.6" class="st2" width="5" height="5"/>
		<rect x="17.4" y="27.6" class="st2" width="5" height="5"/>
		<rect x="22.4" y="27.6" class="st2" width="5" height="5"/>
		<rect x="27.4" y="27.6" class="st2" width="5" height="5"/>
		<rect x="32.4" y="27.6" class="st2" width="5" height="5"/>
		<rect x="37.4" y="27.6" class="st2" width="5" height="5"/>
		<rect x="42.4" y="27.6" class="st2" width="5" height="5"/>
		<rect x="47.4" y="27.6" class="st2" width="5" height="5"/>
		<rect x="52.4" y="27.6" class="st2" width="5" height="5"/>
		<rect x="57.4" y="27.6" class="st2" width="5" height="5"/>
		<rect x="62.4" y="27.6" class="st2" width="5" height="5"/>
		<rect x="67.4" y="27.6" class="st2" width="5" height="5"/>
		<rect x="72.4" y="27.6" class="st2" width="5" height="5"/>
		<rect x="77.4" y="27.6" class="st2" width="5" height="5"/>
		<rect x="82.4" y="27.6" class="st2" width="5" height="5"/>
		<rect x="87.4" y="27.6" class="st2" width="5" height="5"/>
		<rect x="92.4" y="27.6" class="st2" width="5" height="5"/>
		<rect x="97.4" y="27.6" class="st2" width="5" height="5"/>
		<rect x="102.4" y="27.6" class="st2" width="5" height="5"/>
		<rect x="12.4" y="32.6" class="st2" width="5" height="5"/>
		<rect x="17.4" y="32.6" class="st2" width="5" height="5"/>
		<rect x="22.4" y="32.6" class="st2" width="5" height="5"/>
		<rect x="27.4" y="32.6" class="st2" width="5" height="5"/>
		<rect x="32.4" y="32.6" class="st2" width="5" height="5"/>
		<rect x="37.4" y="32.6" class="st2" width="5" height="5"/>
		<rect x="42.4" y="32.6" class="st2" width="5" height="5"/>
		<rect x="47.4" y="32.6" class="st2" width="5" height="5"/>
		<rect x="52.4" y="32.6" class="st2" width="5" height="5"/>
		<rect x="57.4" y="32.6" class="st2" width="5" height="5"/>
		<rect x="62.4" y="32.6" class="st2" width="5" height="5"/>
		<rect x="67.4" y="32.6" class="st2" width="5" height="5"/>
		<rect x="72.4" y="32.6" class="st2" width="5" height="5"/>
		<rect x="77.4" y="32.6" class="st2" width="5" height="5"/>
		<rect x="82.4" y="32.6" class="st2" width="5" height="5"/>
		<rect x="87.4" y="32.6" class="st2" width="5" height="5"/>
		<rect x="92.4" y="32.6" class="st2" width="5" height="5"/>
		<rect x="97.4" y="32.6" class="st2" width="5" height="5"/>
		<rect x="102.4" y="32.6" class="st2" width="5" height="5"/>
		<rect x="12.4" y="37.6" class="st2" width="5" height="5"/>
		<rect x="17.4" y="37.6" class="st2" width="5" height="5"/>
		<rect x="22.4" y="37.6" class="st2" width="5" height="5"/>
		<rect x="27.4" y="37.6" class="st2" width="5" height="5"/>
		<rect x="32.4" y="37.6" class="st2" width="5" height="5"/>
		<rect x="37.4" y="37.6" class="st2" width="5" height="5"/>
		<rect x="42.4" y="37.6" class="st2" width="5" height="5"/>
		<rect x="47.4" y="37.6" class="st2" width="5" height="5"/>
		<rect x="52.4" y="37.6" class="st2" width="5" height="5"/>
		<rect x="57.4" y="37.6" class="st2" width="5" height="5"/>
		<rect x="62.4" y="37.6" class="st2" width="5" height="5"/>
		<rect x="67.4" y="37.6" class="st2" width="5" height="5"/>
		<rect x="72.4" y="37.6" class="st2" width="5" height="5"/>
		<rect x="77.4" y="37.6" class="st2" width="5" height="5"/>
		<rect x="82.4" y="37.6" class="st2" width="5" height="5"/>
		<rect x="87.4" y="37.6" class="st2" width="5" height="5"/>
		<rect x="92.4" y="37.6" class="st2" width="5" height="5"/>
		<rect x="97.4" y="37.6" class="st2" width="5" height="5"/>
		<rect x="102.4" y="37.6" class="st2" width="5" height="5"/>
		<rect x="12.4" y="42.6" class="st2" width="5" height="5"/>
		<rect x="17.4" y="42.6" class="st2" width="5" height="5"/>
		<rect x="22.4" y="42.6" class="st2" width="5" height="5"/>
		<rect x="27.4" y="42.6" class="st2" width="5" height="5"/>
		<rect x="32.4" y="42.6" class="st2" width="5" height="5"/>
		<rect x="37.4" y="42.6" class="st2" width="5" height="5"/>
		<rect x="42.4" y="42.6" class="st2" width="5" height="5"/>
		<rect x="47.4" y="42.6" class="st2" width="5" height="5"/>
		<rect x="52.4" y="42.6" class="st2" width="5" height="5"/>
		<rect x="57.4" y="42.6" class="st2" width="5" height="5"/>
		<rect x="62.4" y="42.6" class="st2" width="5" height="5"/>
		<rect x="67.4" y="42.6" class="st2" width="5" height="5"/>
		<rect x="72.4" y="42.6" class="st2" width="5" height="5"/>
		<rect x="77.4" y="42.6" class="st2" width="5" height="5"/>
		<rect x="82.4" y="42.6" class="st2" width="5" height="5"/>
		<rect x="87.4" y="42.6" class="st2" width="5" height="5"/>
		<rect x="92.4" y="42.6" class="st2" width="5" height="5"/>
		<rect x="97.4" y="42.6" class="st2" width="5" height="5"/>
		<rect x="102.4" y="42.6" class="st2" width="5" height="5"/>
		<rect x="12.4" y="47.6" class="st2" width="5" height="5"/>
		<rect x="17.4" y="47.6" class="st2" width="5" height="5"/>
		<rect x="22.4" y="47.6" class="st2" width="5" height="5"/>
		<rect x="27.4" y="47.6" class="st2" width="5" height="5"/>
		<rect x="32.4" y="47.6" class="st2" width="5" height="5"/>
		<rect x="37.4" y="47.6" class="st2" width="5" height="5"/>
		<rect x="42.4" y="47.6" class="st2" width="5" height="5"/>
		<rect x="47.4" y="47.6" class="st2" width="5" height="5"/>
		<rect x="52.4" y="47.6" class="st2" width="5" height="5"/>
		<rect x="57.4" y="47.6" class="st2" width="5" height="5"/>
		<rect x="62.4" y="47.6" class="st2" width="5" height="5"/>
		<rect x="67.4" y="47.6" class="st2" width="5" height="5"/>
		<rect x="72.4" y="47.6" class="st2" width="5" height="5"/>
		<rect x="77.4" y="47.6" class="st2" width="5" height="5"/>
		<rect x="82.4" y="47.6" class="st2" width="5" height="5"/>
		<rect x="87.4" y="47.6" class="st2" width="5" height="5"/>
		<rect x="92.4" y="47.6" class="st2" width="5" height="5"/>
		<rect x="97.4" y="47.6" class="st2" width="5" height="5"/>
		<rect x="102.4" y="47.6" class="st2" width="5" height="5"/>
		<rect x="12.4" y="52.6" class="st2" width="5" height="5"/>
		<rect x="17.4" y="52.6" class="st2" width="5" height="5"/>
		<rect x="22.4" y="52.6" class="st2" width="5" height="5"/>
		<rect x="27.4" y="52.6" class="st2" width="5" height="5"/>
		<rect x="32.4" y="52.6" class="st2" width="5" height="5"/>
		<rect x="37.4" y="52.6" class="st2" width="5" height="5"/>
		<rect x="42.4" y="52.6" class="st2" width="5" height="5"/>
		<rect x="47.4" y="52.6" class="st2" width="5" height="5"/>
		<rect x="52.4" y="52.6" class="st2" width="5" height="5"/>
		<rect x="57.4" y="52.6" class="st2" width="5" height="5"/>
		<rect x="62.4" y="52.6" class="st2" width="5" height="5"/>
		<rect x="67.4" y="52.6" class="st2" width="5" height="5"/>
		<rect x="72.4" y="52.6" class="st2" width="5" height="5"/>
		<rect x="77.4" y="52.6" class="st2" width="5" height="5"/>
		<rect x="82.4" y="52.6" class="st2" width="5" height="5"/>
		<rect x="87.4" y="52.6" class="st2" width="5" height="5"/>
		<rect x="92.4" y="52.6" class="st2" width="5" height="5"/>
		<rect x="97.4" y="52.6" class="st2" width="5" height="5"/>
		<rect x="102.4" y="52.6" class="st2" width="5" height="5"/>
		<rect x="12.4" y="57.6" class="st2" width="5" height="5"/>
		<rect x="17.4" y="57.6" class="st2" width="5" height="5"/>
		<rect x="22.4" y="57.6" class="st2" width="5" height="5"/>
		<rect x="27.4" y="57.6" class="st2" width="5" height="5"/>
		<rect x="32.4" y="57.6" class="st2" width="5" height="5"/>
		<rect x="37.4" y="57.6" class="st2" width="5" height="5"/>
		<rect x="42.4" y="57.6" class="st2" width="5" height="5"/>
		<rect x="47.4" y="57.6" class="st2" width="5" height="5"/>
		<rect x="52.4" y="57.6" class="st2" width="5" height="5"/>
		<rect x="57.4" y="57.6" class="st2" width="5" height="5"/>
		<rect x="62.4" y="57.6" class="st2" width="5" height="5"/>
		<rect x="67.4" y="57.6" class="st2" width="5" height="5"/>
		<rect x="72.4" y="57.6" class="st2" width="5" height="5"/>
		<rect x="77.4" y="57.6" class="st2" width="5" height="5"/>
		<rect x="82.4" y="57.6" class="st2" width="5" height="5"/>
		<rect x="87.4" y="57.6" class="st2" width="5" height="5"/>
		<rect x="92.4" y="57.6" class="st2" width="5" height="5"/>
		<rect x="97.4" y="57.6" class="st2" width="5" height="5"/>
		<rect x="102.4" y="57.6" class="st2" width="5" height="5"/>
		<rect x="12.4" y="62.6" class="st2" width="5" height="5"/>
		<rect x="17.4" y="62.6" class="st2" width="5" height="5"/>
		<rect x="22.4" y="62.6" class="st2" width="5" height="5"/>
		<rect x="27.4" y="62.6" class="st2" width="5" height="5"/>
		<rect x="32.4" y="62.6" class="st2" width="5" height="5"/>
		<rect x="37.4" y="62.6" class="st2" width="5" height="5"/>
		<rect x="42.4" y="62.6" class="st2" width="5" height="5"/>
		<rect x="47.4" y="62.6" class="st2" width="5" height="5"/>
		<rect x="52.4" y="62.6" class="st2" width="5" height="5"/>
		<rect x="57.4" y="62.6" class="st2" width="5" height="5"/>
		<rect x="62.4" y="62.6" class="st2" width="5" height="5"/>
		<rect x="67.4" y="62.6" class="st2" width="5" height="5"/>
		<rect x="72.4" y="62.6" class="st2" width="5" height="5"/>
		<rect x="77.4" y="62.6" class="st2" width="5" height="5"/>
		<rect x="82.4" y="62.6" class="st2" width="5" height="5"/>
		<rect x="87.4" y="62.6" class="st2" width="5" height="5"/>
		<rect x="92.4" y="62.6" class="st2" width="5" height="5"/>
		<rect x="97.4" y="62.6" class="st2" width="5" height="5"/>
		<rect x="102.4" y="62.6" class="st2" width="5" height="5"/>
		<rect x="12.4" y="67.6" class="st2" width="5" height="5"/>
		<rect x="17.4" y="67.6" class="st2" width="5" height="5"/>
		<rect x="22.4" y="67.6" class="st2" width="5" height="5"/>
		<rect x="27.4" y="67.6" class="st2" width="5" height="5"/>
		<rect x="32.4" y="67.6" class="st2" width="5" height="5"/>
		<rect x="37.4" y="67.6" class="st2" width="5" height="5"/>
		<rect x="42.4" y="67.6" class="st2" width="5" height="5"/>
		<rect x="47.4" y="67.6" class="st2" width="5" height="5"/>
		<rect x="52.4" y="67.6" class="st2" width="5" height="5"/>
		<rect x="57.4" y="67.6" class="st2" width="5" height="5"/>
		<rect x="62.4" y="67.6" class="st2" width="5" height="5"/>
		<rect x="67.4" y="67.6" class="st2" width="5" height="5"/>
		<rect x="72.4" y="67.6" class="st2" width="5" height="5"/>
		<rect x="77.4" y="67.6" class="st2" width="5" height="5"/>
		<rect x="82.4" y="67.6" class="st2" width="5" height="5"/>
		<rect x="87.4" y="67.6" class="st2" width="5" height="5"/>
		<rect x="92.4" y="67.6" class="st2" width="5" height="5"/>
		<rect x="97.4" y="67.6" class="st2" width="5" height="5"/>
		<rect x="102.4" y="67.6" class="st2" width="5" height="5"/>
		<rect x="12.4" y="72.6" class="st2" width="5" height="5"/>
		<rect x="17.4" y="72.6" class="st2" width="5" height="5"/>
		<rect x="22.4" y="72.6" class="st2" width="5" height="5"/>
		<rect x="27.4" y="72.6" class="st2" width="5" height="5"/>
		<rect x="32.4" y="72.6" class="st2" width="5" height="5"/>
		<rect x="37.4" y="72.6" class="st2" width="5" height="5"/>
		<rect x="42.4" y="72.6" class="st2" width="5" height="5"/>
		<rect x="47.4" y="72.6" class="st2" width="5" height="5"/>
		<rect x="52.4" y="72.6" class="st2" width="5" height="5"/>
		<rect x="57.4" y="72.6" class="st2" width="5" height="5"/>
		<rect x="62.4" y="72.6" class="st2" width="5" height="5"/>
		<rect x="67.4" y="72.6" class="st2" width="5" height="5"/>
		<rect x="72.4" y="72.6" class="st2" width="5" height="5"/>
		<rect x="77.4" y="72.6" class="st2" width="5" height="5"/>
		<rect x="82.4" y="72.6" class="st2" width="5" height="5"/>
		<rect x="87.4" y="72.6" class="st2" width="5" height="5"/>
		<rect x="92.4" y="72.6" class="st2" width="5" height="5"/>
		<rect x="97.4" y="72.6" class="st2" width="5" height="5"/>
		<rect x="102.4" y="72.6" class="st2" width="5" height="5"/>
		<rect x="12.4" y="77.6" class="st2" width="5" height="5"/>
		<rect x="17.4" y="77.6" class="st2" width="5" height="5"/>
		<rect x="22.4" y="77.6" class="st2" width="5" height="5"/>
		<rect x="27.4" y="77.6" class="st2" width="5" height="5"/>
		<rect x="32.4" y="77.6" class="st2" width="5" height="5"/>
		<rect x="37.4" y="77.6" class="st2" width="5" height="5"/>
		<rect x="42.4" y="77.6" class="st2" width="5" height="5"/>
		<rect x="47.4" y="77.6" class="st2" width="5" height="5"/>
		<rect x="52.4" y="77.6" class="st2" width="5" height="5"/>
		<rect x="57.4" y="77.6" class="st2" width="5" height="5"/>
		<rect x="62.4" y="77.6" class="st2" width="5" height="5"/>
		<rect x="67.4" y="77.6" class="st2" width="5" height="5"/>
		<rect x="72.4" y="77.6" class="st2" width="5" height="5"/>
		<rect x="77.4" y="77.6" class="st2" width="5" height="5"/>
		<rect x="82.4" y="77.6" class="st2" width="5" height="5"/>
		<rect x="87.4" y="77.6" class="st2" width="5" height="5"/>
		<rect x="92.4" y="77.6" class="st2" width="5" height="5"/>
		<rect x="97.4" y="77.6" class="st2" width="5" height="5"/>
		<rect x="102.4" y="77.6" class="st2" width="5" height="5"/>
		<rect x="12.4" y="82.6" class="st2" width="5" height="5"/>
		<rect x="17.4" y="82.6" class="st2" width="5" height="5"/>
		<rect x="22.4" y="82.6" class="st2" width="5" height="5"/>
		<rect x="27.4" y="82.6" class="st2" width="5" height="5"/>
		<rect x="32.4" y="82.6" class="st2" width="5" height="5"/>
		<rect x="37.4" y="82.6" class="st2" width="5" height="5"/>
		<rect x="42.4" y="82.6" class="st2" width="5" height="5"/>
		<rect x="47.4" y="82.6" class="st2" width="5" height="5"/>
		<rect x="52.4" y="82.6" class="st2" width="5" height="5"/>
		<rect x="57.4" y="82.6" class="st2" width="5" height="5"/>
		<rect x="62.4" y="82.6" class="st2" width="5" height="5"/>
		<rect x="67.4" y="82.6" class="st2" width="5" height="5"/>
		<rect x="72.4" y="82.6" class="st2" width="5" height="5"/>
		<rect x="77.4" y="82.6" class="st2" width="5" height="5"/>
		<rect x="82.4" y="82.6" class="st2" width="5" height="5"/>
		<rect x="87.4" y="82.6" class="st2" width="5" height="5"/>
		<rect x="92.4" y="82.6" class="st2" width="5" height="5"/>
		<rect x="97.4" y="82.6" class="st2" width="5" height="5"/>
		<rect x="102.4" y="82.6" class="st2" width="5" height="5"/>
		<rect x="12.4" y="87.6" class="st2" width="5" height="5"/>
		<rect x="17.4" y="87.6" class="st2" width="5" height="5"/>
		<rect x="22.4" y="87.6" class="st2" width="5" height="5"/>
		<rect x="27.4" y="87.6" class="st2" width="5" height="5"/>
		<rect x="32.4" y="87.6" class="st2" width="5" height="5"/>
		<rect x="37.4" y="87.6" class="st2" width="5" height="5"/>
		<rect x="42.4" y="87.6" class="st2" width="5" height="5"/>
		<rect x="47.4" y="87.6" class="st2" width="5" height="5"/>
		<rect x="52.4" y="87.6" class="st2" width="5" height="5"/>
		<rect x="57.4" y="87.6" class="st2" width="5" height="5"/>
		<rect x="62.4" y="87.6" class="st2" width="5" height="5"/>
		<rect x="67.4" y="87.6" class="st2" width="5" height="5"/>
		<rect x="72.4" y="87.6" class="st2" width="5" height="5"/>
		<rect x="77.4" y="87.6" class="st2" width="5" height="5"/>
		<rect x="82.4" y="87.6" class="st2" width="5" height="5"/>
		<rect x="87.4" y="87.6" class="st2" width="5" height="5"/>
		<rect x="92.4" y="87.6" class="st2" width="5" height="5"/>
		<rect x="97.4" y="87.6" class="st2" width="5" height="5"/>
		<rect x="102.4" y="87.6" class="st2" width="5" height="5"/>
		<rect x="12.4" y="92.6" class="st2" width="5" height="5"/>
		<rect x="17.4" y="92.6" class="st2" width="5" height="5"/>
		<rect x="22.4" y="92.6" class="st2" width="5" height="5"/>
		<rect x="27.4" y="92.6" class="st2" width="5" height="5"/>
		<rect x="32.4" y="92.6" class="st2" width="5" height="5"/>
		<rect x="37.4" y="92.6" class="st2" width="5" height="5"/>
		<rect x="42.4" y="92.6" class="st2" width="5" height="5"/>
		<rect x="47.4" y="92.6" class="st2" width="5" height="5"/>
		<rect x="52.4" y="92.6" class="st2" width="5" height="5"/>
		<rect x="57.4" y="92.6" class="st2" width="5" height="5"/>
		<rect x="62.4" y="92.6" class="st2" width="5" height="5"/>
		<rect x="67.4" y="92.6" class="st2" width="5" height="5"/>
		<rect x="72.4" y="92.6" class="st2" width="5" height="5"/>
		<rect x="77.4" y="92.6" class="st2" width="5" height="5"/>
		<rect x="82.4" y="92.6" class="st2" width="5" height="5"/>
		<rect x="87.4" y="92.6" class="st2" width="5" height="5"/>
		<rect x="92.4" y="92.6" class="st2" width="5" height="5"/>
		<rect x="97.4" y="92.6" class="st2" width="5" height="5"/>
		<rect x="102.4" y="92.6" class="st2" width="5" height="5"/>
		<rect x="12.4" y="97.6" class="st2" width="5" height="5"/>
		<rect x="17.4" y="97.6" class="st2" width="5" height="5"/>
		<rect x="22.4" y="97.6" class="st2" width="5" height="5"/>
		<rect x="27.4" y="97.6" class="st2" width="5" height="5"/>
		<rect x="32.4" y="97.6" class="st2" width="5" height="5"/>
		<rect x="37.4" y="97.6" class="st2" width="5" height="5"/>
		<rect x="42.4" y="97.6" class="st2" width="5" height="5"/>
		<rect x="47.4" y="97.6" class="st2" width="5" height="5"/>
		<rect x="52.4" y="97.6" class="st2" width="5" height="5"/>
		<rect x="57.4" y="97.6" class="st2" width="5" height="5"/>
		<rect x="62.4" y="97.6" class="st2" width="5" height="5"/>
		<rect x="67.4" y="97.6" class="st2" width="5" height="5"/>
		<rect x="72.4" y="97.6" class="st2" width="5" height="5"/>
		<rect x="77.4" y="97.6" class="st2" width="5" height="5"/>
		<rect x="82.4" y="97.6" class="st2" width="5" height="5"/>
		<rect x="87.4" y="97.6" class="st2" width="5" height="5"/>
		<rect x="92.4" y="97.6" class="st2" width="5" height="5"/>
		<rect x="97.4" y="97.6" class="st2" width="5" height="5"/>
		<rect x="102.4" y="97.6" class="st2" width="5" height="5"/>
		<rect x="12.4" y="102.6" class="st2" width="5" height="5"/>
		<rect x="17.4" y="102.6" class="st2" width="5" height="5"/>
		<rect x="22.4" y="102.6" class="st2" width="5" height="5"/>
		<rect x="27.4" y="102.6" class="st2" width="5" height="5"/>
		<rect x="32.4" y="102.6" class="st2" width="5" height="5"/>
		<rect x="37.4" y="102.6" class="st2" width="5" height="5"/>
		<rect x="42.4" y="102.6" class="st2" width="5" height="5"/>
		<rect x="47.4" y="102.6" class="st2" width="5" height="5"/>
		<rect x="52.4" y="102.6" class="st2" width="5" height="5"/>
		<rect x="57.4" y="102.6" class="st2" width="5" height="5"/>
		<rect x="62.4" y="102.6" class="st2" width="5" height="5"/>
		<rect x="67.4" y="102.6" class="st2" width="5" height="5"/>
		<rect x="72.4" y="102.6" class="st2" width="5" height="5"/>
		<rect x="77.4" y="102.6" class="st2" width="5" height="5"/>
		<rect x="82.4" y="102.6" class="st2" width="5" height="5"/>
		<rect x="87.4" y="102.6" class="st2" width="5" height="5"/>
		<rect x="92.4" y="102.6" class="st2" width="5" height="5"/>
		<rect x="97.4" y="102.6" class="st2" width="5" height="5"/>
		<rect x="102.4" y="102.6" class="st2" width="5" height="5"/>
	</g>
</g>
<g id="Business_2color-light_bk">
	<g id="File_PDF_1_">
		<g>
			<path class="st3" d="M94.8,119.3H24.2c-0.9,0-1.5-0.8-1.5-1.5V89.7c0-0.9,0.8-0.5,1.5-0.5s1.5-0.3,1.5,0.5v26.4h67.4V90
				c0-0.9,0.8-1.5,1.5-1.5s1.5,0.8,1.5,1.5v27.8C96.3,118.6,95.7,119.3,94.8,119.3z"/>
		</g>
		<g>
			<g>
				<path class="st3" d="M94.8,52.9c-0.9,0-1.5-0.8-1.5-1.5V3.9H44L25.8,22.1v29c0,0.9-0.8,1.5-1.5,1.5s-1.5-0.8-1.5-1.5V21.4
					c0-0.4,0.1-0.8,0.5-1.2L42.3,1c0.3-0.3,0.8-0.5,1.2-0.5h51.3c0.9,0,1.5,0.8,1.5,1.5v49C96.3,52.2,95.7,52.9,94.8,52.9z"/>
			</g>
			<g>
				<path class="st3" d="M43.7,23.1H24.5c-0.9,0-1.5-0.8-1.5-1.5s0.8-1.5,1.5-1.5h17.7V2.3c0-0.9,0.8-1.5,1.5-1.5
					c0.8,0,1.5,0.8,1.5,1.5v19.2C45.4,22.5,44.6,23.1,43.7,23.1z"/>
			</g>
		</g>
		<path class="st4" d="M114,49.8H5c-0.9,0-1.5,0.8-1.5,1.5v38.5c0,0.9,0.8,1.5,1.5,1.5h109c0.9,0,1.5-0.8,1.5-1.5V51.3
			C115.6,50.4,114.9,49.8,114,49.8z M112.4,88.3H6.5V53h105.9V88.3z"/>
	</g>
</g>
<g class="st5">
	<path class="st4" d="M34,61.5L26.3,80h-3.8l-7.8-18.6h3.7l5.9,14.1l5.9-14.1L34,61.5L34,61.5z"/>
	<path class="st4" d="M69.6,64.5V69h9.6v3.1h-9.6v4.8h10.6V80h-14V61.5h14v3.1L69.6,64.5L69.6,64.5z"/>
	<path class="st4" d="M45.3,61.5h6.5c2,0,3.8,0.4,5.4,1.2s2.8,1.9,3.7,3.3c0.9,1.4,1.3,3,1.3,4.8s-0.4,3.4-1.3,4.8s-2.1,2.5-3.7,3.3
		s-3.4,1.2-5.4,1.2h-6.5C45.3,80.1,45.3,61.5,45.3,61.5z M52.2,77c1.3,0,2.4-0.3,3.5-0.8c1-0.5,1.8-1.3,2.4-2.2
		c0.6-0.9,0.9-2,0.9-3.2s-0.3-2.3-0.9-3.2s-1.4-1.7-2.4-2.2s-2.2-0.8-3.5-0.8h-3.5V77H52.2z"/>
	<path class="st4" d="M37.4,61.5h3.3V80h-3.3V61.5z"/>
	<path class="st4" d="M88.4,79c-1.5-0.9-2.7-2-3.6-3.5s-1.3-3.1-1.3-4.8c0-1.7,0.4-3.3,1.3-4.8s2.1-2.6,3.6-3.5s3.1-1.3,4.8-1.3
		s3.3,0.4,4.8,1.3c1.5,0.9,2.7,2,3.6,3.5s1.3,3.1,1.3,4.8c0,1.7-0.4,3.3-1.3,4.8S99.5,78.2,98,79c-1.5,0.9-3.1,1.3-4.8,1.3
		S89.9,79.9,88.4,79z M96.3,76.4c1-0.6,1.7-1.4,2.3-2.4c0.6-1,0.9-2.1,0.9-3.3c0-1.2-0.3-2.2-0.9-3.2s-1.3-1.8-2.3-2.4
		s-2-0.9-3.1-0.9s-2.2,0.3-3.1,0.9c-1,0.6-1.7,1.4-2.3,2.4c-0.6,1-0.9,2.1-0.9,3.2c0,1.2,0.3,2.3,0.9,3.3s1.3,1.8,2.3,2.4
		s2,0.9,3.1,0.9S95.4,77,96.3,76.4z"/>
</g>
</svg>
