<svg xmlns="http://www.w3.org/2000/svg" viewBox="0 0 630 630.01"><defs><style>.cls-1{fill:#eee;}</style></defs><g id="Layer_2" data-name="Layer 2"><g id="Layer_1-2" data-name="Layer 1"><path class="cls-1" d="M409,567.31a12.5,12.5,0,1,0-24-4.82v0a12.5,12.5,0,0,0,24,4.78Z"/><path class="cls-1" d="M353.85,565.77A15,15,0,1,0,325,560v0a15,15,0,0,0,28.85,5.74Z"/><path class="cls-1" d="M351,622.31a12.5,12.5,0,1,0-24-4.82v0a12.5,12.5,0,0,0,24,4.78Z"/><path class="cls-1" d="M298.85,565.77A15,15,0,1,0,270,560v0a15,15,0,0,0,28.85,5.74Z"/><path class="cls-1" d="M299,622.31a12.5,12.5,0,1,0-24-4.82v0a12.5,12.5,0,0,0,24,4.78Z"/><path class="cls-1" d="M244,567.31a12.5,12.5,0,1,0-24-4.82v0a12.5,12.5,0,0,0,24,4.78Z"/><path class="cls-1" d="M464,512.31a12.5,12.5,0,1,0-24-4.83v0a12.5,12.5,0,0,0,24,4.78Z"/><path class="cls-1" d="M408.85,510.77A15,15,0,1,0,380,505v0a15,15,0,0,0,28.85,5.74Z"/><path class="cls-1" d="M352.77,505.16A16,16,0,1,0,322,499v0a16,16,0,0,0,30.77,6.13Z"/><path class="cls-1" d="M297.77,505.16A16,16,0,1,0,267,499v0a16,16,0,0,0,30.77,6.13Z"/><path class="cls-1" d="M243.85,510.77A15,15,0,1,0,215,505v0a15,15,0,0,0,28.85,5.74Z"/><path class="cls-1" d="M189,512.31a12.5,12.5,0,1,0-24-4.83v0a12.5,12.5,0,0,0,24,4.78Z"/><path class="cls-1" d="M519,457.31a12.5,12.5,0,1,0-24-4.83v0a12.5,12.5,0,0,0,24,4.79Z"/><path class="cls-1" d="M463.85,455.77A15,15,0,1,0,435,450v0a15,15,0,0,0,28.85,5.74Z"/><path class="cls-1" d="M407.77,450.16A16,16,0,1,0,377,444v0a16,16,0,0,0,30.77,6.13Z"/><path class="cls-1" d="M356.56,450.61A18.49,18.49,0,1,0,321,443.46v.06a18.49,18.49,0,0,0,35.56,7.09Z"/><path class="cls-1" d="M301.56,450.61A18.49,18.49,0,1,0,266,443.46v.06a18.49,18.49,0,0,0,35.56,7.09Z"/><path class="cls-1" d="M242.77,450.16A16,16,0,1,0,212,444v0a16,16,0,0,0,30.77,6.13Z"/><path class="cls-1" d="M188.85,455.77A15,15,0,1,0,160,450v0a15,15,0,0,0,28.85,5.74Z"/><path class="cls-1" d="M134,457.31a12.5,12.5,0,1,0-24-4.83v0a12.5,12.5,0,0,0,24,4.79Z"/><path class="cls-1" d="M574,402.31a12.5,12.5,0,1,0-24-4.83v0a12.5,12.5,0,0,0,24,4.79Z"/><path class="cls-1" d="M518.85,400.77A15,15,0,1,0,490,395v0a15,15,0,0,0,28.85,5.74Z"/><path class="cls-1" d="M462.77,395.16A16,16,0,1,0,432,389v0a16,16,0,0,0,30.77,6.13Z"/><path class="cls-1" d="M411.56,395.6A18.49,18.49,0,1,0,376,388.46v.06a18.49,18.49,0,0,0,35.56,7.08Z"/><path class="cls-1" d="M356.56,395.6A18.49,18.49,0,1,0,321,388.46v.06a18.49,18.49,0,0,0,35.56,7.08Z"/><path class="cls-1" d="M301.56,395.6A18.49,18.49,0,1,0,266,388.46v.06a18.49,18.49,0,0,0,35.56,7.08Z"/><path class="cls-1" d="M246.56,395.6A18.49,18.49,0,1,0,211,388.46v.06a18.49,18.49,0,0,0,35.56,7.08Z"/><path class="cls-1" d="M187.77,395.16A16,16,0,1,0,157,389v0a16,16,0,0,0,30.77,6.13Z"/><path class="cls-1" d="M133.85,400.77A15,15,0,1,0,105,395v0a15,15,0,0,0,28.85,5.74Z"/><path class="cls-1" d="M79,402.31a12.5,12.5,0,1,0-24-4.83v0a12.5,12.5,0,0,0,24,4.79Z"/><path class="cls-1" d="M573.85,345.77A15,15,0,1,0,545,340v0a15,15,0,0,0,28.85,5.74Z"/><path class="cls-1" d="M629,347.31a12.5,12.5,0,1,0-24-4.83v0a12.5,12.5,0,0,0,24,4.79Z"/><path class="cls-1" d="M517.77,340.16A16,16,0,1,0,487,334v0a16,16,0,0,0,30.77,6.13Z"/><path class="cls-1" d="M466.56,340.6A18.49,18.49,0,1,0,431,333.46v.06a18.49,18.49,0,0,0,35.56,7.08Z"/><path class="cls-1" d="M411.56,340.6A18.49,18.49,0,1,0,376,333.46v.06a18.49,18.49,0,0,0,35.56,7.08Z"/><path class="cls-1" d="M356.56,340.6A18.49,18.49,0,1,0,321,333.46v.06a18.49,18.49,0,0,0,35.56,7.08Z"/><path class="cls-1" d="M301.56,340.6A18.49,18.49,0,1,0,266,333.46v.06a18.49,18.49,0,0,0,35.56,7.08Z"/><path class="cls-1" d="M246.56,340.6A18.49,18.49,0,1,0,211,333.46v.06a18.49,18.49,0,0,0,35.56,7.08Z"/><path class="cls-1" d="M191.56,340.6A18.49,18.49,0,1,0,156,333.46v.06a18.49,18.49,0,0,0,35.56,7.08Z"/><path class="cls-1" d="M132.77,340.16A16,16,0,1,0,102,334v0a16,16,0,0,0,30.77,6.13Z"/><path class="cls-1" d="M78.85,345.77A15,15,0,1,0,50,340v0a15,15,0,0,0,28.85,5.74Z"/><path class="cls-1" d="M24,347.31a12.5,12.5,0,1,0-24-4.83v0a12.5,12.5,0,0,0,24,4.79Z"/><path class="cls-1" d="M573.85,290.77A15,15,0,1,0,545,285v0a15,15,0,0,0,28.85,5.74Z"/><path class="cls-1" d="M629,292.31a12.5,12.5,0,1,0-24-4.83v0a12.5,12.5,0,0,0,24,4.79Z"/><path class="cls-1" d="M517.77,285.16A16,16,0,1,0,487,279v0a16,16,0,0,0,30.77,6.13Z"/><path class="cls-1" d="M466.56,285.6A18.49,18.49,0,1,0,431,278.46v.06a18.49,18.49,0,0,0,35.56,7.08Z"/><path class="cls-1" d="M411.56,285.6A18.49,18.49,0,1,0,376,278.46v.06a18.49,18.49,0,0,0,35.56,7.08Z"/><path class="cls-1" d="M356.56,285.6A18.49,18.49,0,1,0,321,278.46v.06a18.49,18.49,0,0,0,35.56,7.08Z"/><path class="cls-1" d="M301.56,285.6A18.49,18.49,0,1,0,266,278.46v.06a18.49,18.49,0,0,0,35.56,7.08Z"/><path class="cls-1" d="M246.56,285.6A18.49,18.49,0,1,0,211,278.46v.06a18.49,18.49,0,0,0,35.56,7.08Z"/><path class="cls-1" d="M191.56,285.6A18.49,18.49,0,1,0,156,278.46v.06a18.49,18.49,0,0,0,35.56,7.08Z"/><path class="cls-1" d="M132.77,285.16A16,16,0,1,0,102,279v0a16,16,0,0,0,30.77,6.13Z"/><path class="cls-1" d="M78.85,290.77A15,15,0,1,0,50,285v0a15,15,0,0,0,28.85,5.74Z"/><path class="cls-1" d="M24,292.31a12.5,12.5,0,1,0-24-4.83v0a12.5,12.5,0,0,0,24,4.79Z"/><path class="cls-1" d="M574,237.31a12.5,12.5,0,1,0-24-4.83v0a12.5,12.5,0,0,0,24,4.79Z"/><path class="cls-1" d="M518.85,235.77A15,15,0,1,0,490,230V230a15,15,0,0,0,28.85,5.74Z"/><path class="cls-1" d="M462.77,230.15A16,16,0,1,0,432,224V224a16,16,0,0,0,30.77,6.12Z"/><path class="cls-1" d="M411.56,230.6A18.49,18.49,0,1,0,376,223.46v.06a18.49,18.49,0,0,0,35.56,7.08Z"/><path class="cls-1" d="M356.56,230.6A18.49,18.49,0,1,0,321,223.46v.06a18.49,18.49,0,0,0,35.56,7.08Z"/><path class="cls-1" d="M301.56,230.6A18.49,18.49,0,1,0,266,223.46v.06a18.49,18.49,0,0,0,35.56,7.08Z"/><path class="cls-1" d="M246.56,230.6A18.49,18.49,0,1,0,211,223.46v.06a18.49,18.49,0,0,0,35.56,7.08Z"/><path class="cls-1" d="M187.77,230.15A16,16,0,1,0,157,224V224a16,16,0,0,0,30.77,6.12Z"/><path class="cls-1" d="M133.85,235.77A15,15,0,1,0,105,230V230a15,15,0,0,0,28.85,5.74Z"/><path class="cls-1" d="M79,237.31a12.5,12.5,0,1,0-24-4.83v0a12.5,12.5,0,0,0,24,4.79Z"/><path class="cls-1" d="M519,182.31a12.5,12.5,0,1,0-24-4.83v0a12.5,12.5,0,0,0,24,4.79Z"/><path class="cls-1" d="M463.85,180.77A15,15,0,1,0,435,175V175a15,15,0,0,0,28.85,5.74Z"/><path class="cls-1" d="M407.77,175.15A16,16,0,1,0,377,169V169a16,16,0,0,0,30.77,6.12Z"/><path class="cls-1" d="M356.56,175.6A18.49,18.49,0,1,0,321,168.46v.06a18.49,18.49,0,0,0,35.56,7.08Z"/><path class="cls-1" d="M301.56,175.6A18.49,18.49,0,1,0,266,168.46v.06a18.49,18.49,0,0,0,35.56,7.08Z"/><path class="cls-1" d="M242.77,175.15A16,16,0,1,0,212,169V169a16,16,0,0,0,30.77,6.12Z"/><path class="cls-1" d="M188.85,180.77A15,15,0,1,0,160,175V175a15,15,0,0,0,28.85,5.74Z"/><path class="cls-1" d="M134,182.31a12.5,12.5,0,1,0-24-4.83v0a12.5,12.5,0,0,0,24,4.79Z"/><path class="cls-1" d="M464,127.31a12.5,12.5,0,1,0-24-4.83v0a12.5,12.5,0,0,0,24,4.79Z"/><path class="cls-1" d="M408.85,125.77A15,15,0,1,0,380,120v0a15,15,0,0,0,28.85,5.74Z"/><path class="cls-1" d="M352.77,120.15A16,16,0,1,0,322,114V114a16,16,0,0,0,30.77,6.12Z"/><path class="cls-1" d="M297.77,120.15A16,16,0,1,0,267,114V114a16,16,0,0,0,30.77,6.12Z"/><path class="cls-1" d="M243.85,125.77A15,15,0,1,0,215,120v0a15,15,0,0,0,28.85,5.74Z"/><path class="cls-1" d="M189,127.31a12.5,12.5,0,1,0-24-4.83v0a12.5,12.5,0,0,0,24,4.79Z"/><path class="cls-1" d="M409,72.31a12.5,12.5,0,1,0-24-4.83v0a12.5,12.5,0,0,0,24,4.79Z"/><path class="cls-1" d="M353.85,70.77A15,15,0,1,0,325,65v0a15,15,0,0,0,28.85,5.75Z"/><path class="cls-1" d="M354,17.31a12.5,12.5,0,1,0-24-4.83v0a12.5,12.5,0,0,0,24,4.79Z"/><path class="cls-1" d="M298.85,70.77A15,15,0,1,0,270,65v0a15,15,0,0,0,28.85,5.75Z"/><path class="cls-1" d="M299,17.31a12.5,12.5,0,1,0-24-4.83v0a12.5,12.5,0,0,0,24,4.79Z"/><path class="cls-1" d="M244,72.31a12.5,12.5,0,1,0-24-4.83v0a12.5,12.5,0,0,0,24,4.79Z"/></g></g></svg>