<?xml version="1.0" encoding="utf-8"?>
<!-- Generator: Adobe Illustrator 27.8.0, SVG Export Plug-In . SVG Version: 6.00 Build 0)  -->
<svg version="1.1" id="Layer_1" xmlns="http://www.w3.org/2000/svg" xmlns:xlink="http://www.w3.org/1999/xlink" x="0px" y="0px"
	 viewBox="0 0 1200 435" style="enable-background:new 0 0 1200 435;" xml:space="preserve">
<style type="text/css">
	.st0{fill-rule:evenodd;clip-rule:evenodd;fill:#EEEEEE;}
</style>
<path class="st0" d="M17.9,1.3c-1.1,0-2,0.9-2.1,2c-0.1,1.3,0.8,2.2,2.1,2.2c1.1,0,2.1-0.9,2.1-2C20.1,2.4,19.1,1.3,17.9,1.3z
	 M48.4,2.1c-0.5,0.5-1,0.9-1,1.2c0.1,0.4,0.5,1,0.9,1.1c0.6,0.1,1.1-0.4,1-1C49.2,3,48.8,2.6,48.4,2.1L48.4,2.1z M17.9,27.4
	c-3.5,0-6.3,2.9-6.3,6.4c0,3.6,2.8,6.4,6.3,6.4c3.6,0,6.6-2.9,6.5-6.5C24.3,30.3,21.3,27.4,17.9,27.4L17.9,27.4z M48.3,28.6
	c-2.9,0-5.2,2.5-5.1,5.4c0.1,2.9,2.4,5.1,5.3,5c2.9,0,5.3-2.5,5.2-5.4C53.5,30.9,51.1,28.6,48.3,28.6L48.3,28.6z M78.4,29.7
	c-2.2,0.1-3.9,1.9-3.9,4.1c0,2.2,1.8,3.9,4,3.9c2.2,0,4-1.8,4-3.9C82.6,31.5,80.7,29.6,78.4,29.7L78.4,29.7z M108.7,30.8
	c-1.6,0.2-2.7,1.5-2.5,3.1c0.2,1.6,1.5,2.6,3.1,2.4c1.5-0.2,2.6-1.5,2.4-3C111.7,31.9,110.2,30.7,108.7,30.8L108.7,30.8z
	 M139.3,31.8c-1,0-1.9,0.8-1.9,1.9c0,1,0.8,1.7,1.7,1.8c1,0,1.9-0.8,1.9-1.9C141,32.7,140.2,31.9,139.3,31.8z M18,53.5
	c-5.8,0.1-10.4,4.8-10.4,10.6c0,5.9,4.7,10.6,10.6,10.6c5.9,0,10.6-4.8,10.5-10.7C28.7,58.2,23.9,53.4,18,53.5z M48.2,54.4
	c-5.2,0.1-9.5,4.4-9.6,9.6c-0.1,5.3,4.3,9.7,9.6,9.7c5.4,0,9.6-4.2,9.6-9.6C57.9,58.7,53.5,54.4,48.2,54.4z M78.5,55.6
	c-4.7,0-8.6,3.9-8.5,8.6c0.1,4.7,4,8.6,8.7,8.5c4.7-0.1,8.5-3.9,8.4-8.7C87,59.3,83.3,55.6,78.5,55.6z M109,56.7
	c-4.1,0-7.5,3.3-7.5,7.5c0,4.1,3.3,7.3,7.3,7.4c4.1,0,7.5-3.3,7.5-7.5C116.4,60,113.1,56.7,109,56.7L109,56.7z M139.3,57.9
	c-3.4-0.1-6.3,2.8-6.4,6.2c0,3.4,2.8,6.3,6.3,6.3c3.5,0,6.2-2.7,6.2-6.3C145.3,60.7,142.6,57.9,139.3,57.9L139.3,57.9z M169.7,59.1
	c-2.8,0-5.1,2.2-5.1,5c0,2.8,2.2,5,5,5c2.7,0,4.9-2.1,5-4.9C174.7,61.4,172.5,59.2,169.7,59.1z M199.9,60.3c-2.1,0-3.9,1.6-4,3.7
	s1.8,4,3.9,4c2.1,0,3.8-1.7,3.8-3.8C203.6,62,202,60.4,199.9,60.3L199.9,60.3z M230,61.3c-1.5,0-2.8,1.4-2.8,2.9
	c0,1.6,1.4,2.8,3,2.7c1.6-0.1,2.7-1.3,2.6-3C232.7,62.4,231.5,61.3,230,61.3z M260.2,62.3c-1,0.2-1.6,1-1.5,2c0.1,1,1.1,1.8,2.1,1.6
	c0.9-0.1,1.6-1,1.5-2C262.2,62.9,261.2,62.2,260.2,62.3L260.2,62.3z M19.7,80.6c-1.7-0.2-3.5-0.1-5.2,0.4
	c-5.6,1.5-9.8,6.5-10.2,12.2c-0.4,6.3,2.8,11.7,8.4,14.1c0.7,0.3,1.3,0.6,2.4,1c-5.5,1.2-9.2,4.1-11.8,8.4c-1.2-1.4-2.3-2.7-3.3-3.9
	v24.5c1.1-1.4,2.1-2.7,3.2-4.1c1.3,1.6,2.5,3.1,3.7,4.7c-1.2,1-2.3,1.8-3.3,2.7c-1.3-1-2.4-1.9-3.6-2.8V435h1199.9v-23.4
	c-6.4-0.1-11.2,3.2-14.7,9c-2.5-4.9-6.2-8-11.6-9.6c3.9-1.4,6.7-3.7,8.5-7c1.8-3.4,2.1-6.9,1-10.6c-1.8-6.1-7.3-10.1-13.6-10.1
	c-6.2,0-11.7,4.2-13.4,10.2c-0.9,3.1-0.7,6.1,0.4,9c1.6,4.1,4.7,6.8,9.1,8.5c-4.7,1.4-8.1,3.9-10.6,7.9c-2.3-3.8-5.3-6.4-9.1-8.1
	c7.4-5.8,9.6-11.6,7.2-18.4c-2.1-6-7.9-10-14.1-9.9c-7,0.2-11.9,4.4-14.5,12.5c-0.2-0.5-0.4-0.9-0.5-1.3
	c-1.2-5.4-5.9-10.9-13.2-11.7c-6.9-0.7-12.7,2.7-15.8,9c-0.2,0.4-0.5,0.8-0.8,1.2c-5.1-13.5-22.6-15.3-30.2-2.4
	c-2.3-4.5-5.9-7.5-10.8-9.2c7.8-4.5,10.7-10.2,9-17.1c-1.5-6.1-7.1-10.6-13.4-10.7c-6.3-0.1-12.1,4-13.9,10c-0.9,3-0.9,6.1,0.2,9.1
	c1.5,4.1,4.4,6.8,8.8,8.7c-4.4,1.4-7.6,3.8-10,7.5c-2.2-3.6-5.1-6-8.9-7.7c3.4-2,5.8-4.5,7.1-8c1.4-3.5,1.4-7.1,0-10.7
	c-2.2-5.7-7.6-9.5-13.7-9.5c-3.1,0-5.9,0.8-8.5,2.5c-3.5,2.4-5.5,5.8-6.5,10.4c-1.7-7.3-5.7-12.1-12.8-13.3
	c-8.1-1.4-13.7,2.4-17.5,9.6c-2.9-6.5-7.7-10.3-14.6-10.7c-6.9-0.4-12,2.9-15.7,8.8c-2.4-4.5-5.9-7.5-10.9-9.3
	c4.8-2.2,7.9-5.4,9.1-10.1c1.2-4.8,0.2-9.1-3-12.8c-5.4-6.4-15.1-6.7-21-0.8c-2.9,2.9-4.4,6.5-4.2,10.7c0.3,6.2,3.7,10.4,9.2,13
	c-1.9,1.1-3.6,1.9-5.2,3c-1.6,1.2-2.9,2.7-4.3,3.9c-1.3-1.4-2.5-2.9-3.9-4c-1.4-1.2-3-2.1-4.5-3.1c7-5.9,9.1-11.4,6.9-18
	c-2-6-7.3-10-13.7-10.3c-3-0.1-5.8,0.7-8.4,2.2c-3.6,2.3-5.8,5.6-7,10.1c-1.9-7.3-6.1-11.8-13.2-12.9c-7.7-1.1-13.3,2.4-16.9,9.3
	c-4.1-6.6-5.4-7.8-13-10.5c8.5-3.4,12.1-8.9,10.8-16.3c-1.2-6.3-6.7-11-13.2-11.1c-6.7-0.1-12.4,4.4-13.7,11
	c-0.7,3.7,0,7.3,2.1,10.4c2.1,3.1,5.1,4.9,8.8,5.9c-5.2,1.2-9.2,3.9-12,8.6c-2.4-4.3-5.7-7.1-10.3-8.8c4.6-2.3,7.6-5.5,8.7-10.2
	c1.1-4.7,0.1-9-3-12.6c-5.4-6.5-15.2-6.9-21.1-0.9c-3,3-4.4,6.6-4.2,10.9c0.3,6,3.5,10,9,12.9c-4,1.4-6.9,3.7-9.3,7
	c-2.2-3.3-4.9-5.6-8.4-7.3c3.2-2,5.4-4.5,6.7-7.8c1.3-3.3,1.4-6.7,0.2-10.1c-2-5.7-6.1-9.4-12.1-10.1c-8.3-1-13.7,3.1-16.8,10.7
	c-5.1-14.9-23.9-15.5-30.4-2c-2.4-5.5-6.5-8.8-12.6-10.4c1.1-0.4,1.7-0.7,2.3-1c7-3,10.3-11,7.4-18c-2.9-6.9-10.8-10.3-17.8-7.6
	c-5.3,2-8.8,7.1-8.8,12.8c-0.1,5.6,3.3,10.6,8.4,12.9c0.6,0.3,1.5,0.2,1.9,1c-1.5,0.6-3,1.1-4.4,1.9c-1.3,0.7-2.5,1.6-3.6,2.7
	c-1.1,1-2,2.3-3.1,3.5c-2.3-3.9-5.5-6.6-9.6-8.2c7.6-5.5,10-11,8-17.8c-1.8-6-7.3-10.1-13.6-10.3c-6.1-0.2-11.8,3.8-13.9,9.6
	c-1.1,2.9-1.2,5.9-0.3,8.8c1.2,4.4,4,7.4,8.3,9.6c-3.8,1.4-6.6,3.6-8.9,6.7c-2.1-3.1-4.7-5.3-8-7c6.3-4.7,8.9-10.7,6.5-18.1
	c-1.9-5.9-6.3-9.4-12.4-10.1c-8.1-0.9-13.4,3.1-16.6,10.5c-5.3-14.4-23.5-15.3-30.3-2.3c0,0,0-0.1-0.1-0.1v-0.2
	c-2.5-4.9-6.2-8-11.6-9.6c3.9-1.4,6.7-3.7,8.5-7c1.6-3.1,2.1-6.4,1.3-9.7c-0.1-0.3-0.1-0.5-0.2-0.8c0,0,0,0,0-0.1c0,0,0-0.1,0-0.1
	c-0.1-0.3-0.1-0.5-0.2-0.7c-2.4-6.8-9.7-10.7-16.7-8.8h0c-4.7,1.2-8.7,4.9-10,9.7c-0.9,3.1-0.7,6.1,0.4,9c1.6,4.1,4.7,6.8,9.1,8.5
	c-4.7,1.4-8.1,3.9-10.6,7.9c-2.3-3.8-5.3-6.4-9.1-8.1c7.4-5.8,9.6-11.6,7.2-18.4c-2.1-6-7.9-10-14.1-9.9c-7,0.2-11.9,4.4-14.5,12.5
	c-0.2-0.5-0.4-0.9-0.5-1.3c-1.2-5.4-5.9-10.9-13.2-11.7c-6.9-0.7-12.7,2.7-15.8,9c-0.2,0.4-0.5,0.8-0.8,1.2
	c-5.1-13.5-22.6-15.3-30.2-2.4c-2.3-4.5-5.9-7.5-10.8-9.2c7.8-4.5,10.7-10.2,9-17.1c-1.5-6.1-7.1-10.6-13.4-10.7
	c-6.3-0.1-12.1,4-13.9,10c-0.9,3-0.9,6.1,0.2,9.1c1.5,4.1,4.4,6.8,8.8,8.7c-4.4,1.4-7.6,3.8-10,7.5c-2.2-3.6-5.1-6-8.9-7.7
	c3.4-2,5.8-4.5,7.1-8c1.4-3.5,1.4-7.1,0-10.7c-2.2-5.7-7.6-9.5-13.7-9.5c-3.1,0-5.9,0.8-8.5,2.5c-3.5,2.4-5.5,5.8-6.5,10.4
	c-1.7-7.3-5.7-12.1-12.8-13.3c-8.1-1.4-13.7,2.4-17.5,9.6c-2.9-6.5-7.7-10.3-14.6-10.7c-6.9-0.4-12,2.9-15.7,8.8
	c-2.4-4.5-5.9-7.5-10.9-9.3c4.8-2.2,7.9-5.4,9.1-10.1s0.2-9.1-3-12.8c-5.4-6.4-15.1-6.7-21-0.8c-2.9,2.9-4.4,6.5-4.2,10.7
	c0.3,6.2,3.7,10.4,9.2,13c-1.9,1.1-3.6,1.9-5.2,3c-1.6,1.2-2.9,2.7-4.3,3.9c-1.3-1.4-2.5-2.9-3.9-4c-1.4-1.2-3-2.1-4.5-3.1
	c7-5.9,9.1-11.4,6.9-18c-2-6-7.3-10-13.7-10.3c-3-0.1-5.8,0.7-8.4,2.2c-3.6,2.3-5.8,5.6-7,10.1c-1.9-7.3-6.1-11.8-13.2-12.9
	c-7.7-1.1-13.3,2.4-16.9,9.3c-4.1-6.6-5.4-7.8-13-10.5c8.5-3.4,12.1-8.9,10.8-16.3c-1.2-6.3-6.7-11-13.2-11.1
	c-6.7-0.1-12.4,4.4-13.7,11c-0.7,3.7,0,7.3,2.1,10.4c2.1,3.1,5.1,4.9,8.8,5.9c-5.2,1.2-9.2,3.9-12,8.6c-2.4-4.3-5.7-7.1-10.3-8.8
	c4.6-2.3,7.6-5.5,8.7-10.2c1.1-4.7,0.1-9-3-12.6c-5.4-6.5-15.2-6.9-21.1-0.9c-3,3-4.4,6.6-4.2,10.9c0.3,6,3.5,10,9,12.9
	c-4,1.4-6.9,3.7-9.3,7c-2.2-3.3-4.8-5.6-8.4-7.3c3.2-2,5.4-4.5,6.7-7.8c1.3-3.3,1.4-6.7,0.2-10.1c-2-5.7-6.1-9.4-12.1-10.1
	c-8.3-1-13.7,3.1-16.8,10.7c-5.1-14.9-23.9-15.5-30.4-2c-2.4-5.5-6.5-8.8-12.6-10.4c1.1-0.4,1.7-0.7,2.3-1c7-3,10.3-11,7.4-18
	c-2.9-6.9-10.8-10.3-17.8-7.6c-5.3,2-8.8,7.1-8.8,12.8c-0.1,5.6,3.3,10.6,8.4,12.9c0.6,0.3,1.5,0.2,1.9,1c-1.5,0.6-3,1.1-4.4,1.9
	c-1.3,0.7-2.5,1.6-3.6,2.7c-1.1,1-2,2.3-3.1,3.5c-2.3-3.9-5.5-6.6-9.6-8.2c7.6-5.5,10-11,8-17.8c-1.8-6-7.3-10.1-13.6-10.3
	c-6.1-0.2-11.8,3.8-13.9,9.6c-1.1,2.9-1.2,5.9-0.3,8.8c1.2,4.4,4,7.4,8.3,9.6c-3.8,1.4-6.6,3.6-8.9,6.7c-2.1-3.1-4.7-5.3-8-7
	c6.3-4.7,8.9-10.7,6.5-18.1c-1.9-5.9-6.3-9.4-12.4-10.1c-8.1-0.9-13.4,3.1-16.6,10.5c-5.3-14.4-23.5-15.3-30.3-2.3
	c-2.5-5.2-6.6-8.5-12.5-9.9c1.1-0.4,1.8-0.7,2.4-1c6.8-2.9,10.1-10.5,7.7-17.5c-1.8-5.1-6.4-8.6-11.5-9.2L19.7,80.6z M48.3,81.2
	c-7.3,0-13.2,5.9-13.2,13.3c0,7.3,5.9,13.2,13.2,13.2c7.3,0,13.2-6,13.2-13.2S55.6,81.1,48.3,81.2z M78.6,82
	c-6.8,0-12.4,5.6-12.4,12.4c0,6.8,5.6,12.3,12.4,12.3c6.8,0,12.3-5.6,12.3-12.5C90.8,87.5,85.3,82,78.6,82L78.6,82z M109.1,82.9
	c-6.3-0.1-11.5,5-11.5,11.3c-0.1,6.3,5,11.5,11.3,11.6c6.3,0,11.5-5.1,11.6-11.3C120.5,88.1,115.4,83,109.1,82.9L109.1,82.9z
	 M139.1,83.9c-5.8,0-10.5,4.8-10.5,10.5c0,5.7,4.9,10.5,10.6,10.5c5.8,0,10.4-4.8,10.4-10.6C149.6,88.5,145,83.9,139.1,83.9
	L139.1,83.9z M169.5,84.9c-5.2,0.1-9.3,4.3-9.3,9.5c0,5.3,4.2,9.5,9.5,9.4c5.2,0,9.4-4.3,9.4-9.4C179.1,89.1,174.7,84.8,169.5,84.9
	L169.5,84.9z M199.7,86c-4.7,0-8.4,3.8-8.3,8.5c0.1,4.7,3.8,8.4,8.5,8.3c4.6-0.1,8.4-3.9,8.3-8.5C208.2,89.6,204.4,85.9,199.7,86z
	 M229.9,87.1c-4,0.1-7.1,3.4-7.1,7.4c0,4,3.2,7.2,7.3,7.1c4,0,7.2-3.3,7.2-7.2C237.3,90.4,233.9,87,229.9,87.1L229.9,87.1z M0,87.4
	v14.2C2.6,96.9,2.8,92.1,0,87.4z M260.4,88.3c-3.4,0.1-6,2.9-5.9,6.3c0.1,3.3,2.7,5.8,6.1,5.8c3.3,0,6-2.7,6-6
	C266.5,91,263.7,88.3,260.4,88.3z M290.7,89.6c-2.6,0-4.8,2.1-4.8,4.7c0,2.6,2.1,4.8,4.7,4.8c2.7,0,4.8-2,4.8-4.7
	C295.5,91.8,293.4,89.6,290.7,89.6z M321.2,90.7c-2.1,0-3.6,1.5-3.7,3.6c0,2,1.5,3.7,3.5,3.8c2.1,0.1,3.8-1.7,3.8-3.7
	C324.8,92.3,323.2,90.7,321.2,90.7z M351.2,91.8c-1.4,0.1-2.5,1.3-2.4,2.7c0,1.5,1.2,2.5,2.6,2.5c1.4,0,2.6-1.2,2.6-2.6
	C354,92.9,352.6,91.7,351.2,91.8L351.2,91.8z M381.9,92.9c-0.8,0-1.6,0.6-1.6,1.4c0,0.8,0.7,1.6,1.5,1.5c0.8-0.1,1.3-0.5,1.4-1.3
	C383.3,93.7,382.7,93,381.9,92.9L381.9,92.9z M169.6,111.8c-7.2,0-13.1,5.9-13,13.1c0.1,7.2,6,13.1,13.2,13c7.2,0,13-5.9,13-13.2
	C182.7,117.5,176.9,111.8,169.6,111.8L169.6,111.8z M199.7,112.7c-6.7,0-12.1,5.4-12.1,12.2c0,6.7,5.4,12.2,12.1,12.3
	c6.7,0.1,12.3-5.5,12.3-12.3C212.1,118.1,206.5,112.6,199.7,112.7L199.7,112.7z M230.2,113.5c-6.3,0-11.2,5-11.2,11.3
	c0,6.3,5,11.3,11.2,11.4s11.5-5.2,11.4-11.5C241.6,118.5,236.5,113.5,230.2,113.5L230.2,113.5z M260.4,114.5
	c-5.7,0-10.3,4.7-10.3,10.4c0,5.7,4.6,10.3,10.3,10.3c5.8,0,10.5-4.7,10.4-10.5C270.8,119,266.1,114.4,260.4,114.5z M290.7,115.5
	c-5.2,0-9.4,4.2-9.4,9.4c0.1,5.1,4.2,9.3,9.3,9.3c5.2,0,9.4-4.2,9.4-9.4C300,119.7,295.9,115.5,290.7,115.5z M321.3,116.4
	c-4.6-0.1-8.4,3.5-8.4,8.1c0,4.5,3.6,8.2,8.1,8.3c4.5,0.1,8.2-3.5,8.3-8.1C329.4,120.2,325.9,116.5,321.3,116.4L321.3,116.4z
	 M351.4,117.6c-3.9,0-7.1,3.2-7.1,7.1c0,3.8,3.2,6.9,7,6.9c3.9,0,7-3,7-6.8C358.4,120.8,355.3,117.6,351.4,117.6L351.4,117.6z
	 M381.8,118.8c-3.2,0-5.9,2.7-5.9,5.9c0,3.2,2.6,5.8,5.9,5.8c3.3,0,5.8-2.5,5.8-5.8C387.6,121.4,385,118.8,381.8,118.8L381.8,118.8z
	 M412.1,120c-2.7-0.1-4.8,2-4.8,4.6c0,2.5,2.1,4.6,4.6,4.7c2.5,0,4.6-2,4.7-4.6C416.7,122.1,414.7,120.1,412.1,120L412.1,120z
	 M442.1,121.3c-1.9,0-3.3,1.6-3.3,3.5c0.1,1.9,1.7,3.4,3.5,3.3c1.8-0.1,3.2-1.7,3.2-3.4C445.6,122.7,444,121.2,442.1,121.3
	L442.1,121.3z M472.7,122.2c-1.3,0-2.5,1.1-2.5,2.4c0,1.2,1,2.3,2.3,2.3c1.3,0,2.3-0.9,2.4-2.1C475,123.4,474,122.3,472.7,122.2
	L472.7,122.2z M502.8,123.1c-0.8,0-1.5,0.8-1.4,1.6c0.1,0.8,0.5,1.3,1.4,1.3c0.8,0,1.5-0.7,1.5-1.4
	C504.3,123.9,503.5,123.1,502.8,123.1L502.8,123.1z M64,129.2c1.3,3.9,3.5,6.6,6.6,8.6c-2.3,1.8-4.4,3.4-6.6,5.1c-2-1.7-4-3.4-6-5.2
	c1.1-1.2,2.3-2.4,3.3-3.7C62.3,132.6,63,131,64,129.2L64,129.2z M33.7,131.9c1.6,2,3.3,4,4.9,6c-1.5,1.2-3.1,2.4-4.8,3.8
	c-1.6-1.4-3-2.7-4.5-3.9C30.9,135.7,32.3,133.8,33.7,131.9z M290.7,142.2c-7.2,0-12.9,5.8-12.9,12.9c0,7.1,5.8,13,12.9,13
	c7.1,0,12.9-5.8,12.9-12.9C303.6,147.9,297.9,142.2,290.7,142.2L290.7,142.2z M320.8,143c-6.6,0.2-11.8,5.7-11.7,12.3
	c0.1,6.7,5.8,12,12.4,11.8c6.6-0.2,11.8-5.7,11.7-12.3C333,148.1,327.5,142.9,320.8,143L320.8,143z M351.3,143.9
	c-6.2,0-11.1,4.9-11.1,11.2c0,6.2,5,11.2,11.2,11.2c6.1,0,11.2-5.1,11.1-11.2C362.5,148.9,357.5,143.9,351.3,143.9z M381.7,144.9
	c-5.5,0-10.1,4.6-10.1,10.1c0,5.7,4.5,10.2,10.2,10.2c5.6,0,10-4.5,10.1-10.1C391.9,149.4,387.4,144.9,381.7,144.9L381.7,144.9z
	 M412,145.9c-5,0-9.1,4.1-9.1,9.1c0,5.1,4,9.1,9,9.2c5.1,0,9.3-4.1,9.3-9.2C421.1,150,417,145.9,412,145.9L412,145.9z M442.4,147.1
	c-4.4,0-7.9,3.5-8,7.9c-0.1,4.5,3.4,8.1,7.9,8.1c4.5,0,8.1-3.5,8.1-8C450.4,150.7,446.8,147,442.4,147.1L442.4,147.1z M472.6,148.3
	c-3.8,0-6.8,3-6.7,6.9c0,3.8,3,6.8,6.8,6.9c3.7,0,6.9-3.1,6.9-6.8C479.5,151.3,476.4,148.2,472.6,148.3L472.6,148.3z M502.8,149.4
	c-3.1,0-5.6,2.5-5.6,5.6c0,3.1,2.5,5.6,5.5,5.7c3.2,0.1,5.7-2.5,5.8-5.6C508.5,151.9,506,149.4,502.8,149.4L502.8,149.4z
	 M533.2,150.7c-2.4,0-4.3,2-4.4,4.4c0,2.4,1.9,4.4,4.3,4.4c2.5,0,4.5-2,4.5-4.5C537.6,152.6,535.6,150.6,533.2,150.7L533.2,150.7z
	 M563.6,151.8c-1.7-0.1-3.3,1.5-3.3,3.2c0,1.7,1.4,3.1,3.1,3.2c1.8,0,3.2-1.2,3.3-3C566.7,153.4,565.3,151.9,563.6,151.8
	L563.6,151.8z M593.8,153c-1.2,0-2.1,1-2,2.3c0.1,1.1,1.1,2,2.2,1.9c1.1-0.1,2.2-1.2,2-2.3C595.9,153.8,594.9,152.9,593.8,153
	L593.8,153z M624.2,153.5c-0.5,0.5-1,0.9-1,1.2c0.1,0.4,0.5,1,0.9,1.1c0.6,0.1,1.1-0.4,1-1C625.1,154.4,624.7,154.1,624.2,153.5
	L624.2,153.5z M185.3,159c1.3,4.1,3.6,7,6.9,9c-2.4,1.8-4.6,3.5-6.8,5.2c-1-0.9-1.9-1.9-3-2.7c-1.1-0.9-2.2-1.7-3.2-2.5
	c1.3-1.5,2.6-2.7,3.6-4.2C183.7,162.5,184.4,160.8,185.3,159L185.3,159z M154.9,161.6c1.6,2.1,3.4,4.3,5.1,6.5
	c-1.6,1.3-3.3,2.7-5.1,4c-1.6-1.4-3.2-2.8-4.7-4.1C151.9,165.8,153.4,163.7,154.9,161.6L154.9,161.6z M381.8,171.7
	c-7.5,0-13.5,6-13.6,13.4c-0.1,7.5,6,13.7,13.5,13.8c7.5,0.1,13.6-6,13.7-13.6C395.4,177.8,389.4,171.8,381.8,171.7L381.8,171.7z
	 M411.9,172.5c-7,0.1-12.6,5.7-12.7,12.7c0,7.1,5.7,12.8,12.7,12.8c7.1,0,12.8-5.7,12.8-12.8C424.7,178.2,418.9,172.5,411.9,172.5
	L411.9,172.5z M442.3,173.4c-6.5,0.1-11.8,5.4-11.9,11.9c0,6.6,5.4,12,12,11.9c6.5,0,11.8-5.3,11.8-11.9
	C454.3,178.7,448.9,173.3,442.3,173.4z M472.8,174.4c-6.1,0-11.1,4.8-11.1,10.9c0,6,4.9,10.9,10.9,11c6.1,0.1,11-4.8,11.1-11
	C483.6,179.2,478.8,174.4,472.8,174.4L472.8,174.4z M502.6,175.3c-5.5,0.1-9.8,4.6-9.7,10.1c0.1,5.5,4.6,9.9,10.1,9.8
	c5.5-0.1,9.9-4.6,9.9-10.1C512.8,179.7,508.2,175.2,502.6,175.3L502.6,175.3z M533.3,176.3c-4.9,0-9,4.1-9,9c0,5,4.1,9,9,8.9
	c5,0,8.9-4,8.9-9C542.2,180.3,538.2,176.4,533.3,176.3z M563.4,177.4c-4.3,0-7.7,3.5-7.8,7.8c-0.1,4.3,3.5,7.9,7.9,8
	c4.3,0,7.9-3.6,7.9-7.9C571.3,180.9,567.8,177.4,563.4,177.4L563.4,177.4z M593.9,178.7c-3.7,0-6.7,3-6.6,6.7c0,3.6,3.1,6.7,6.8,6.6
	c3.7,0,6.6-3,6.6-6.8C600.5,181.5,597.6,178.6,593.9,178.7L593.9,178.7z M624.2,180.1c-2.9,0-5.2,2.5-5.1,5.4c0.1,2.9,2.4,5.1,5.3,5
	c2.9,0,5.3-2.5,5.2-5.4C629.4,182.3,627,180,624.2,180.1L624.2,180.1z M654.3,181.1c-2.2,0.1-3.9,1.9-3.9,4.1c0,2.2,1.8,3.9,4,3.9
	c2.2,0,4-1.8,4-3.9C658.5,182.9,656.6,181,654.3,181.1L654.3,181.1z M684.6,182.3c-1.6,0.2-2.7,1.5-2.5,3.1c0.2,1.6,1.5,2.6,3.1,2.4
	c1.5-0.2,2.6-1.5,2.4-3C687.6,183.3,686.1,182.1,684.6,182.3L684.6,182.3z M715.2,183.3c-1,0-1.9,0.8-1.9,1.9c0,1,0.8,1.7,1.8,1.8
	c1,0,1.9-0.8,1.9-1.9C716.9,184.1,716.1,183.3,715.2,183.3z M306.3,187.7c1.2,5,3.7,8.5,7.6,10.7c-2.6,2-5,3.8-7.4,5.6
	c-2.1-1.8-4.4-3.8-6.8-5.9C303.1,195.7,305.2,192.4,306.3,187.7L306.3,187.7z M276.1,191.8c1.8,2.2,3.6,4.5,5.5,6.7
	c-1.6,1.2-3.4,2.6-5.2,4c-1.7-1.5-3.4-2.9-4.9-4.3C273.1,195.9,274.6,193.8,276.1,191.8L276.1,191.8z M502.9,202.3
	c-7.5,0-13.5,5.9-13.5,13.4c0,7.5,6.1,13.7,13.5,13.5c8.1-0.2,13.4-6.4,13.4-13.6C516.3,208.3,510.3,202.3,502.9,202.3L502.9,202.3z
	 M533.3,202.9c-7,0-12.6,5.7-12.6,12.7c0,7,5.6,12.6,12.7,12.6c7,0,12.7-5.8,12.6-12.7C545.8,208.5,540.2,202.9,533.3,202.9
	L533.3,202.9z M563.3,203.7c-6.4,0.2-11.7,5.5-11.6,11.9c0.1,6.5,5.4,11.7,12,11.7c6.6-0.1,11.7-5.4,11.5-12.1
	C575.1,208.8,569.7,203.6,563.3,203.7L563.3,203.7z M594,204.8c-6,0-10.8,4.7-10.8,10.7c-0.1,5.9,4.7,10.8,10.6,10.9
	c5.9,0.1,10.9-4.7,11-10.6C604.8,209.7,600,204.8,594,204.8z M624.1,205.9c-5.2,0.1-9.5,4.4-9.6,9.6c-0.1,5.3,4.3,9.7,9.6,9.7
	c5.4,0,9.6-4.2,9.6-9.6C633.8,210.2,629.4,205.8,624.1,205.9L624.1,205.9z M654.4,207c-4.7,0-8.6,3.9-8.5,8.6c0.1,4.7,4,8.6,8.7,8.5
	c4.7-0.1,8.5-3.9,8.4-8.7C662.9,210.7,659.2,207,654.4,207L654.4,207z M684.9,208.1c-4.1,0-7.5,3.3-7.5,7.5c0,4.1,3.3,7.3,7.3,7.4
	c4.1,0,7.5-3.3,7.5-7.5C692.3,211.5,689,208.2,684.9,208.1L684.9,208.1z M715.2,209.3c-3.4-0.1-6.3,2.8-6.4,6.2
	c0,3.4,2.8,6.3,6.3,6.3c3.5,0,6.2-2.7,6.2-6.3C721.2,212.1,718.5,209.4,715.2,209.3L715.2,209.3z M745.6,210.6c-2.8,0-5.1,2.2-5.1,5
	c0,2.8,2.2,5,5,5c2.7,0,4.9-2.1,5-4.9C750.6,212.9,748.4,210.6,745.6,210.6L745.6,210.6z M775.8,211.8c-2.1,0-3.9,1.6-4,3.7
	s1.8,4,3.9,4c2.1,0,3.8-1.7,3.8-3.8C779.5,213.5,777.9,211.8,775.8,211.8L775.8,211.8z M805.9,212.7c-1.5,0-2.8,1.4-2.8,2.9
	c0,1.6,1.4,2.8,3,2.7c1.6-0.1,2.7-1.3,2.6-3C808.6,213.9,807.4,212.7,805.9,212.7z M836.1,213.8c-1,0.2-1.6,1-1.5,2
	c0.1,1,1.1,1.8,2.1,1.6c0.9-0.1,1.6-1,1.5-2C838.1,214.4,837.1,213.6,836.1,213.8z M427.7,218.3c1,4.7,3.6,8.3,7.6,10.6
	c-2.6,2-5.1,4-7.1,5.6c-1.2-0.9-2.4-2-3.6-2.9c-1.2-0.9-2.4-1.8-3.5-2.6c1.5-1.7,3-3.1,4.1-4.8C426.2,222.3,426.8,220.3,427.7,218.3
	L427.7,218.3z M397.3,222c1.8,2.3,3.7,4.6,5.6,6.9c-1.7,1.3-3.6,2.8-5.4,4.2c-1.7-1.5-3.5-3-5.1-4.4
	C394.1,226.5,395.7,224.2,397.3,222L397.3,222z M624.2,232.6c-7.3,0-13.2,5.9-13.2,13.3c0,7.3,5.9,13.2,13.2,13.2
	c7.3,0,13.2-5.9,13.2-13.2C637.4,238.5,631.4,232.6,624.2,232.6z M654.5,233.5c-6.8,0-12.4,5.6-12.4,12.4c0,6.8,5.6,12.3,12.4,12.3
	c6.8,0,12.3-5.6,12.3-12.5C666.7,239,661.2,233.5,654.5,233.5L654.5,233.5z M685,234.4c-6.3-0.1-11.5,5-11.5,11.3
	c-0.1,6.3,5,11.5,11.3,11.6c6.3,0,11.5-5.1,11.6-11.3C696.4,239.6,691.3,234.5,685,234.4L685,234.4z M715,235.4
	c-5.8,0-10.5,4.8-10.5,10.5c0,5.7,4.9,10.5,10.6,10.5c5.8,0,10.4-4.8,10.4-10.6C725.5,239.9,720.9,235.3,715,235.4L715,235.4z
	 M745.4,236.3c-5.2,0.1-9.3,4.3-9.3,9.5c0,5.3,4.2,9.5,9.5,9.4c5.2,0,9.4-4.3,9.4-9.4C755,240.6,750.6,236.3,745.4,236.3
	L745.4,236.3z M775.6,237.4c-4.7,0-8.4,3.8-8.3,8.5c0.1,4.7,3.8,8.4,8.5,8.3c4.6-0.1,8.4-3.9,8.3-8.5
	C784.1,241.1,780.3,237.4,775.6,237.4L775.6,237.4z M805.8,238.5c-4,0.1-7.1,3.4-7.1,7.4c0,4,3.2,7.2,7.3,7.1c4,0,7.2-3.3,7.2-7.2
	C813.2,241.8,809.8,238.4,805.8,238.5L805.8,238.5z M836.3,239.8c-3.4,0.1-6,2.9-5.9,6.3c0.1,3.3,2.7,5.8,6.1,5.8c3.3,0,6-2.7,6-6
	C842.4,242.5,839.6,239.7,836.3,239.8z M866.6,241c-2.6,0-4.8,2.1-4.8,4.7c0,2.6,2.1,4.8,4.7,4.8c2.7,0,4.8-2,4.8-4.7
	C871.3,243.2,869.2,241,866.6,241L866.6,241z M897,242.2c-2.1,0-3.6,1.5-3.7,3.6c0,2,1.5,3.7,3.5,3.8c2.1,0.1,3.8-1.7,3.8-3.7
	C900.7,243.8,899.1,242.2,897,242.2z M927.1,243.2c-1.4,0.1-2.5,1.3-2.4,2.7c0,1.5,1.2,2.5,2.6,2.5c1.4,0,2.6-1.2,2.6-2.6
	C929.8,244.4,928.5,243.1,927.1,243.2L927.1,243.2z M957.7,244.4c-0.8,0-1.6,0.6-1.6,1.4c0,0.8,0.7,1.6,1.5,1.5
	c0.8-0.1,1.3-0.5,1.4-1.3C959.2,245.1,958.6,244.4,957.7,244.4z M548.8,248.3c1,4.9,3.7,8.5,7.8,10.8c-2.7,2.1-5.2,4-7.6,5.9
	c-2.3-2-4.6-4-7.1-6.2C545.5,256.4,547.7,252.7,548.8,248.3L548.8,248.3z M518.5,251.1c1.4,3.3,3.5,5.9,6.3,7.8
	c-2.2,1.7-4.1,3.2-6,4.7c-1.9-1.6-3.7-3.3-5.7-5C515.5,256.6,517.3,254.2,518.5,251.1z M745.4,263.2c-7.2,0-13.1,5.9-13,13.1
	c0.1,7.2,6,13.1,13.2,13c7.2,0,13-5.9,13-13.2C758.5,269,752.7,263.2,745.4,263.2z M775.6,264.1c-6.7,0-12.1,5.4-12.1,12.2
	c0,6.7,5.4,12.2,12.1,12.3c6.7,0.1,12.3-5.5,12.3-12.3C787.9,269.5,782.4,264.1,775.6,264.1z M806.1,265c-6.3,0-11.2,5-11.2,11.3
	c0,6.3,5,11.3,11.2,11.4c6.2,0,11.5-5.2,11.4-11.5C817.4,269.9,812.3,265,806.1,265L806.1,265z M836.3,265.9
	c-5.7,0-10.3,4.7-10.3,10.4c0,5.7,4.6,10.3,10.3,10.3c5.8,0,10.5-4.7,10.4-10.5C846.7,270.5,842,265.9,836.3,265.9L836.3,265.9z
	 M866.6,266.9c-5.2,0-9.4,4.2-9.4,9.4c0.1,5.1,4.2,9.3,9.3,9.3c5.2,0,9.4-4.2,9.4-9.4C875.9,271.1,871.7,267,866.6,266.9z
	 M897.2,267.9c-4.6-0.1-8.4,3.5-8.4,8.1c0,4.5,3.6,8.2,8.1,8.3c4.5,0.1,8.2-3.5,8.3-8.1C905.3,271.6,901.8,268,897.2,267.9
	L897.2,267.9z M927.3,269c-3.9,0-7.1,3.2-7.1,7.1c0,3.8,3.2,6.9,7,6.9c3.9,0,7-3,7-6.8C934.3,272.3,931.2,269.1,927.3,269L927.3,269
	z M957.6,270.2c-3.2,0-5.9,2.7-5.9,5.9c0,3.2,2.6,5.8,5.9,5.8c3.3,0,5.8-2.5,5.8-5.8C963.5,272.8,960.9,270.2,957.6,270.2
	L957.6,270.2z M988,271.4c-2.7-0.1-4.8,2-4.8,4.6c0,2.5,2.1,4.6,4.6,4.7c2.5,0,4.6-2,4.7-4.6C992.5,273.6,990.6,271.5,988,271.4
	L988,271.4z M1018,272.7c-1.9,0-3.3,1.6-3.3,3.5c0.1,1.9,1.7,3.4,3.5,3.3c1.8-0.1,3.2-1.7,3.2-3.4
	C1021.4,274.2,1019.9,272.7,1018,272.7z M1048.6,273.7c-1.3,0-2.5,1.1-2.5,2.4c0,1.2,1,2.3,2.3,2.3c1.3,0,2.3-0.9,2.4-2.1
	C1050.9,274.9,1049.9,273.7,1048.6,273.7L1048.6,273.7z M1078.7,274.6c-0.8,0-1.5,0.8-1.4,1.6c0.1,0.8,0.5,1.3,1.4,1.3
	c0.8,0,1.5-0.7,1.5-1.4C1080.2,275.3,1079.4,274.6,1078.7,274.6L1078.7,274.6z M639.9,280.7c1.3,3.9,3.5,6.6,6.6,8.6
	c-2.3,1.8-4.4,3.4-6.6,5.1c-2-1.7-4-3.4-6-5.2c1.1-1.2,2.3-2.4,3.3-3.7C638.2,284.1,638.9,282.5,639.9,280.7L639.9,280.7z
	 M609.6,283.4c1.6,2,3.3,4,4.9,6c-1.5,1.2-3.1,2.4-4.8,3.8c-0.1-0.1-0.2-0.2-0.3-0.3v-0.4c-1.5-1.3-2.2-2.5-3.6-3.7
	c1.3-1.7,2.4-3.4,3.6-5v-0.1C609.5,283.5,609.5,283.4,609.6,283.4L609.6,283.4z M579.3,285.2c0.9,1.2,1.9,2.3,2.8,3.5
	c-1.1,0.9-2.1,1.7-3.2,2.7c-0.9-0.7-1.8-1.4-2.7-2.1C577.3,287.8,578.3,286.6,579.3,285.2L579.3,285.2z M866.6,293.6
	c-7.2,0-12.9,5.8-12.9,12.9c0,7.1,5.8,13,12.9,13c7.1,0,12.9-5.8,12.9-12.9C879.5,299.4,873.8,293.6,866.6,293.6L866.6,293.6z
	 M896.6,294.5c-6.6,0.2-11.8,5.7-11.7,12.3c0.1,6.7,5.8,12,12.4,11.8c6.6-0.2,11.8-5.7,11.7-12.3
	C908.9,299.5,903.4,294.3,896.6,294.5L896.6,294.5z M927.2,295.4c-6.2,0-11.1,4.9-11.1,11.2c0,6.2,5,11.2,11.2,11.2
	c6.1,0,11.2-5.1,11.1-11.2C938.4,300.3,933.4,295.4,927.2,295.4L927.2,295.4z M957.6,296.4c-5.5,0-10.1,4.6-10.1,10.1
	c0,5.7,4.5,10.2,10.2,10.2c5.6,0,10-4.5,10.1-10.1C967.8,300.9,963.2,296.3,957.6,296.4L957.6,296.4z M987.9,297.4
	c-5,0-9.1,4.1-9.1,9.1c0,5.1,4,9.1,9,9.2c5.1,0,9.3-4.1,9.3-9.2C997,301.5,992.8,297.4,987.9,297.4L987.9,297.4z M1018.3,298.5
	c-4.4,0-7.9,3.5-8,7.9c-0.1,4.5,3.4,8.1,7.9,8.1c4.5,0,8.1-3.5,8.1-8C1026.3,302.1,1022.7,298.5,1018.3,298.5L1018.3,298.5z
	 M1048.4,299.7c-3.8,0-6.8,3-6.7,6.9c0,3.8,3,6.8,6.8,6.9c3.7,0,6.9-3.1,6.9-6.8C1055.4,302.8,1052.3,299.7,1048.4,299.7
	L1048.4,299.7z M1078.6,300.9c-3.1,0-5.6,2.5-5.6,5.6c0,3.1,2.5,5.6,5.5,5.7c3.2,0.1,5.7-2.4,5.8-5.6
	C1084.4,303.4,1081.8,300.9,1078.6,300.9L1078.6,300.9z M1109.1,302.1c-2.4,0-4.3,2-4.4,4.4c0,2.4,1.9,4.4,4.3,4.4
	c2.5,0,4.5-2,4.5-4.5C1113.5,304.1,1111.5,302.1,1109.1,302.1L1109.1,302.1z M1139.4,303.3c-1.7-0.1-3.3,1.5-3.3,3.2
	c0,1.7,1.4,3.1,3.1,3.2c1.8,0.1,3.2-1.2,3.3-3C1142.6,304.9,1141.2,303.4,1139.4,303.3L1139.4,303.3z M1169.7,304.4
	c-1.2,0-2.1,1-2,2.3c0.1,1.1,1.1,2,2.2,1.9c1.1-0.1,2.2-1.2,2-2.3C1171.8,305.3,1170.8,304.4,1169.7,304.4L1169.7,304.4z
	 M1199.9,305c-0.8,0-1.4,0.8-1.4,1.6c0.1,0.8,0.6,1.3,1.4,1.3h0L1199.9,305C1200,305,1200,305,1199.9,305L1199.9,305z M761.2,310.5
	c1.3,4.1,3.6,7,6.9,9c-2.4,1.8-4.6,3.5-6.8,5.2c-1-0.9-1.9-1.9-3-2.7c-1.1-0.9-2.2-1.7-3.2-2.5c1.3-1.5,2.6-2.7,3.6-4.2
	C759.6,313.9,760.2,312.3,761.2,310.5z M730.8,313.1c1.6,2.1,3.4,4.3,5.1,6.5c-1.6,1.3-3.3,2.7-5.1,4c-1.6-1.4-3.2-2.8-4.7-4.1
	C727.8,317.3,729.3,315.2,730.8,313.1L730.8,313.1z M957.7,323.2c-7.5,0-13.5,6-13.6,13.4c-0.1,7.5,6,13.7,13.5,13.8
	c7.5,0.1,13.6-6,13.7-13.6C971.3,329.3,965.2,323.2,957.7,323.2L957.7,323.2z M987.8,324c-7,0.1-12.6,5.7-12.7,12.7
	c0,7.1,5.7,12.8,12.7,12.8c7.1,0,12.8-5.7,12.8-12.8C1000.6,329.7,994.8,324,987.8,324L987.8,324z M1018.2,324.8
	c-6.5,0.1-11.8,5.4-11.9,11.9c0,6.6,5.4,12,12,11.9c6.5,0,11.8-5.3,11.8-11.9C1030.2,330.2,1024.8,324.8,1018.2,324.8L1018.2,324.8z
	 M1048.6,325.9c-6.1,0-11.1,4.8-11.1,10.9c0,6,4.9,10.9,10.9,11c6.1,0.1,11-4.8,11.1-11C1059.4,330.7,1054.7,325.9,1048.6,325.9
	L1048.6,325.9z M1078.5,326.8c-5.5,0.1-9.8,4.6-9.7,10.1c0.1,5.5,4.6,9.9,10.1,9.8c5.5-0.1,9.9-4.6,9.9-10.1
	C1088.7,331.2,1084.1,326.7,1078.5,326.8L1078.5,326.8z M1109.2,327.8c-4.9,0-9,4.1-9,9c0,5,4.1,9,9,8.9c5,0,8.9-4,8.9-9
	C1118,331.8,1114.1,327.8,1109.2,327.8z M1139.3,328.9c-4.3,0-7.7,3.5-7.8,7.8c-0.1,4.3,3.5,7.9,7.9,8c4.3,0,7.9-3.5,7.9-7.9
	C1147.2,332.4,1143.7,328.9,1139.3,328.9L1139.3,328.9z M1169.7,330.1c-3.7,0-6.7,3-6.6,6.7c0,3.6,3.1,6.7,6.8,6.6
	c3.7,0,6.6-3,6.6-6.8C1176.4,333,1173.5,330.1,1169.7,330.1L1169.7,330.1z M1200,331.4c-3,0-5.4,2.4-5.4,5.4c0,3,2.4,5.5,5.4,5.5h0
	L1200,331.4L1200,331.4z M882.2,339.2c1.2,5,3.7,8.5,7.6,10.7c-2.6,2-5,3.8-7.4,5.6c-2.1-1.8-4.4-3.8-6.8-5.9
	C879,347.2,881.1,343.9,882.2,339.2L882.2,339.2z M851.9,343.3c1.8,2.2,3.6,4.5,5.5,6.7c-1.6,1.2-3.4,2.6-5.2,4
	c-1.7-1.5-3.4-2.9-4.9-4.3C848.9,347.4,850.5,345.3,851.9,343.3z M1078.8,353.8c-7.5,0-13.5,5.9-13.5,13.4c0,7.5,6.1,13.7,13.5,13.5
	c8.1-0.2,13.4-6.5,13.4-13.6C1092.2,359.8,1086.2,353.8,1078.8,353.8z M1109.2,354.4c-7,0-12.6,5.7-12.6,12.7
	c0,7,5.6,12.6,12.7,12.6c7,0,12.7-5.8,12.6-12.7C1121.7,360,1116,354.4,1109.2,354.4L1109.2,354.4z M1139.2,355.2
	c-6.4,0.2-11.7,5.5-11.6,11.9c0.1,6.5,5.4,11.7,12,11.7c6.6-0.1,11.7-5.4,11.5-12.1C1151,360.3,1145.5,355.1,1139.2,355.2
	L1139.2,355.2z M1169.8,356.2c-6,0-10.8,4.7-10.8,10.7c-0.1,5.9,4.7,10.8,10.6,10.9c5.9,0.1,10.9-4.7,11-10.6
	C1180.7,361.2,1175.9,356.3,1169.8,356.2z M1200,357.2c-5.4,0-9.8,4.3-9.9,9.7c-0.1,5.4,4.5,10,9.9,10l0,0L1200,357.2L1200,357.2z
	 M1003.6,369.8c1,4.7,3.6,8.3,7.6,10.6c-2.6,2-5.1,4-7.1,5.6c-1.2-0.9-2.4-2-3.6-2.9c-1.2-0.9-2.4-1.8-3.5-2.6
	c1.5-1.7,3-3.1,4.1-4.8C1002,373.8,1002.7,371.8,1003.6,369.8L1003.6,369.8z M973.2,373.5c1.8,2.3,3.7,4.6,5.6,6.9
	c-1.7,1.3-3.6,2.8-5.4,4.2c-1.7-1.5-3.5-3-5.1-4.4C970,377.9,971.6,375.6,973.2,373.5L973.2,373.5z M1200,384.1
	c-7.3,0-13.3,5.9-13.4,13.2c-0.1,7.5,5.9,13.5,13.4,13.5V384.1z M1124.6,399.8c1,4.9,3.7,8.5,7.8,10.8c-2.7,2.1-5.2,4-7.6,5.9
	c-2.3-2-4.6-4-7.1-6.2C1121.4,407.9,1123.6,404.2,1124.6,399.8L1124.6,399.8z M1094.4,402.6c1.4,3.3,3.5,5.9,6.3,7.8
	c-2.2,1.7-4.1,3.2-6,4.7c-1.9-1.6-3.7-3.3-5.7-5C1091.4,408.1,1093.1,405.6,1094.4,402.6z"/>
</svg>
